<svg width="45" height="45" viewBox="0 0 45 45" fill="none" xmlns="http://www.w3.org/2000/svg">
<path d="M0 22.5C0 10.0736 10.0736 0 22.5 0V0C34.9264 0 45 10.0736 45 22.5V22.5C45 34.9264 34.9264 45 22.5 45V45C10.0736 45 0 34.9264 0 22.5V22.5Z" fill="white"/>
<path d="M12.854 30H11.0075L16.3484 15.4545H18.1665L23.5075 30H21.6609L17.3143 17.7557H17.2006L12.854 30ZM13.5359 24.3182H20.979V25.8807H13.5359V24.3182ZM27.2219 15.4545V30H25.5458V15.4545H27.2219ZM31.968 15.4545V30H30.2919V15.4545H31.968Z" fill="black"/>
</svg>
