<svg width="361" height="233" viewBox="0 0 361 233" fill="none" xmlns="http://www.w3.org/2000/svg">
<g clip-path="url(#clip0_496_509)">
<path d="M94.2209 161.813V143.944H83.5815V172.458H112.08V161.813H94.2209Z" fill="#3F3D56"/>
<path d="M126.16 129.857H97.6606V158.371H126.16V129.857Z" fill="#64D4AB"/>
<path d="M285.912 94.6314C312.03 94.6314 333.203 73.4475 333.203 47.3157C333.203 21.184 312.03 0 285.912 0C259.794 0 238.621 21.184 238.621 47.3157C238.621 73.4475 259.794 94.6314 285.912 94.6314Z" fill="#E6E6E6"/>
<path d="M295.154 55.8774C293.726 61.1578 288.836 64.4281 288.836 64.4281C288.836 64.4281 286.26 59.1372 287.688 53.8568C289.116 48.5764 294.006 45.3062 294.006 45.3062C294.006 45.3062 296.581 50.597 295.154 55.8774Z" fill="#3F3D56"/>
<path d="M284.071 83.4926C286.794 88.2365 285.647 94.0086 285.647 94.0086C285.647 94.0086 280.087 92.0894 277.364 87.3456C274.642 82.6017 275.789 76.8296 275.789 76.8296C275.789 76.8296 281.349 78.7488 284.071 83.4926Z" fill="#3F3D56"/>
<path d="M281.238 22.0742C283.96 26.818 282.813 32.5901 282.813 32.5901C282.813 32.5901 277.253 30.6709 274.531 25.9271C271.808 21.1832 272.955 15.4111 272.955 15.4111C272.955 15.4111 278.515 17.3303 281.238 22.0742Z" fill="#3F3D56"/>
<path d="M285.615 94.4814L285.472 93.8681L285.544 94.1747L285.471 93.8684C285.493 93.8631 287.679 93.3049 289.32 90.3207C291.479 86.3947 292.823 78.102 286.971 60.8899C281.582 45.0417 282.215 32.8064 283.694 25.333C285.301 17.2147 288.147 12.9168 288.267 12.7378L288.789 13.0894C288.761 13.1324 285.883 17.4863 284.304 25.4929C282.847 32.8848 282.23 44.9903 287.567 60.6869C293.506 78.1549 292.088 86.6278 289.852 90.66C288.069 93.8752 285.715 94.4583 285.615 94.4814Z" fill="#3F3D56"/>
<path d="M288.528 20.7878C292.874 20.7878 296.398 17.2624 296.398 12.9137C296.398 8.56492 292.874 5.03955 288.528 5.03955C284.181 5.03955 280.658 8.56492 280.658 12.9137C280.658 17.2624 284.181 20.7878 288.528 20.7878Z" fill="#64D4AB"/>
<path d="M47.4451 193.655C46.0385 198.858 41.2206 202.08 41.2206 202.08C41.2206 202.08 38.6832 196.867 40.0898 191.665C41.4964 186.462 46.3144 183.24 46.3144 183.24C46.3144 183.24 48.8517 188.453 47.4451 193.655Z" fill="#E6E6E6"/>
<path d="M36.5264 220.862C39.2085 225.536 38.0788 231.223 38.0788 231.223C38.0788 231.223 32.6005 229.332 29.9184 224.658C27.2363 219.985 28.3661 214.298 28.3661 214.298C28.3661 214.298 33.8443 216.189 36.5264 220.862Z" fill="#E6E6E6"/>
<path d="M33.7349 160.351C36.417 165.025 35.2873 170.712 35.2873 170.712C35.2873 170.712 29.809 168.821 27.1269 164.147C24.4448 159.473 25.5746 153.787 25.5746 153.787C25.5746 153.787 31.0528 155.677 33.7349 160.351Z" fill="#E6E6E6"/>
<path d="M38.0472 231.689L37.9061 231.085L37.9766 231.387L37.9049 231.085C37.9265 231.08 40.0806 230.53 41.6972 227.59C43.8241 223.722 45.1489 215.551 39.3828 198.594C34.0736 182.98 34.6967 170.925 36.1543 163.562C37.7378 155.564 40.5411 151.329 40.6597 151.153L41.1744 151.499C41.146 151.542 38.311 155.831 36.7556 163.72C35.3196 171.002 34.7116 182.929 39.97 198.394C45.8218 215.604 44.4242 223.951 42.2212 227.924C40.4647 231.092 38.1452 231.666 38.0472 231.689Z" fill="#E6E6E6"/>
<path d="M40.9173 159.084C45.1996 159.084 48.6711 155.611 48.6711 151.326C48.6711 147.042 45.1996 143.568 40.9173 143.568C36.6351 143.568 33.1636 147.042 33.1636 151.326C33.1636 155.611 36.6351 159.084 40.9173 159.084Z" fill="#E6E6E6"/>
<path d="M361 232.097H0V232.82H361V232.097Z" fill="#3F3D56"/>
<path d="M172.556 67.3828L177.535 80.2838L190.431 107.519C190.431 107.519 203.643 125.279 196.649 126.615C189.656 127.952 185.113 110.605 185.113 110.605L167.093 82.6898L172.556 67.3828Z" fill="#FFB8B8"/>
<path d="M162.269 38.6806C168.251 38.6806 173.099 33.8293 173.099 27.8449C173.099 21.8606 168.251 17.0093 162.269 17.0093C156.288 17.0093 151.439 21.8606 151.439 27.8449C151.439 33.8293 156.288 38.6806 162.269 38.6806Z" fill="#FFB8B8"/>
<path d="M153.966 31.8179C153.966 31.8179 154.327 43.7371 149.634 46.2654C149.634 46.2654 159.381 45.9042 164.435 53.8504H169.128C169.128 53.8504 161.908 48.7937 165.518 36.5133L153.966 31.8179Z" fill="#FFB8B8"/>
<path d="M205.95 184.24C205.95 184.24 183.207 189.658 166.962 183.156C150.717 176.655 148.912 180.989 133.389 182.795C117.866 184.601 126.891 176.294 126.891 176.294C126.891 176.294 153.244 107.668 157.215 100.444C161.186 93.2202 159.381 88.5247 159.381 88.5247L151.8 78.0503C151.8 78.0503 150.024 73.4884 148.111 68.1898C145.894 62.0424 143.497 54.9017 143.497 52.7671C143.497 50.4266 146.118 48.1691 148.273 46.7135C149.164 46.1077 150.091 45.5577 151.05 45.0665C155.71 43.8674 166.24 51.6835 166.24 51.6835C166.24 51.6835 169.128 53.8506 176.709 59.2685C184.29 64.6863 181.041 75.8831 181.041 75.8831L183.207 105.139C197.647 119.587 205.95 184.24 205.95 184.24Z" fill="#2F2E41"/>
<path d="M153.966 49.5164C153.966 49.5164 147.468 41.9314 142.414 57.1013C137.36 72.2712 136.277 84.1905 136.277 84.1905L126.891 115.614C126.891 115.614 116.783 132.59 124.364 133.673C131.945 134.757 134.111 115.614 134.111 115.614L152.883 65.7698C152.883 65.7698 159.02 54.573 153.966 49.5164Z" fill="#FFB8B8"/>
<path d="M133.028 178.822L123.281 193.992C123.281 193.992 114.256 195.075 113.173 200.854C112.09 206.633 108.841 209.884 108.841 209.884L110.285 211.329L117.144 206.633L117.866 216.024C117.866 216.024 121.837 227.221 128.335 224.693C134.833 222.165 127.252 214.58 127.252 214.58L130.862 201.938L151.078 176.655L133.028 178.822Z" fill="#2F2E41"/>
<path d="M186.096 182.795L191.872 208.801C191.872 208.801 187.54 216.747 189.706 221.803C191.872 226.86 191.872 232.639 191.872 232.639H195.121L196.565 223.97L204.507 232.278C204.507 232.278 221.835 235.167 221.835 229.388C221.835 223.609 212.449 223.609 212.449 223.609L203.785 209.162L200.175 182.795H186.096Z" fill="#2F2E41"/>
<path d="M156.844 11.5847C157.437 11.5859 158.029 11.6447 158.61 11.7604C159.661 11.25 160.814 10.9842 161.982 10.9829H162.288C168.189 10.9829 172.972 16.3249 172.972 22.9146L170.995 22.9147L170.675 20.483L170.207 22.9147H168.56C164.263 24.7753 166.585 41.0355 169.325 41.037H166.336L164.606 36.5373L165.038 41.037H145.825L144.251 36.9464L144.645 41.037H142.481V31.5013C142.481 20.5017 148.912 11.5847 156.844 11.5847Z" fill="#2F2E41"/>
</g>
<defs>
<clipPath id="clip0_496_509">
<rect width="361" height="233" fill="white"/>
</clipPath>
</defs>
</svg>
