<svg width="619" height="457" viewBox="0 0 619 457" fill="none" xmlns="http://www.w3.org/2000/svg">
<g clip-path="url(#clip0_126_1031)">
<path d="M137.165 45.7782H97.6901C93.895 45.7818 90.2563 47.363 87.5727 50.1745C84.8892 52.9861 83.3801 56.7984 83.3766 60.7746V105.614C82.872 105.582 82.3673 105.535 81.87 105.471C72.518 104.441 63.6269 100.693 56.1991 94.6513C48.7713 88.6096 43.1021 80.5139 39.8308 71.2771C36.5595 62.0403 35.8162 52.0297 37.6846 42.3739C39.553 32.7181 43.9588 23.8013 50.4054 16.6286C56.8519 9.45589 65.0828 4.31269 74.1701 1.77883C83.2573 -0.755025 92.8394 -0.578769 101.836 2.28774C110.833 5.15425 118.886 10.597 125.089 18.0024C131.291 25.4077 135.395 34.4812 136.939 44.1997C137.022 44.7206 137.097 45.2494 137.165 45.7782Z" fill="#F2F2F2"/>
<path d="M603.18 44.1995H97.6902C93.4959 44.2043 89.4746 45.9521 86.5088 49.0594C83.5429 52.1668 81.8747 56.3799 81.8701 60.7743V340.179C81.8747 344.573 83.5429 348.786 86.5088 351.894C89.4746 355.001 93.4959 356.749 97.6902 356.754H603.18C607.374 356.749 611.396 355.001 614.362 351.894C617.327 348.786 618.996 344.573 619 340.179V60.7743C618.996 56.3799 617.327 52.1668 614.362 49.0594C611.396 45.9521 607.374 44.2043 603.18 44.1995ZM617.494 340.179C617.49 344.155 615.981 347.967 613.297 350.779C610.614 353.59 606.975 355.172 603.18 355.175H97.6902C93.8951 355.172 90.2564 353.59 87.5729 350.779C84.8893 347.967 83.3802 344.155 83.3768 340.179V60.7743C83.3802 56.7981 84.8893 52.9859 87.5729 50.1743C90.2564 47.3627 93.8951 45.7816 97.6902 45.778H603.18C606.975 45.7816 610.614 47.3627 613.297 50.1743C615.981 52.9859 617.49 56.7981 617.494 60.7743V340.179Z" fill="#3F3D56"/>
<path d="M578.321 89.4802H122.55C122.35 89.4802 122.159 89.397 122.018 89.249C121.876 89.101 121.797 88.9002 121.797 88.6909C121.797 88.4816 121.876 88.2808 122.018 88.1328C122.159 87.9848 122.35 87.9016 122.55 87.9016H578.321C578.521 87.9016 578.713 87.9848 578.854 88.1328C578.995 88.2808 579.075 88.4816 579.075 88.6909C579.075 88.9002 578.995 89.101 578.854 89.249C578.713 89.397 578.521 89.4802 578.321 89.4802Z" fill="#3F3D56"/>
<path d="M251.371 322.816C251.171 322.816 250.98 322.733 250.838 322.585C250.697 322.437 250.618 322.236 250.618 322.026V62.353C250.618 62.1437 250.697 61.9429 250.838 61.7949C250.98 61.6469 251.171 61.5637 251.371 61.5637C251.571 61.5637 251.762 61.6469 251.904 61.7949C252.045 61.9429 252.124 62.1437 252.124 62.353V322.026C252.124 322.236 252.045 322.437 251.904 322.585C251.762 322.733 251.571 322.816 251.371 322.816Z" fill="#3F3D56"/>
<path d="M365.124 322.816C364.925 322.816 364.733 322.733 364.592 322.585C364.45 322.437 364.371 322.236 364.371 322.026V62.353C364.371 62.1437 364.45 61.9429 364.592 61.7949C364.733 61.6469 364.925 61.5637 365.124 61.5637C365.324 61.5637 365.516 61.6469 365.657 61.7949C365.798 61.9429 365.878 62.1437 365.878 62.353V322.026C365.878 322.236 365.798 322.437 365.657 322.585C365.516 322.733 365.324 322.816 365.124 322.816Z" fill="#3F3D56"/>
<path d="M478.88 322.816C478.68 322.816 478.489 322.733 478.348 322.585C478.206 322.437 478.127 322.236 478.127 322.026V62.353C478.127 62.1437 478.206 61.9429 478.348 61.7949C478.489 61.6469 478.68 61.5637 478.88 61.5637C479.08 61.5637 479.272 61.6469 479.413 61.7949C479.554 61.9429 479.634 62.1437 479.634 62.353V322.026C479.634 322.236 479.554 322.437 479.413 322.585C479.272 322.733 479.08 322.816 478.88 322.816Z" fill="#3F3D56"/>
<path d="M178.234 170.948H150.707C149.808 170.947 148.946 170.572 148.311 169.906C147.675 169.24 147.318 168.338 147.317 167.396V133.363C147.318 132.421 147.675 131.518 148.311 130.852C148.946 130.186 149.808 129.812 150.707 129.811H178.234C179.133 129.812 179.994 130.186 180.63 130.852C181.265 131.518 181.623 132.421 181.624 133.363V167.396C181.623 168.338 181.265 169.24 180.63 169.906C179.994 170.572 179.133 170.947 178.234 170.948Z" fill="#64D4AB"/>
<path d="M217.408 268.029H189.881C188.982 268.028 188.12 267.653 187.485 266.987C186.849 266.321 186.492 265.419 186.491 264.477V230.444C186.492 229.502 186.849 228.599 187.485 227.933C188.12 227.267 188.982 226.893 189.881 226.892H217.408C218.306 226.893 219.168 227.267 219.804 227.933C220.439 228.599 220.797 229.502 220.798 230.444V264.477C220.797 265.419 220.439 266.321 219.804 266.987C219.168 267.653 218.306 268.028 217.408 268.029Z" fill="#64D4AB"/>
<path d="M306.301 191.469H278.774C277.876 191.468 277.014 191.094 276.378 190.428C275.743 189.762 275.385 188.859 275.384 187.918V153.884C275.385 152.943 275.743 152.04 276.378 151.374C277.014 150.708 277.876 150.334 278.774 150.333H306.301C307.2 150.334 308.062 150.708 308.697 151.374C309.333 152.04 309.69 152.943 309.691 153.884V187.918C309.69 188.859 309.333 189.762 308.697 190.428C308.062 191.094 307.2 191.468 306.301 191.469Z" fill="#64D4AB"/>
<path d="M421.561 154.373H394.034C393.135 154.372 392.274 153.997 391.638 153.331C391.003 152.665 390.645 151.763 390.644 150.821V116.788C390.645 115.846 391.003 114.943 391.638 114.277C392.274 113.611 393.135 113.237 394.034 113.236H421.561C422.46 113.237 423.321 113.611 423.957 114.277C424.593 114.943 424.95 115.846 424.951 116.788V150.821C424.95 151.763 424.592 152.665 423.957 153.331C423.321 153.997 422.46 154.372 421.561 154.373Z" fill="#64D4AB"/>
<path d="M527.784 154.373H500.257C499.358 154.372 498.496 153.997 497.861 153.331C497.225 152.665 496.868 151.763 496.867 150.821V116.788C496.868 115.846 497.225 114.943 497.861 114.277C498.496 113.611 499.358 113.237 500.257 113.236H527.784C528.682 113.237 529.544 113.611 530.18 114.277C530.815 114.943 531.173 115.846 531.174 116.788V150.821C531.173 151.763 530.815 152.665 530.18 153.331C529.544 153.997 528.682 154.372 527.784 154.373Z" fill="#64D4AB"/>
<path d="M576.751 163.844H549.224C548.325 163.843 547.464 163.469 546.828 162.803C546.192 162.137 545.835 161.234 545.834 160.292V126.259C545.835 125.317 546.192 124.415 546.828 123.749C547.464 123.083 548.325 122.708 549.224 122.707H576.751C577.65 122.708 578.511 123.083 579.147 123.749C579.782 124.415 580.14 125.317 580.141 126.259V160.292C580.14 161.234 579.782 162.137 579.147 162.803C578.511 163.469 577.65 163.843 576.751 163.844Z" fill="#E6E6E6"/>
<path d="M554.903 224.619H527.376C526.478 224.618 525.616 224.243 524.98 223.578C524.345 222.912 523.987 222.009 523.986 221.067V187.034C523.987 186.092 524.345 185.189 524.98 184.524C525.616 183.858 526.478 183.483 527.376 183.482H554.903C555.802 183.483 556.664 183.858 557.299 184.524C557.935 185.189 558.292 186.092 558.293 187.034V221.067C558.292 222.009 557.935 222.912 557.299 223.578C556.664 224.243 555.802 224.618 554.903 224.619Z" fill="#E6E6E6"/>
<path d="M461.487 211.991H433.96C433.062 211.99 432.2 211.615 431.564 210.949C430.929 210.283 430.571 209.381 430.57 208.439V174.406C430.571 173.464 430.929 172.561 431.564 171.895C432.2 171.229 433.062 170.855 433.96 170.854H461.487C462.386 170.855 463.248 171.229 463.883 171.895C464.519 172.561 464.876 173.464 464.877 174.406V208.439C464.876 209.381 464.519 210.283 463.883 210.949C463.248 211.615 462.386 211.99 461.487 211.991Z" fill="#E8FBB3"/>
<path d="M408.001 224.619H380.474C379.576 224.618 378.714 224.243 378.078 223.578C377.443 222.912 377.085 222.009 377.084 221.067V187.034C377.085 186.092 377.443 185.189 378.078 184.524C378.714 183.858 379.576 183.483 380.474 183.482H408.001C408.9 183.483 409.762 183.858 410.397 184.524C411.033 185.189 411.39 186.092 411.391 187.034V221.067C411.39 222.009 411.033 222.912 410.397 223.578C409.762 224.243 408.9 224.618 408.001 224.619Z" fill="#E6E6E6"/>
<path d="M292.742 278.291H265.215C264.316 278.29 263.454 277.915 262.819 277.249C262.183 276.583 261.826 275.681 261.825 274.739V240.706C261.826 239.764 262.183 238.861 262.819 238.195C263.454 237.529 264.316 237.155 265.215 237.154H292.742C293.64 237.155 294.502 237.529 295.138 238.195C295.773 238.861 296.131 239.764 296.132 240.706V274.739C296.131 275.681 295.773 276.583 295.138 277.249C294.502 277.915 293.64 278.29 292.742 278.291Z" fill="#E6E6E6"/>
<path d="M153.374 233.301H125.847C124.948 233.3 124.086 232.926 123.451 232.26C122.815 231.594 122.458 230.691 122.457 229.749V195.716C122.458 194.774 122.815 193.872 123.451 193.206C124.086 192.54 124.948 192.165 125.847 192.164H153.374C154.272 192.165 155.134 192.54 155.77 193.206C156.405 193.872 156.763 194.774 156.764 195.716V229.749C156.763 230.691 156.405 231.594 155.77 232.26C155.134 232.926 154.272 233.3 153.374 233.301Z" fill="#E8FBB3"/>
<path d="M230.967 170.948H203.44C202.542 170.947 201.68 170.572 201.044 169.906C200.409 169.24 200.051 168.338 200.05 167.396V133.363C200.051 132.421 200.409 131.518 201.044 130.852C201.68 130.186 202.542 129.812 203.44 129.811H230.967C231.866 129.812 232.728 130.186 233.363 130.852C233.999 131.518 234.356 132.421 234.357 133.363V167.396C234.356 168.338 233.999 169.24 233.363 169.906C232.728 170.572 231.866 170.947 230.967 170.948Z" fill="#E6E6E6"/>
<path d="M208.431 76.5601H165.49C164.691 76.5601 163.925 76.2274 163.36 75.6354C162.795 75.0433 162.477 74.2403 162.477 73.403C162.477 72.5656 162.795 71.7626 163.36 71.1705C163.925 70.5785 164.691 70.2458 165.49 70.2458H208.431C209.23 70.2458 209.996 70.5785 210.561 71.1705C211.127 71.7626 211.444 72.5656 211.444 73.403C211.444 74.2403 211.127 75.0433 210.561 75.6354C209.996 76.2274 209.23 76.5601 208.431 76.5601Z" fill="#CCCCCC"/>
<path d="M329.717 76.5601H286.777C285.978 76.5601 285.211 76.2274 284.646 75.6354C284.081 75.0433 283.764 74.2403 283.764 73.403C283.764 72.5656 284.081 71.7626 284.646 71.1705C285.211 70.5785 285.978 70.2458 286.777 70.2458H329.717C330.517 70.2458 331.283 70.5785 331.848 71.1705C332.413 71.7626 332.731 72.5656 332.731 73.403C332.731 74.2403 332.413 75.0433 331.848 75.6354C331.283 76.2274 330.517 76.5601 329.717 76.5601Z" fill="#CCCCCC"/>
<path d="M443.473 76.5601H400.532C399.733 76.5601 398.967 76.2274 398.402 75.6354C397.837 75.0433 397.519 74.2403 397.519 73.403C397.519 72.5656 397.837 71.7626 398.402 71.1705C398.967 70.5785 399.733 70.2458 400.532 70.2458H443.473C444.272 70.2458 445.038 70.5785 445.603 71.1705C446.169 71.7626 446.486 72.5656 446.486 73.403C446.486 74.2403 446.169 75.0433 445.603 75.6354C445.038 76.2274 444.272 76.5601 443.473 76.5601Z" fill="#CCCCCC"/>
<path d="M549.694 76.5601H506.754C505.954 76.5601 505.188 76.2274 504.623 75.6354C504.058 75.0433 503.74 74.2403 503.74 73.403C503.74 72.5656 504.058 71.7626 504.623 71.1705C505.188 70.5785 505.954 70.2458 506.754 70.2458H549.694C550.493 70.2458 551.26 70.5785 551.825 71.1705C552.39 71.7626 552.707 72.5656 552.707 73.403C552.707 74.2403 552.39 75.0433 551.825 75.6354C551.26 76.2274 550.493 76.5601 549.694 76.5601Z" fill="#CCCCCC"/>
<path d="M112.254 307.733C111.152 307.619 110.087 307.255 109.134 306.663C108.181 306.072 107.363 305.27 106.738 304.312C106.114 303.354 105.697 302.264 105.517 301.119C105.338 299.974 105.401 298.802 105.7 297.685L86.3901 278.852L96.6 276.138L115.588 292.274C117.346 292.926 118.814 294.231 119.715 295.941C120.616 297.652 120.886 299.649 120.475 301.555C120.064 303.46 119 305.142 117.485 306.28C115.97 307.419 114.109 307.936 112.254 307.733Z" fill="#FFB8B8"/>
<path d="M138.919 446.931H148.154L152.548 409.608H138.917L138.919 446.931Z" fill="#FFB8B8"/>
<path d="M165.966 455.916L136.94 455.917L136.939 444.167L154.751 444.167C157.725 444.167 160.578 445.404 162.681 447.608C164.784 449.811 165.966 452.8 165.966 455.916Z" fill="#2B3E33"/>
<path d="M75.5938 439.945L84.5193 442.434L97.9295 407.551L84.7574 403.878L75.5938 439.945Z" fill="#FFB8B8"/>
<path d="M99.5259 455.919L71.476 448.097L74.3606 436.742L91.5731 441.542C94.4474 442.344 96.9 444.309 98.3914 447.005C99.8829 449.701 100.291 452.908 99.5259 455.919Z" fill="#2B3E33"/>
<path d="M150.638 439.864H136.545C135.655 439.867 134.796 439.521 134.137 438.894C133.478 438.267 133.067 437.404 132.985 436.475L124.43 343.395C124.367 342.712 124.08 342.073 123.617 341.588C123.154 341.102 122.545 340.801 121.894 340.734C121.242 340.667 120.589 340.84 120.045 341.222C119.502 341.605 119.102 342.173 118.914 342.83L94.0743 429.808C93.8116 430.733 93.2183 431.515 92.4183 431.992C91.6183 432.47 90.6732 432.605 89.7803 432.37L76.6699 428.936C76.2123 428.816 75.7819 428.602 75.4033 428.308C75.0248 428.013 74.7057 427.642 74.4643 427.218C74.2229 426.793 74.0641 426.323 73.9969 425.834C73.9297 425.345 73.9556 424.847 74.0729 424.368C74.287 423.492 95.4757 336.736 95.6607 335.844C100.462 298.774 106.205 288.84 109.291 283.504C109.546 283.062 109.781 282.656 109.992 282.272C110.257 281.792 111.885 277.028 112.918 273.934C113.052 273.43 113.284 272.962 113.6 272.557C113.916 272.153 114.308 271.821 114.752 271.584C127.718 264.636 142.888 269.445 147.228 271.085C147.948 271.35 148.566 271.853 148.989 272.518C162.011 293.095 155.621 412.607 154.207 436.357C154.148 437.307 153.747 438.198 153.084 438.849C152.421 439.5 151.547 439.863 150.638 439.864Z" fill="#2B3E33"/>
<path d="M114.27 204.096C124.489 204.096 132.773 195.417 132.773 184.711C132.773 174.004 124.489 165.325 114.27 165.325C104.051 165.325 95.7671 174.004 95.7671 184.711C95.7671 195.417 104.051 204.096 114.27 204.096Z" fill="#FFB8B8"/>
<path d="M112.309 277.699L112.176 277.564C111.927 277.311 87.2741 252.007 90.4646 228.609C91.8291 218.601 99.5576 212.207 112.814 210.116C117.685 209.358 122.652 210.467 126.804 213.24C130.956 216.013 134.014 220.262 135.414 225.208L148.522 272.157L112.309 277.699Z" fill="#CCCCCC"/>
<path d="M99.6915 295.695L82.1249 277.407C80.9238 276.149 80.0518 274.589 79.5927 272.876C79.1336 271.163 79.1029 269.356 79.5035 267.627L88.0076 231.384C88.2624 230.298 88.7271 229.278 89.3732 228.388C90.0192 227.498 90.8328 226.756 91.7635 226.208C92.6942 225.661 93.7223 225.319 94.7841 225.205C95.8459 225.09 96.9189 225.205 97.9365 225.543C99.8762 226.198 101.496 227.618 102.454 229.503C103.411 231.388 103.631 233.589 103.066 235.641L94.113 267.525L108.591 283.813L99.6915 295.695Z" fill="#CCCCCC"/>
<path d="M193.913 233.282C193.448 234.335 192.769 235.269 191.923 236.017C191.076 236.766 190.084 237.311 189.015 237.614C187.946 237.917 186.826 237.971 185.735 237.772C184.644 237.573 183.608 237.125 182.7 236.461L159.249 249.196L160.286 238.378L181.075 224.898C182.241 223.374 183.9 222.35 185.738 222.022C187.576 221.693 189.466 222.083 191.048 223.116C192.63 224.149 193.796 225.755 194.324 227.629C194.852 229.502 194.705 231.513 193.913 233.282Z" fill="#FFB8B8"/>
<path d="M180.139 241.334L157.278 251.684C155.756 252.367 154.092 252.629 152.446 252.444C150.8 252.259 149.227 251.634 147.879 250.627L118.808 228.805C117.94 228.153 117.21 227.322 116.661 226.363C116.112 225.404 115.757 224.337 115.618 223.228C115.478 222.119 115.557 220.993 115.851 219.917C116.144 218.842 116.644 217.841 117.321 216.977C118.622 215.333 120.483 214.285 122.509 214.054C124.535 213.823 126.568 214.427 128.176 215.739L153.103 236.293L172.916 228.262L180.139 241.334Z" fill="#CCCCCC"/>
<path d="M117.337 190.922C119.619 187.925 123.884 187.764 127.019 185.788C131.126 183.199 132.824 177.413 131.501 172.586C130.177 167.76 126.274 163.998 121.799 162.199C117.324 160.4 112.345 160.378 107.624 161.247C100.595 162.542 93.6753 165.979 89.3885 171.957C85.1017 177.935 84.0108 186.69 87.8958 192.962C89.6814 195.844 92.4378 198.224 93.1507 201.578C94.0866 205.982 91.1382 210.229 87.9796 213.296C84.3812 216.79 80.2527 219.715 77.1 223.654C73.9474 227.592 71.845 232.972 73.2836 237.886C74.489 242.003 77.9964 245.036 81.8426 246.555C85.6888 248.075 89.8777 248.294 93.9873 248.378C97.9779 248.46 102.216 248.358 105.578 246.104C109.177 243.691 111.098 239.112 111.24 234.638C111.382 230.164 109.955 225.78 108.043 221.777C106.903 219.391 105.577 217.079 104.82 214.531C104.062 211.984 103.931 209.093 105.144 206.747C106.419 204.281 108.999 202.793 111.626 202.253C111.762 202.225 111.907 202.199 112.058 202.177C112.805 202.076 113.525 201.816 114.174 201.415C114.823 201.013 115.388 200.478 115.834 199.842C116.28 199.205 116.598 198.481 116.769 197.711C116.94 196.942 116.96 196.145 116.829 195.368C116.53 193.62 116.556 191.947 117.337 190.922Z" fill="#2B3E33"/>
<path d="M364.036 447.758H354.8L350.406 410.435L364.037 410.435L364.036 447.758Z" fill="#A0616A"/>
<path d="M348.202 444.992H366.014V456.742H336.987C336.987 455.199 337.277 453.671 337.841 452.246C338.405 450.82 339.231 449.525 340.272 448.434C341.313 447.343 342.55 446.477 343.91 445.887C345.271 445.296 346.729 444.992 348.202 444.992Z" fill="#2B3E33"/>
<path d="M431.048 436.798L422.647 440.817L403.849 408.781L416.248 402.847L431.048 436.798Z" fill="#A0616A"/>
<path d="M415.55 441.173L431.752 433.42L436.411 444.108L410.008 456.742C409.397 455.339 409.055 453.823 409.002 452.281C408.949 450.739 409.187 449.201 409.702 447.755C410.216 446.31 410.998 444.984 412.001 443.855C413.005 442.725 414.211 441.814 415.55 441.173Z" fill="#2B3E33"/>
<path d="M404.152 321.913C405.037 321.215 405.765 320.323 406.285 319.298C406.805 318.274 407.105 317.142 407.162 315.984C407.22 314.825 407.034 313.667 406.618 312.592C406.202 311.516 405.567 310.549 404.756 309.759L415.612 283.95L401.82 286.399L393.625 310.532C392.448 312.048 391.843 313.963 391.924 315.914C392.005 317.866 392.766 319.719 394.064 321.122C395.361 322.524 397.105 323.38 398.964 323.526C400.824 323.671 402.67 323.098 404.152 321.913Z" fill="#A0616A"/>
<path d="M363.446 437.916H354.623C353.767 437.913 352.944 437.572 352.318 436.962C351.691 436.351 351.307 435.516 351.242 434.622L346.43 300.004C346.395 299.488 346.467 298.97 346.642 298.487C346.817 298.003 347.091 297.565 347.444 297.204C347.798 296.843 348.222 296.567 348.688 296.396C349.153 296.224 349.649 296.161 350.141 296.212L401.168 301.889C401.995 301.974 402.763 302.374 403.328 303.013C403.892 303.652 404.212 304.486 404.228 305.357L405.297 364.738C405.303 365.061 405.363 365.38 405.474 365.68L426.405 422.55C426.567 422.989 426.644 423.458 426.631 423.928C426.618 424.399 426.516 424.863 426.331 425.292C426.146 425.721 425.881 426.107 425.552 426.427C425.223 426.748 424.836 426.997 424.414 427.16L415.473 430.611C414.697 430.911 413.842 430.903 413.071 430.588C412.3 430.273 411.665 429.674 411.287 428.903L385.573 376.52C385.433 376.235 385.331 375.932 385.269 375.618L380.876 353.444C380.749 352.801 380.407 352.227 379.912 351.824C379.417 351.421 378.801 351.216 378.175 351.246C377.549 351.276 376.954 351.538 376.496 351.986C376.037 352.434 375.747 353.038 375.675 353.691L366.814 434.768C366.72 435.635 366.324 436.434 365.703 437.015C365.082 437.595 364.278 437.916 363.446 437.916Z" fill="#2B3E33"/>
<path d="M367.839 194.746C378.058 194.746 386.342 186.066 386.342 175.36C386.342 164.654 378.058 155.975 367.839 155.975C357.62 155.975 349.336 164.654 349.336 175.36C349.336 186.066 357.62 194.746 367.839 194.746Z" fill="#A0616A"/>
<path d="M380.529 312.313C367.981 312.169 355.733 308.281 345.218 301.107L345.038 300.977L345.056 300.748L352.134 214.389C352.378 211.459 353.626 208.721 355.648 206.68C357.67 204.64 360.328 203.436 363.132 203.29C372.304 202.849 384.625 203.405 391.221 208.552C401.188 216.33 405.992 228.042 404.401 240.685C401.101 266.904 404.839 302.272 405.276 306.218L405.308 306.503L405.059 306.622C397.375 310.368 389.004 312.31 380.529 312.313Z" fill="#64D4AB"/>
<path d="M405.191 306.365C404.669 306.364 404.153 306.249 403.676 306.029C403.199 305.809 402.771 305.487 402.418 305.084L398.371 300.458C397.933 299.955 397.627 299.343 397.48 298.68C397.334 298.018 397.353 297.326 397.535 296.674L406.764 263.947L392.722 233.052C392.066 231.605 391.905 229.967 392.267 228.411C392.586 227.046 393.292 225.813 394.293 224.877C395.293 223.94 396.541 223.344 397.872 223.166C399.203 222.988 400.555 223.236 401.748 223.879C402.941 224.522 403.92 225.529 404.556 226.766L423.612 259.16C424.386 260.474 424.84 261.967 424.935 263.508C425.029 265.049 424.761 266.591 424.154 267.999L408.628 304.041C408.372 304.637 407.979 305.157 407.484 305.553C406.988 305.95 406.407 306.212 405.791 306.314C405.592 306.347 405.392 306.364 405.191 306.365Z" fill="#64D4AB"/>
<path d="M274.771 243.85C275.659 244.542 276.682 245.022 277.767 245.256C278.852 245.489 279.972 245.471 281.049 245.202C282.127 244.932 283.134 244.419 284.002 243.698C284.869 242.976 285.575 242.064 286.07 241.026L312.766 244.654L306.631 231.482L282.22 230.056C280.5 229.302 278.576 229.234 276.812 229.866C275.048 230.498 273.566 231.786 272.648 233.487C271.73 235.187 271.438 237.181 271.83 239.091C272.221 241.001 273.267 242.694 274.771 243.85Z" fill="#A0616A"/>
<path d="M333.614 251.043C333.15 251.043 332.685 251.009 332.225 250.943L290.225 244.839C289.539 244.741 288.887 244.465 288.328 244.036C287.769 243.607 287.32 243.039 287.023 242.384C286.927 242.173 286.847 241.954 286.784 241.729C286.621 241.147 286.576 240.535 286.65 239.933C286.725 239.331 286.918 238.752 287.217 238.232L290.692 232.194C291.066 231.549 291.592 231.015 292.219 230.644C292.847 230.273 293.554 230.077 294.275 230.074H294.281L330.89 230.118L358.231 204.453C359.504 203.262 361.128 202.565 362.832 202.48C364.329 202.408 365.811 202.812 367.083 203.64C368.356 204.468 369.359 205.68 369.961 207.118C370.562 208.555 370.734 210.15 370.453 211.691C370.171 213.233 369.451 214.649 368.386 215.753L341.104 247.543C340.16 248.645 339.005 249.525 337.715 250.128C336.424 250.731 335.027 251.043 333.614 251.043Z" fill="#64D4AB"/>
<path d="M369.944 192.606C371.634 188.506 373.065 183.046 369.822 180.147C367.941 178.466 365.231 178.462 362.767 178.253C355.823 177.664 348.675 174.316 345.281 167.942C341.887 161.568 343.783 152.09 350.186 149.214C354.502 147.276 359.45 148.596 363.968 149.939L377.532 153.969C381.562 155.166 385.794 156.487 388.696 159.653C393.323 164.702 392.977 173.237 389.302 179.083C385.626 184.929 380.091 191.025 373.755 193.245L369.944 192.606Z" fill="#2B3E33"/>
<path d="M557.082 456.999H0.89666C0.778647 456.999 0.66173 456.975 0.552602 456.928C0.443474 456.881 0.344289 456.812 0.26072 456.724C0.177151 456.637 0.110844 456.533 0.0656037 456.419C0.0203629 456.305 -0.00292969 456.183 -0.00292969 456.059C-0.00292969 455.935 0.0203629 455.813 0.0656037 455.699C0.110844 455.584 0.177151 455.481 0.26072 455.393C0.344289 455.306 0.443474 455.237 0.552602 455.19C0.66173 455.143 0.778647 455.119 0.89666 455.119H557.082C557.2 455.119 557.317 455.143 557.426 455.19C557.535 455.237 557.634 455.306 557.718 455.393C557.801 455.481 557.868 455.584 557.913 455.699C557.958 455.813 557.981 455.935 557.981 456.059C557.981 456.183 557.958 456.305 557.913 456.419C557.868 456.533 557.801 456.637 557.718 456.724C557.634 456.812 557.535 456.881 557.426 456.928C557.317 456.975 557.2 456.999 557.082 456.999Z" fill="#3F3D56"/>
</g>
<defs>
<clipPath id="clip0_126_1031">
<rect width="619" height="457" fill="white"/>
</clipPath>
</defs>
</svg>
