<svg width="150" height="146" viewBox="0 0 150 146" fill="none" xmlns="http://www.w3.org/2000/svg">
<g clip-path="url(#clip0_287_200)">
<path d="M95.2266 32.835H54.8081C53.8871 32.8361 53.0041 33.2015 52.3528 33.8509C51.7015 34.5003 51.3351 35.3808 51.334 36.2992V125.873L50.8708 126.014L40.9554 129.042C40.4855 129.184 39.978 129.135 39.5442 128.906C39.1104 128.676 38.7858 128.283 38.6417 127.815L9.14823 31.7519C9.0047 31.2833 9.05362 30.7771 9.28424 30.3444C9.51486 29.9118 9.9083 29.5882 10.3781 29.4447L25.6576 24.7795L69.9533 11.2597L85.2326 6.59457C85.4651 6.52321 85.7095 6.49827 85.9517 6.52119C86.1939 6.5441 86.4292 6.61442 86.6441 6.72811C86.859 6.8418 87.0493 6.99664 87.2042 7.18376C87.359 7.37088 87.4753 7.58661 87.5465 7.8186L95.0854 32.3731L95.2266 32.835Z" fill="#F2F2F2"/>
<path d="M104.046 32.3731L94.9595 2.77928C94.8083 2.28619 94.5612 1.82763 94.2322 1.42982C93.9032 1.032 93.4989 0.702724 93.0422 0.460795C92.5856 0.218866 92.0856 0.0690269 91.5709 0.0198466C91.0562 -0.0293337 90.5367 0.023108 90.0423 0.17417L68.5604 6.73082L24.2671 20.2529L2.78509 26.8118C1.78715 27.1174 0.951567 27.8053 0.461741 28.7245C-0.0280852 29.6438 -0.132131 30.7192 0.172446 31.7149L31.2269 132.854C31.4744 133.658 31.9736 134.362 32.6514 134.862C33.3292 135.362 34.1499 135.632 34.993 135.633C35.3832 135.633 35.7712 135.575 36.144 135.46L50.8699 130.965L51.3331 130.822V130.339L50.8699 130.48L36.0074 135.018C35.1266 135.286 34.1752 135.195 33.3619 134.764C32.5487 134.333 31.94 133.598 31.6693 132.721L0.617235 31.5786C0.483152 31.1437 0.436421 30.6867 0.479715 30.2338C0.523009 29.7809 0.655475 29.3409 0.869535 28.9391C1.08359 28.5373 1.37504 28.1815 1.72719 27.8922C2.07933 27.6029 2.48525 27.3856 2.9217 27.253L24.4037 20.694L68.6971 7.17424L90.1791 0.615287C90.5101 0.514547 90.8543 0.463181 91.2004 0.46286C91.9432 0.464523 92.666 0.703314 93.2628 1.14426C93.8597 1.5852 94.2992 2.20513 94.5172 2.91323L103.562 32.3731L103.705 32.835H104.187L104.046 32.3731Z" fill="#3F3D56"/>
<path d="M28.4148 29.5202C27.9684 29.5198 27.5338 29.3769 27.1749 29.1123C26.8159 28.8476 26.5515 28.4753 26.4203 28.0498L23.4371 18.3333C23.3569 18.0723 23.3291 17.7981 23.3552 17.5264C23.3813 17.2547 23.4609 16.9908 23.5893 16.7497C23.7177 16.5087 23.8925 16.2952 24.1037 16.1215C24.3149 15.9478 24.5583 15.8173 24.8201 15.7374L65.5696 3.29762C66.0982 3.13677 66.6692 3.19163 67.1573 3.45016C67.6454 3.70868 68.0107 4.14975 68.1731 4.67655L71.1563 14.3931C71.3175 14.9202 71.2624 15.4896 71.0032 15.9763C70.7439 16.4629 70.3017 16.8272 69.7734 16.9891L29.0238 29.4289C28.8265 29.4893 28.6212 29.5201 28.4148 29.5202Z" fill="#64D4AB"/>
<path d="M44.0414 10.3823C46.5997 10.3823 48.6736 8.31426 48.6736 5.76327C48.6736 3.21228 46.5997 1.14429 44.0414 1.14429C41.4831 1.14429 39.4092 3.21228 39.4092 5.76327C39.4092 8.31426 41.4831 10.3823 44.0414 10.3823Z" fill="#64D4AB"/>
<path d="M44.0417 8.68815C45.6617 8.68815 46.9749 7.37863 46.9749 5.76326C46.9749 4.14789 45.6617 2.83838 44.0417 2.83838C42.4217 2.83838 41.1084 4.14789 41.1084 5.76326C41.1084 7.37863 42.4217 8.68815 44.0417 8.68815Z" fill="white"/>
<path d="M139.578 134.452H61.2929C60.771 134.452 60.2706 134.245 59.9015 133.877C59.5324 133.509 59.3248 133.01 59.3242 132.489V38.955C59.3248 38.4346 59.5324 37.9356 59.9015 37.5676C60.2706 37.1995 60.771 36.9925 61.2929 36.9919H139.578C140.1 36.9925 140.6 37.1996 140.969 37.5676C141.338 37.9356 141.546 38.4346 141.546 38.955V132.489C141.546 133.01 141.338 133.509 140.969 133.877C140.6 134.245 140.1 134.452 139.578 134.452Z" fill="#E6E6E6"/>
<path d="M103.562 32.373H54.8075C53.7637 32.3745 52.7631 32.7886 52.025 33.5246C51.2869 34.2606 50.8716 35.2584 50.8701 36.2992V130.48L51.3333 130.339V36.2992C51.3345 35.3808 51.7008 34.5003 52.3521 33.8508C53.0034 33.2014 53.8864 32.8361 54.8075 32.8349H103.705L103.562 32.373ZM146.062 32.373H54.8075C53.7637 32.3745 52.7631 32.7886 52.025 33.5246C51.2869 34.2606 50.8716 35.2584 50.8701 36.2992V142.074C50.8716 143.115 51.2869 144.112 52.025 144.848C52.7631 145.584 53.7637 145.999 54.8075 146H146.062C147.106 145.999 148.107 145.584 148.845 144.848C149.583 144.112 149.998 143.115 150 142.074V36.2992C149.998 35.2584 149.583 34.2606 148.845 33.5246C148.107 32.7886 147.106 32.3745 146.062 32.373ZM149.537 142.074C149.536 142.992 149.169 143.873 148.518 144.522C147.867 145.172 146.984 145.537 146.062 145.538H54.8075C53.8864 145.537 53.0034 145.172 52.3521 144.522C51.7008 143.873 51.3345 142.992 51.3333 142.074V36.2992C51.3345 35.3808 51.7008 34.5003 52.3521 33.8508C53.0034 33.2014 53.8864 32.8361 54.8075 32.8349H146.062C146.984 32.8361 147.867 33.2014 148.518 33.8508C149.169 34.5003 149.536 35.3808 149.537 36.2992V142.074Z" fill="#3F3D56"/>
<path d="M121.743 42.5347H79.1265C78.5738 42.534 78.044 42.3149 77.6532 41.9252C77.2624 41.5355 77.0426 41.0072 77.042 40.4561V30.2944C77.0426 29.7433 77.2624 29.215 77.6532 28.8253C78.044 28.4356 78.5738 28.2164 79.1265 28.2158H121.743C122.296 28.2164 122.825 28.4356 123.216 28.8253C123.607 29.215 123.827 29.7433 123.828 30.2944V40.4561C123.827 41.0072 123.607 41.5355 123.216 41.9252C122.826 42.3149 122.296 42.534 121.743 42.5347Z" fill="#64D4AB"/>
<path d="M100.435 28.9089C102.993 28.9089 105.067 26.8409 105.067 24.2899C105.067 21.7389 102.993 19.6709 100.435 19.6709C97.8767 19.6709 95.8027 21.7389 95.8027 24.2899C95.8027 26.8409 97.8767 28.9089 100.435 28.9089Z" fill="#64D4AB"/>
<path d="M100.435 27.1031C101.993 27.1031 103.256 25.8435 103.256 24.2897C103.256 22.7359 101.993 21.4763 100.435 21.4763C98.8765 21.4763 97.6133 22.7359 97.6133 24.2897C97.6133 25.8435 98.8765 27.1031 100.435 27.1031Z" fill="white"/>
</g>
<defs>
<clipPath id="clip0_287_200">
<rect width="150" height="146" fill="white"/>
</clipPath>
</defs>
</svg>
