<svg width="324" height="228" viewBox="0 0 324 228" fill="none" xmlns="http://www.w3.org/2000/svg">
<g clip-path="url(#clip0_496_104)">
<path d="M195.043 228H0V1.39868L195.043 62.2453V228Z" fill="#F2F2F2"/>
<path d="M171.404 147.92H18.1562V219.607H171.404V147.92Z" fill="#3F3D56"/>
<path d="M138.215 134.509C149.984 134.509 159.525 124.93 159.525 113.113C159.525 101.296 149.984 91.7166 138.215 91.7166C126.445 91.7166 116.904 101.296 116.904 113.113C116.904 124.93 126.445 134.509 138.215 134.509Z" fill="#64D4AB"/>
<path d="M138.022 151.807L138.198 112.995" stroke="#3F3D56" stroke-width="2" stroke-miterlimit="10"/>
<path d="M138.197 118.483C141.216 118.483 143.664 116.026 143.664 112.995C143.664 109.964 141.216 107.506 138.197 107.506C135.178 107.506 132.73 109.964 132.73 112.995C132.73 116.026 135.178 118.483 138.197 118.483Z" fill="#3F3D56"/>
<path d="M138.089 136.915C138.089 136.915 137.384 120.048 121.366 121.936L138.089 136.915Z" fill="#3F3D56"/>
<path d="M48.9432 91.552C60.7126 91.552 70.2536 81.9726 70.2536 70.1558C70.2536 58.3389 60.7126 48.7595 48.9432 48.7595C37.1738 48.7595 27.6328 58.3389 27.6328 70.1558C27.6328 81.9726 37.1738 91.552 48.9432 91.552Z" fill="#64D4AB"/>
<path d="M47.7363 149.145L48.9628 70.1321" stroke="#3F3D56" stroke-width="2" stroke-miterlimit="10"/>
<path d="M48.9626 75.6207C51.9817 75.6207 54.4292 73.1634 54.4292 70.1321C54.4292 67.1009 51.9817 64.6436 48.9626 64.6436C45.9435 64.6436 43.4961 67.1009 43.4961 70.1321C43.4961 73.1634 45.9435 75.6207 48.9626 75.6207Z" fill="#3F3D56"/>
<path d="M48.6163 92.4818C48.6163 92.4818 48.0972 75.6077 32.0596 77.3172L48.6163 92.4818Z" fill="#3F3D56"/>
<path d="M47.7594 147.636C47.7594 147.636 51.7765 115.266 31.499 113.38" stroke="#3F3D56" stroke-width="2" stroke-miterlimit="10"/>
<path d="M31.4997 118.869C34.5188 118.869 36.9663 116.412 36.9663 113.38C36.9663 110.349 34.5188 107.892 31.4997 107.892C28.4807 107.892 26.0332 110.349 26.0332 113.38C26.0332 116.412 28.4807 118.869 31.4997 118.869Z" fill="#3F3D56"/>
<path d="M94.7704 44.0513C106.54 44.0513 116.081 34.4718 116.081 22.655C116.081 10.8382 106.54 1.25879 94.7704 1.25879C83.0009 1.25879 73.46 10.8382 73.46 22.655C73.46 34.4718 83.0009 44.0513 94.7704 44.0513Z" fill="#64D4AB"/>
<path d="M94.7842 152.192V22.7336" stroke="#3F3D56" stroke-width="2" stroke-miterlimit="10"/>
<path d="M94.7839 28.1607C97.803 28.1607 100.25 25.7034 100.25 22.6722C100.25 19.6409 97.803 17.1836 94.7839 17.1836C91.7648 17.1836 89.3174 19.6409 89.3174 22.6722C89.3174 25.7034 91.7648 28.1607 94.7839 28.1607Z" fill="#3F3D56"/>
<path d="M77.9939 121.825C81.013 121.825 83.4604 119.367 83.4604 116.336C83.4604 113.305 81.013 110.848 77.9939 110.848C74.9748 110.848 72.5273 113.305 72.5273 116.336C72.5273 119.367 74.9748 121.825 77.9939 121.825Z" fill="#3F3D56"/>
<path d="M94.7842 50.708C94.7842 50.708 94.0033 33.8441 77.9941 35.8043L94.7842 50.708Z" fill="#3F3D56"/>
<path d="M94.7842 98.5154C94.7842 98.5154 94.0033 81.6515 77.9941 83.6117L94.7842 98.5154Z" fill="#3F3D56"/>
<path d="M94.7842 150.683C94.7842 150.683 98.2984 117.904 77.9941 116.336" stroke="#3F3D56" stroke-width="2" stroke-miterlimit="10"/>
<path d="M111.91 70.3399C114.929 70.3399 117.376 67.8826 117.376 64.8513C117.376 61.8201 114.929 59.3628 111.91 59.3628C108.891 59.3628 106.443 61.8201 106.443 64.8513C106.443 67.8826 108.891 70.3399 111.91 70.3399Z" fill="#3F3D56"/>
<path d="M95.1191 97.4501C95.1191 97.4501 91.6049 66.4195 111.909 64.8513" stroke="#3F3D56" stroke-width="2" stroke-miterlimit="10"/>
<path d="M140.361 52.4539C138.845 52.4539 137.364 52.0027 136.104 51.1573C134.844 50.312 133.861 49.1105 133.282 47.7047C132.702 46.299 132.55 44.7521 132.845 43.2598C133.141 41.7674 133.871 40.3966 134.943 39.3207C136.014 38.2448 137.379 37.5121 138.866 37.2152C140.352 36.9184 141.893 37.0707 143.293 37.653C144.693 38.2353 145.89 39.2213 146.732 40.4865C147.574 41.7516 148.023 43.2391 148.023 44.7606C148.021 46.8003 147.213 48.7558 145.776 50.198C144.34 51.6403 142.392 52.4516 140.361 52.4539ZM140.361 37.7668C138.983 37.7668 137.636 38.177 136.491 38.9454C135.345 39.7139 134.452 40.8062 133.925 42.0842C133.398 43.3622 133.26 44.7684 133.529 46.1251C133.797 47.4817 134.461 48.7279 135.435 49.706C136.409 50.6842 137.65 51.3503 139.002 51.6201C140.353 51.89 141.754 51.7515 143.026 51.2221C144.299 50.6928 145.387 49.7964 146.152 48.6462C146.918 47.4961 147.326 46.1439 147.326 44.7606C147.324 42.9064 146.59 41.1287 145.284 39.8176C143.978 38.5064 142.207 37.7689 140.361 37.7668Z" fill="#3F3D56"/>
<path d="M19.8528 15.3865C18.3373 15.3865 16.8559 14.9353 15.5958 14.09C14.3358 13.2446 13.3536 12.0431 12.7737 10.6373C12.1937 9.23158 12.042 7.68472 12.3377 6.19237C12.6333 4.70003 13.3631 3.32923 14.4347 2.2533C15.5063 1.17738 16.8716 0.444673 18.358 0.147827C19.8443 -0.149019 21.385 0.00333435 22.7851 0.585618C24.1852 1.1679 25.3819 2.15396 26.2239 3.41911C27.0658 4.68426 27.5152 6.17167 27.5152 7.69326C27.5129 9.73293 26.7049 11.6884 25.2684 13.1307C23.8319 14.5729 21.8843 15.3842 19.8528 15.3865ZM19.8528 0.69939C18.4751 0.69939 17.1283 1.10957 15.9828 1.87807C14.8373 2.64656 13.9445 3.73886 13.4173 5.01682C12.89 6.29478 12.7521 7.70101 13.0209 9.05769C13.2896 10.4144 13.9531 11.6606 14.9273 12.6387C15.9014 13.6168 17.1426 14.2829 18.4939 14.5527C19.8451 14.8226 21.2457 14.6841 22.5185 14.1547C23.7913 13.6254 24.8793 12.729 25.6447 11.5788C26.4101 10.4287 26.8186 9.07651 26.8186 7.69326C26.8165 5.83902 26.0819 4.06133 24.7761 2.75019C23.4702 1.43904 21.6996 0.701511 19.8528 0.69939Z" fill="#3F3D56"/>
<path d="M195.042 129.387C193.527 129.387 192.045 128.935 190.785 128.09C189.525 127.245 188.543 126.043 187.963 124.637C187.383 123.232 187.231 121.685 187.527 120.192C187.823 118.7 188.553 117.329 189.624 116.253C190.696 115.177 192.061 114.445 193.547 114.148C195.034 113.851 196.574 114.003 197.975 114.586C199.375 115.168 200.571 116.154 201.413 117.419C202.255 118.684 202.705 120.172 202.705 121.693C202.702 123.733 201.894 125.688 200.458 127.131C199.021 128.573 197.074 129.384 195.042 129.387ZM195.042 114.699C193.665 114.699 192.318 115.11 191.172 115.878C190.027 116.647 189.134 117.739 188.607 119.017C188.079 120.295 187.942 121.701 188.21 123.058C188.479 124.414 189.143 125.661 190.117 126.639C191.091 127.617 192.332 128.283 193.683 128.553C195.035 128.823 196.435 128.684 197.708 128.155C198.981 127.625 200.069 126.729 200.834 125.579C201.6 124.429 202.008 123.077 202.008 121.693C202.006 119.839 201.271 118.061 199.966 116.75C198.66 115.439 196.889 114.702 195.042 114.699Z" fill="#3F3D56"/>
<path d="M162.652 69.2392C165.152 69.2392 167.18 67.2039 167.18 64.6932C167.18 62.1825 165.152 60.1472 162.652 60.1472C160.151 60.1472 158.124 62.1825 158.124 64.6932C158.124 67.2039 160.151 69.2392 162.652 69.2392Z" fill="#3F3D56"/>
<path d="M198.177 152.117C200.678 152.117 202.705 150.081 202.705 147.571C202.705 145.06 200.678 143.025 198.177 143.025C195.677 143.025 193.649 145.06 193.649 147.571C193.649 150.081 195.677 152.117 198.177 152.117Z" fill="#3F3D56"/>
<path d="M195.043 228V147.92H162.652C162.652 185.387 132.4 215.761 95.0832 215.761C57.7663 215.761 27.5149 185.387 27.5149 147.92H0V228H195.043Z" fill="#3F3D56"/>
<path d="M95.0829 215.761C132.4 215.761 162.651 185.387 162.651 147.92H27.5146C27.5146 185.387 57.766 215.761 95.0829 215.761Z" fill="#64D4AB"/>
<path d="M286.915 176.44C320.214 159.528 333.554 118.716 316.71 85.2822L196.123 146.525C212.967 179.958 253.616 193.352 286.915 176.44Z" fill="#3F3D56"/>
<path d="M289.358 50.182C289.583 50.029 289.799 49.8656 290.01 49.6948C289.571 51.0158 288.863 52.2305 287.931 53.2618C287.713 53.5029 287.48 53.7286 287.241 53.9469C287.236 53.8916 287.231 53.8363 287.228 53.781C287.2 53.2461 287.239 52.6831 287.246 52.1321C288.076 51.6354 288.796 50.9714 289.358 50.182Z" fill="url(#paint0_linear_496_104)"/>
<path d="M292.626 30.6718C293.133 29.814 293.425 28.8457 293.478 27.8498C293.53 26.8538 293.342 25.8599 292.928 24.9531C292.515 24.0462 291.888 23.2536 291.103 22.6429C290.318 22.0323 289.396 21.6218 288.419 21.4467C287.441 21.2716 286.435 21.337 285.488 21.6375C284.541 21.9379 283.68 22.4643 282.98 23.1717C282.279 23.8791 281.76 24.7463 281.467 25.6991C281.173 26.652 281.114 27.662 281.294 28.6428C279.537 29.4832 278.066 30.8266 277.067 32.5041C276.068 34.1816 275.586 36.1183 275.68 38.0705C274.84 39.3646 274.313 40.8376 274.141 42.3722C273.968 43.9069 274.154 45.4608 274.685 46.9104C275.216 48.3599 276.077 49.665 277.199 50.7217C278.32 51.7784 279.672 52.5576 281.147 52.9973C282.622 53.4369 284.178 53.5249 285.692 53.2541C287.207 52.9834 288.637 52.3614 289.87 51.4377C291.103 50.514 292.104 49.3142 292.793 47.9336C293.483 46.553 293.842 45.0299 293.842 43.4855C293.842 43.3273 293.837 43.1702 293.83 43.0138C295.056 41.1253 295.604 38.874 295.385 36.6306C295.166 34.3873 294.193 32.2856 292.626 30.6718Z" fill="#2F2E41"/>
<g opacity="0.1">
<path d="M281.213 27.0763C281.241 27.0627 281.267 27.0472 281.295 27.0339C281.275 26.9271 281.262 26.8184 281.247 26.71C281.244 26.7326 281.24 26.7549 281.237 26.7776C281.225 26.8776 281.22 26.9768 281.213 27.0763Z" fill="black"/>
<path d="M295.361 37.1773C295.182 38.686 294.658 40.1326 293.83 41.4048C293.838 41.5612 293.842 41.7183 293.842 41.8765C293.842 44.4386 292.856 46.9016 291.088 48.7496C289.32 50.5976 286.909 51.6874 284.36 51.7907C281.81 51.8941 279.319 51.003 277.409 49.304C275.499 47.6051 274.317 45.23 274.112 42.6762C274.09 42.9433 274.077 43.2128 274.077 43.4855C274.077 46.117 275.118 48.6408 276.972 50.5016C278.825 52.3624 281.339 53.4078 283.96 53.4078C286.581 53.4078 289.094 52.3624 290.948 50.5016C292.801 48.6408 293.842 46.117 293.842 43.4855C293.842 43.3273 293.838 43.1702 293.83 43.0138C295.029 41.1701 295.58 38.9778 295.397 36.7839C295.387 36.9149 295.377 37.0457 295.361 37.1773Z" fill="black"/>
<path d="M293.437 26.7031C293.33 27.5371 293.054 28.3402 292.626 29.0628C292.799 29.241 292.962 29.4277 293.121 29.6181C293.458 28.686 293.566 27.6862 293.437 26.7031Z" fill="black"/>
</g>
<path d="M252.802 137.127C252.849 137.691 253.001 138.242 253.251 138.75C253.378 139.003 253.563 139.222 253.791 139.39C254.019 139.557 254.283 139.668 254.561 139.713C255.073 139.716 255.576 139.57 256.007 139.292C256.887 138.831 257.8 138.295 258.259 137.411C258.704 136.556 258.64 135.535 258.564 134.573L257.974 127.007C256.55 126.968 255.12 126.968 253.698 127.046C252.29 127.123 252.042 127.456 252.239 128.837C252.629 131.585 252.439 134.376 252.802 137.127Z" fill="#FBBEBE"/>
<path d="M294.559 142.241L297.946 147.734C298.091 148.054 298.356 148.303 298.683 148.43C298.926 148.465 299.173 148.422 299.39 148.306C300.52 147.811 301.384 146.869 302.214 145.954C302.776 145.333 303.358 144.678 303.569 143.865C303.679 143.425 303.674 142.963 303.556 142.525C303.437 142.087 303.209 141.686 302.893 141.362C302.497 141.016 302.07 140.709 301.616 140.445C298.939 138.632 297.731 135.188 295.088 133.325C294.935 133.198 294.749 133.118 294.552 133.094C294.356 133.105 294.166 133.169 294.002 133.279C292.798 133.942 291.594 134.605 290.389 135.267C288.825 136.127 289.321 136.228 290.509 137.153C292.259 138.517 293.352 140.423 294.559 142.241Z" fill="#FBBEBE"/>
<path d="M260.153 132.751C259.657 132.594 259.101 132.453 258.634 132.681C258.415 132.815 258.23 132.998 258.092 133.216C257.955 133.433 257.869 133.679 257.842 133.935C257.747 134.44 257.759 134.964 257.619 135.458C257.384 136.291 256.751 136.942 256.142 137.555C255.896 137.85 255.576 138.074 255.214 138.203C254.726 138.329 254.207 138.099 253.71 138.187C253.421 138.261 253.157 138.414 252.948 138.628C252.739 138.842 252.592 139.109 252.523 139.401C252.394 139.986 252.375 140.59 252.465 141.183L252.85 145.4C252.918 145.914 252.923 146.434 252.866 146.949C252.724 147.876 252.187 148.69 251.89 149.579C251.592 150.468 251.608 151.603 252.353 152.168C252.614 152.342 252.913 152.448 253.225 152.476C253.536 152.503 253.85 152.452 254.136 152.326C254.707 152.067 255.212 151.682 255.613 151.2C257.894 148.703 258.912 145.32 260.687 142.437C261.139 141.77 261.544 141.072 261.899 140.348C262.142 139.788 262.297 139.194 262.494 138.616C262.766 137.843 263.093 137.091 263.471 136.366C263.682 135.95 264.49 134.95 264.32 134.487C264.031 133.695 260.922 132.994 260.153 132.751Z" fill="#2F2E41"/>
<path d="M301.283 144.382C300.77 145.349 299.913 146.086 298.884 146.447C298.585 146.528 298.307 146.673 298.068 146.871C297.911 147.063 297.814 147.297 297.789 147.544C297.764 147.791 297.811 148.04 297.925 148.26C298.161 148.696 298.468 149.089 298.833 149.423C300.88 151.599 302.235 154.339 302.722 157.292C302.843 158.037 302.922 158.829 303.366 159.438C304.234 160.628 306.081 160.55 307.385 159.872C307.783 159.689 308.129 159.407 308.39 159.054C308.608 158.671 308.746 158.247 308.797 157.809C309.032 156.724 309.162 155.618 309.185 154.507C309.159 152.41 308.375 150.406 308 148.343C307.469 145.416 307.735 142.263 306.377 139.618C306.242 139.307 306.028 139.038 305.757 138.835C305.418 138.656 305.037 138.57 304.653 138.587C303.427 138.536 302.199 138.525 300.971 138.554C300.627 138.562 300.224 138.606 300.046 138.901C299.864 139.203 300.023 139.589 300.183 139.904C300.943 141.397 302.175 142.591 301.283 144.382Z" fill="#2F2E41"/>
<path d="M272.144 91.9116C271.8 92.1958 271.568 92.5922 271.487 93.0313C271.405 93.4704 271.481 93.9242 271.699 94.3133C271.971 94.7658 272.459 95.187 272.352 95.7045C272.241 96.2417 271.583 96.4241 271.044 96.5103C266.288 97.2698 261.659 98.6678 257.048 100.062L252.211 101.524C250.816 101.946 249.397 102.379 248.192 103.2C247.086 103.956 246.211 105.006 245.664 106.232C245.111 107.477 244.921 108.848 244.724 110.197C243.997 115.159 243.07 120.171 240.864 124.672L252.596 128.534C253.733 128.954 254.911 129.251 256.111 129.422C257.254 129.518 258.405 129.462 259.534 129.256C259.461 126.626 259.417 123.917 259.344 121.287C259.337 120.456 259.283 119.626 259.183 118.801C259.007 117.541 258.618 116.315 258.497 115.048C259.038 114.6 259.824 114.711 260.526 114.732C262.126 114.779 263.688 114.22 265.112 113.484C266.535 112.748 267.858 111.83 269.274 111.079C271.632 109.826 274.314 108.984 276.114 107.008C275.197 110.516 273.031 113.574 272.612 117.177C272.188 120.817 273.664 124.38 275.108 127.745L279.724 138.499C280.233 139.687 280.912 141.021 282.168 141.305C282.951 141.481 283.759 141.186 284.485 140.844C288.733 138.847 292.131 135.092 296.667 133.891C296.329 131.636 294.554 129.772 293.549 127.727C292.702 126.002 292.425 124.06 291.86 122.222C291.295 120.384 290.325 118.522 288.618 117.648C287.808 117.234 286.716 116.873 286.64 115.963C286.635 115.67 286.697 115.381 286.821 115.116C287.428 113.581 288.372 112.202 289.581 111.081C289.737 110.961 289.862 110.805 289.944 110.625C289.989 110.448 289.998 110.264 289.971 110.083C289.886 108.618 290.666 107.249 291.538 106.071C292.409 104.894 293.415 103.773 293.907 102.392C294.751 100.017 293.913 97.4065 293.078 95.0279C292.741 94.0666 292.386 93.0755 291.692 92.3307C290.605 91.163 288.913 90.8264 287.33 90.6522C282.214 90.089 276.209 88.7424 272.144 91.9116Z" fill="#2F2E41"/>
<g opacity="0.1">
<path d="M271.611 92.6219C271.783 92.5867 271.943 92.5058 272.073 92.3877C272.204 92.2695 272.3 92.1184 272.353 91.9501C272.366 91.8842 272.37 91.8168 272.364 91.7498C272.291 91.8034 272.216 91.8552 272.144 91.9116C271.909 92.0988 271.726 92.3433 271.611 92.6219Z" fill="black"/>
</g>
<path d="M280.229 54.6869C280.29 55.8602 279.937 57.1159 279.039 57.8687C278.75 58.1103 278.416 58.2933 278.139 58.5474C277.892 58.8015 277.704 59.1064 277.587 59.441C277.47 59.7756 277.427 60.1318 277.46 60.4848C277.494 60.8378 277.604 61.1792 277.783 61.4852C277.961 61.7912 278.204 62.0545 278.494 62.2567C279.427 62.8282 280.613 62.674 281.69 62.4865C283.126 62.285 284.533 61.9162 285.884 61.3876C287.243 60.8518 288.399 59.9008 289.19 58.669C288.018 58.0127 287.38 56.6342 287.308 55.2885C287.237 53.9409 287.605 52.4118 286.755 51.3664C285.937 50.3597 284.396 50.3671 283.148 50.7127C282.522 50.8861 281.916 51.126 281.289 51.2957C280.971 51.3817 279.921 51.384 279.714 51.6189C279.336 52.0461 280.194 54.0081 280.229 54.6869Z" fill="#FBBEBE"/>
<path opacity="0.1" d="M280.229 54.6869C280.29 55.8602 279.937 57.1159 279.039 57.8687C278.75 58.1103 278.416 58.2933 278.139 58.5474C277.892 58.8015 277.704 59.1064 277.587 59.441C277.47 59.7756 277.427 60.1318 277.46 60.4848C277.494 60.8378 277.604 61.1792 277.783 61.4852C277.961 61.7912 278.204 62.0545 278.494 62.2567C279.427 62.8282 280.613 62.674 281.69 62.4865C283.126 62.285 284.533 61.9162 285.884 61.3876C287.243 60.8518 288.399 59.9008 289.19 58.669C288.018 58.0127 287.38 56.6342 287.308 55.2885C287.237 53.9409 287.605 52.4118 286.755 51.3664C285.937 50.3597 284.396 50.3671 283.148 50.7127C282.522 50.8861 281.916 51.126 281.289 51.2957C280.971 51.3817 279.921 51.384 279.714 51.6189C279.336 52.0461 280.194 54.0081 280.229 54.6869Z" fill="black"/>
<path d="M283.826 54.6145C287.662 54.6145 290.771 51.4929 290.771 47.6421C290.771 43.7913 287.662 40.6697 283.826 40.6697C279.991 40.6697 276.882 43.7913 276.882 47.6421C276.882 51.4929 279.991 54.6145 283.826 54.6145Z" fill="#FBBEBE"/>
<path d="M261.897 101.136C261.772 101.687 261.551 102.211 261.243 102.684C260.433 104.128 260.141 105.808 260.414 107.442C260.561 108.253 260.904 109.015 261.413 109.661C261.922 110.307 262.581 110.817 263.333 111.147C263.983 111.404 264.789 111.472 265.325 111.022C264.397 109.81 264.348 108.156 264.403 106.628C264.387 106.343 264.455 106.06 264.598 105.813C264.636 105.754 264.686 105.704 264.744 105.665C264.802 105.626 264.868 105.6 264.936 105.588C265.005 105.576 265.076 105.578 265.144 105.594C265.212 105.61 265.275 105.64 265.331 105.682C265.308 106.644 265.493 107.599 265.874 108.482C266.021 108.821 266.272 109.196 266.64 109.187C267.169 109.173 267.312 108.454 267.292 107.923C267.21 105.761 267.105 103.508 266.066 101.612C265.686 100.918 265.18 100.266 265.035 99.4872C265.028 99.2172 264.935 98.9565 264.77 98.7435C264.655 98.6533 264.521 98.5907 264.379 98.5608C263.781 98.3912 262.366 97.863 261.873 98.4254C261.344 99.0282 261.993 100.415 261.897 101.136Z" fill="#FBBEBE"/>
<path d="M272.21 64.0901C271.414 64.0001 270.785 64.7319 270.349 65.4069C268.723 67.9237 267.553 70.7089 266.893 73.6343C266.556 75.1275 266.345 76.6783 265.639 78.0352C265.469 78.3168 265.332 78.6173 265.231 78.9306C265.17 79.4091 265.149 79.8917 265.167 80.3737C265.094 81.245 264.581 82.0188 264.409 82.876C264.306 83.3868 264.327 83.9156 264.236 84.4286C264.076 85.3271 263.584 86.1262 263.27 86.9825C262.716 88.4901 262.721 90.1454 262.313 91.6994C262.263 91.9555 262.153 92.1959 261.991 92.4004C261.715 92.705 261.273 92.7795 260.912 92.9747C260.628 93.1495 260.384 93.3833 260.197 93.6605C260.01 93.9377 259.884 94.2518 259.828 94.5818C259.72 95.2418 259.707 95.914 259.791 96.5776L260.11 100.702C260.439 100.563 260.654 100.189 260.928 99.9605C261.43 99.5413 262.168 99.6353 262.81 99.7523L263.746 99.9226C264.703 100.097 265.745 100.319 266.359 101.077C266.847 100.31 266.568 99.181 267.318 98.6712C267.562 98.5054 267.864 98.4493 268.121 98.3052C268.363 98.1478 268.564 97.934 268.706 97.6821C268.849 97.4302 268.928 97.1475 268.938 96.858C268.953 96.2796 268.874 95.7025 268.703 95.1498C269.906 94.6401 270.651 93.418 271.121 92.1957C271.639 90.7164 272.013 89.1905 272.24 87.6391C273.326 81.51 274.318 75.337 274.417 69.1125C274.486 68.0713 274.371 67.0261 274.079 66.0247C273.737 65.0419 273.241 64.2064 272.21 64.0901Z" fill="#D0CDE1"/>
<path d="M289.718 57.415C288.572 58.6221 287.107 59.4765 285.495 59.878C283.891 60.2741 282.253 60.5163 280.604 60.6014C280.096 60.6867 279.576 60.6416 279.091 60.4702C278.625 60.2581 278.27 59.7037 278.46 59.2263C278.552 59.0787 278.614 58.9143 278.643 58.7426C278.635 58.3179 278.012 58.2827 277.608 58.4082C274.935 59.2384 272.371 60.8823 271.137 63.404C270.44 64.8285 270.21 66.4303 269.989 68.0018C269.408 72.135 268.828 76.3581 269.607 80.4584C270.023 82.6448 270.822 84.776 270.872 87.0013C270.9 88.2483 270.69 89.4905 270.7 90.7377C270.663 91.1746 270.779 91.6107 271.029 91.9704C271.221 92.1947 271.511 92.3361 271.646 92.5997C271.87 93.0404 271.57 93.6454 271.865 94.0417C272.229 94.5297 272.988 94.1793 273.489 93.8351C276.009 92.117 279.053 91.3477 282.082 91.6631C285.722 92.0552 289.339 94.0029 292.869 93.0295C292.687 92.7635 292.53 92.4811 292.4 92.186C290.64 86.3788 290.759 79.8877 293.393 74.4241C294.293 72.5575 295.488 70.7787 295.832 68.7341C295.971 67.7777 295.982 66.8069 295.865 65.8477C295.679 63.9915 295.239 62.12 294.234 60.5508C293.23 58.9815 291.567 57.5988 289.718 57.415Z" fill="#D0CDE1"/>
<path d="M272.918 102.93C272.635 103.689 272.499 104.494 272.518 105.303C272.492 106.078 272.53 106.853 272.633 107.621C272.692 108.277 272.925 108.905 273.307 109.441C273.503 109.704 273.772 109.903 274.081 110.014C274.389 110.124 274.723 110.14 275.041 110.06C275.291 109.955 275.514 109.796 275.695 109.594C275.876 109.392 276.01 109.152 276.087 108.892C276.236 108.371 276.346 107.84 276.415 107.302C276.72 105.719 277.547 104.234 277.562 102.622C277.573 102.431 277.543 102.24 277.473 102.061C277.172 101.399 275.697 100.655 274.977 100.767C274.075 100.906 273.245 102.165 272.918 102.93Z" fill="#FBBEBE"/>
<path opacity="0.1" d="M292.958 63.3015C292.82 64.6878 294.156 65.7327 294.684 67.021C294.9 67.6225 295.023 68.2536 295.048 68.8924C295.419 73.325 295.131 77.7836 294.843 82.2225C294.79 83.7002 294.608 85.1704 294.297 86.6159C293.552 89.6492 291.718 92.2787 289.921 94.8293C289.304 95.8519 288.359 96.6341 287.242 97.0481L281.076 100.047C280.303 100.39 279.569 100.814 278.886 101.312C278.092 101.936 277.469 102.751 277.072 103.682C275.876 103.068 274.634 102.517 273.438 101.903C273.158 101.76 272.845 101.572 272.797 101.26C272.732 100.842 273.167 100.546 273.467 100.248C274.028 99.6908 274.201 98.8648 274.505 98.1334C275.497 95.7441 277.993 94.2148 278.893 91.789C279.239 90.8568 279.345 89.8033 279.959 89.022C280.31 88.6303 280.704 88.2805 281.135 87.9796C282.086 87.1695 282.959 86.2721 283.743 85.2989C284.095 84.9318 284.384 84.5079 284.596 84.0448C284.866 83.3564 284.785 82.5887 284.799 81.8492C284.845 79.428 285.935 77.1699 286.603 74.8429C287.231 72.6514 287.494 70.3526 288.318 68.2277C289.143 66.1028 290.759 63.8728 292.958 63.3015Z" fill="black"/>
<path d="M293.759 63.3015C293.622 64.6878 294.958 65.7327 295.486 67.021C295.702 67.6225 295.824 68.2536 295.85 68.8924C296.221 73.325 295.933 77.7836 295.645 82.2225C295.592 83.7002 295.409 85.1704 295.099 86.6159C294.354 89.6492 292.52 92.2787 290.723 94.8293C290.105 95.8519 289.161 96.6341 288.043 97.0481L281.878 100.047C281.105 100.39 280.371 100.814 279.687 101.312C278.894 101.936 278.27 102.751 277.874 103.682C276.678 103.068 275.436 102.517 274.24 101.903C273.96 101.76 273.647 101.572 273.598 101.26C273.533 100.842 273.969 100.546 274.269 100.248C274.83 99.6908 275.003 98.8648 275.307 98.1334C276.299 95.7441 278.795 94.2148 279.695 91.789C280.041 90.8568 280.147 89.8033 280.76 89.022C281.111 88.6303 281.506 88.2805 281.937 87.9796C282.887 87.1695 283.761 86.2721 284.545 85.2989C284.897 84.9318 285.186 84.5079 285.398 84.0448C285.667 83.3564 285.587 82.5887 285.601 81.8492C285.647 79.428 286.737 77.1699 287.404 74.8429C288.033 72.6514 288.295 70.3526 289.12 68.2277C289.945 66.1028 291.56 63.8728 293.759 63.3015Z" fill="#D0CDE1"/>
<path d="M287.27 36.8635C285.13 36.6009 282.963 37.0512 281.104 38.1452C281.378 38.1555 281.653 38.1743 281.93 38.2079C283.985 38.457 285.91 39.3478 287.434 40.7545C288.958 42.1612 290.003 44.0128 290.422 46.048C290.842 48.0831 290.614 50.1992 289.771 52.0974C288.928 53.9956 287.513 55.5802 285.725 56.6275C288.273 56.7208 290.757 55.8221 292.66 54.1191C294.563 52.416 295.737 50.0406 295.936 47.489C296.136 44.9374 295.345 42.4072 293.73 40.4271C292.115 38.447 289.8 37.1702 287.27 36.8635Z" fill="#2F2E41"/>
<path d="M290.31 42.3794C290.55 42.9251 290.68 43.5129 290.694 44.1092C290.707 44.7056 290.603 45.2987 290.388 45.8547C290.341 45.7109 290.287 45.5697 290.226 45.4316C289.005 42.7026 285.242 41.573 281.821 42.9086C279.806 43.6953 278.361 45.1623 277.762 46.7927C276.891 44.1547 278.66 41.1236 281.905 39.8564C285.326 38.5209 289.088 39.6505 290.31 42.3794Z" fill="#2F2E41"/>
<g opacity="0.1">
<path d="M290.329 45.6381C290.171 43.7227 289.463 41.8946 288.29 40.3752C287.118 38.8559 285.532 37.7105 283.725 37.0781C282.804 37.3056 281.922 37.665 281.104 38.145C281.378 38.1553 281.653 38.1741 281.93 38.2077C283.914 38.4486 285.779 39.2876 287.278 40.6141C288.777 41.9406 289.841 43.6923 290.329 45.6381Z" fill="black"/>
<path d="M291.931 38.3976C291.773 36.4823 291.065 34.6541 289.893 33.1347C288.721 31.6154 287.135 30.4701 285.327 29.8376C284.407 30.0652 283.524 30.4245 282.706 30.9046C282.98 30.9149 283.255 30.9336 283.533 30.9672C285.516 31.2081 287.381 32.0471 288.88 33.3736C290.38 34.7001 291.444 36.4518 291.931 38.3976Z" fill="black"/>
<path d="M291.972 27.5828C291.876 26.4269 291.449 25.3235 290.742 24.4066C290.034 23.4896 289.077 22.7984 287.986 22.4167C287.431 22.5541 286.898 22.7709 286.404 23.0606C286.57 23.0668 286.736 23.0782 286.903 23.0985C288.1 23.2438 289.226 23.7502 290.131 24.5507C291.036 25.3513 291.677 26.4085 291.972 27.5828Z" fill="black"/>
<path d="M295.669 44.2937C295.861 46.6732 295.193 49.0425 293.787 50.9676C292.381 52.8928 290.331 54.245 288.013 54.7765C287.346 55.5037 286.575 56.1275 285.726 56.6274C287.258 56.6836 288.782 56.381 290.178 55.7436C291.573 55.1063 292.802 54.1515 293.766 52.955C294.731 51.7584 295.405 50.3529 295.735 48.8496C296.065 47.3464 296.043 45.7866 295.669 44.2937Z" fill="black"/>
</g>
<path d="M264.929 107.869L263.651 69.0786" stroke="#64D4AB" stroke-width="2" stroke-miterlimit="10"/>
<path d="M263.651 74.5672C266.67 74.5672 269.118 72.1099 269.118 69.0786C269.118 66.0474 266.67 63.5901 263.651 63.5901C260.632 63.5901 258.185 66.0474 258.185 69.0786C258.185 72.1099 260.632 74.5672 263.651 74.5672Z" fill="#64D4AB"/>
<path d="M264.439 92.9862C264.439 92.9862 263.103 76.1575 247.167 78.648L264.439 92.9862Z" fill="#64D4AB"/>
</g>
<defs>
<linearGradient id="paint0_linear_496_104" x1="288.614" y1="53.9469" x2="288.614" y2="49.6948" gradientUnits="userSpaceOnUse">
<stop stop-color="#808080" stop-opacity="0.25"/>
<stop offset="0.53514" stop-color="#808080" stop-opacity="0.12"/>
<stop offset="1" stop-color="#808080" stop-opacity="0.1"/>
</linearGradient>
<clipPath id="clip0_496_104">
<rect width="324" height="228" rx="10" fill="white"/>
</clipPath>
</defs>
</svg>
