<svg width="358" height="246" viewBox="0 0 358 246" fill="none" xmlns="http://www.w3.org/2000/svg">
<g clip-path="url(#clip0_30_1456)">
<path d="M79.2527 24.629H56.4445C54.2517 24.6309 52.1493 25.4816 50.5988 26.9942C49.0483 28.5069 48.1763 30.5579 48.1743 32.6971V56.8208C47.8827 56.8038 47.5911 56.7783 47.3038 56.7443C41.9003 56.1897 36.7631 54.1735 32.4714 50.923C28.1796 47.6725 24.9041 43.317 23.0139 38.3475C21.1238 33.3781 20.6943 27.9923 21.7738 22.7974C22.8534 17.6026 25.399 12.8052 29.1238 8.94628C32.8486 5.08733 37.6043 2.32026 42.8548 0.957024C48.1054 -0.406208 53.6419 -0.311381 58.8401 1.23082C64.0383 2.77302 68.6915 5.70126 72.2752 9.68539C75.8588 13.6695 78.2303 18.5511 79.1222 23.7797C79.1701 24.06 79.2136 24.3445 79.2527 24.629Z" fill="#F2F2F2"/>
<path d="M348.512 23.7795H56.4444C54.021 23.7821 51.6975 24.7225 49.9839 26.3942C48.2703 28.066 47.3064 30.3327 47.3037 32.6969V183.018C47.3064 185.383 48.2703 187.649 49.9839 189.321C51.6975 190.993 54.021 191.933 56.4444 191.936H348.512C350.936 191.933 353.259 190.993 354.973 189.321C356.686 187.649 357.65 185.383 357.653 183.018V32.6969C357.65 30.3327 356.686 28.066 354.973 26.3942C353.259 24.7225 350.936 23.7821 348.512 23.7795ZM356.782 183.018C356.78 185.158 355.908 187.209 354.358 188.721C352.807 190.234 350.705 191.085 348.512 191.086H56.4444C54.2517 191.085 52.1493 190.234 50.5987 188.721C49.0482 187.209 48.1762 185.158 48.1743 183.018V32.6969C48.1762 30.5577 49.0482 28.5067 50.5987 26.994C52.1493 25.4814 54.2517 24.6308 56.4444 24.6288H348.512C350.705 24.6308 352.807 25.4814 354.358 26.994C355.908 28.5067 356.78 30.5577 356.782 32.6969V183.018Z" fill="#3F3D56"/>
<path d="M334.149 48.141H70.8083C70.6929 48.141 70.5822 48.0963 70.5005 48.0167C70.4189 47.937 70.373 47.829 70.373 47.7164C70.373 47.6038 70.4189 47.4958 70.5005 47.4161C70.5822 47.3365 70.6929 47.2917 70.8083 47.2917H334.149C334.264 47.2917 334.375 47.3365 334.457 47.4161C334.538 47.4958 334.584 47.6038 334.584 47.7164C334.584 47.829 334.538 47.937 334.457 48.0167C334.375 48.0963 334.264 48.141 334.149 48.141Z" fill="#3F3D56"/>
<path d="M145.24 173.677C145.125 173.677 145.014 173.632 144.932 173.553C144.851 173.473 144.805 173.365 144.805 173.252V33.5465C144.805 33.4338 144.851 33.3258 144.932 33.2462C145.014 33.1666 145.125 33.1218 145.24 33.1218C145.355 33.1218 145.466 33.1666 145.548 33.2462C145.629 33.3258 145.675 33.4338 145.675 33.5465V173.252C145.675 173.365 145.629 173.473 145.548 173.553C145.466 173.632 145.355 173.677 145.24 173.677Z" fill="#3F3D56"/>
<path d="M210.966 173.677C210.85 173.677 210.739 173.632 210.658 173.553C210.576 173.473 210.53 173.365 210.53 173.252V33.5465C210.53 33.4338 210.576 33.3258 210.658 33.2462C210.739 33.1666 210.85 33.1218 210.966 33.1218C211.081 33.1218 211.192 33.1666 211.273 33.2462C211.355 33.3258 211.401 33.4338 211.401 33.5465V173.252C211.401 173.365 211.355 173.473 211.273 173.553C211.192 173.632 211.081 173.677 210.966 173.677Z" fill="#3F3D56"/>
<path d="M276.693 173.677C276.578 173.677 276.467 173.632 276.385 173.553C276.304 173.473 276.258 173.365 276.258 173.252V33.5465C276.258 33.4338 276.304 33.3258 276.385 33.2462C276.467 33.1666 276.578 33.1218 276.693 33.1218C276.809 33.1218 276.919 33.1666 277.001 33.2462C277.082 33.3258 277.128 33.4338 277.128 33.5465V173.252C277.128 173.365 277.082 173.473 277.001 173.553C276.919 173.632 276.809 173.677 276.693 173.677Z" fill="#3F3D56"/>
<path d="M102.982 91.971H87.0769C86.5576 91.9704 86.0597 91.7689 85.6925 91.4107C85.3253 91.0525 85.1187 90.5668 85.1182 90.0601V71.75C85.1187 71.2434 85.3253 70.7576 85.6925 70.3994C86.0597 70.0412 86.5576 69.8397 87.0769 69.8391H102.982C103.501 69.8397 103.999 70.0412 104.366 70.3994C104.733 70.7576 104.94 71.2434 104.94 71.75V90.0602C104.94 90.5668 104.733 91.0525 104.366 91.4107C103.999 91.7689 103.501 91.9704 102.982 91.971Z" fill="#64D4AB"/>
<path d="M125.616 144.201H109.712C109.192 144.201 108.694 143.999 108.327 143.641C107.96 143.283 107.754 142.797 107.753 142.29V123.98C107.754 123.474 107.96 122.988 108.327 122.63C108.694 122.271 109.192 122.07 109.712 122.069H125.616C126.136 122.07 126.634 122.271 127.001 122.63C127.368 122.988 127.575 123.474 127.575 123.98V142.29C127.575 142.797 127.368 143.283 127.001 143.641C126.634 143.999 126.136 144.201 125.616 144.201Z" fill="#64D4AB"/>
<path d="M176.979 103.012H161.074C160.555 103.011 160.057 102.81 159.69 102.451C159.322 102.093 159.116 101.608 159.115 101.101V82.7907C159.116 82.2841 159.322 81.7984 159.69 81.4402C160.057 81.082 160.555 80.8805 161.074 80.8799H176.979C177.498 80.8805 177.996 81.082 178.363 81.4402C178.73 81.7984 178.937 82.2841 178.938 82.7907V101.101C178.937 101.608 178.73 102.093 178.363 102.451C177.996 102.81 177.498 103.011 176.979 103.012Z" fill="#64D4AB"/>
<path d="M243.574 83.0535H227.67C227.15 83.053 226.652 82.8514 226.285 82.4932C225.918 82.135 225.712 81.6493 225.711 81.1427V62.8325C225.712 62.3259 225.918 61.8402 226.285 61.4819C226.652 61.1237 227.15 60.9222 227.67 60.9216H243.574C244.094 60.9222 244.592 61.1237 244.959 61.4819C245.326 61.8402 245.533 62.3259 245.533 62.8325V81.1427C245.533 81.6493 245.326 82.135 244.959 82.4932C244.592 82.8515 244.094 83.053 243.574 83.0535Z" fill="#64D4AB"/>
<path d="M304.949 83.0535H289.044C288.524 83.053 288.026 82.8514 287.659 82.4932C287.292 82.135 287.086 81.6493 287.085 81.1427V62.8325C287.086 62.3259 287.292 61.8402 287.659 61.4819C288.026 61.1237 288.524 60.9222 289.044 60.9216H304.949C305.468 60.9222 305.966 61.1237 306.333 61.4819C306.7 61.8402 306.907 62.3259 306.907 62.8325V81.1427C306.907 81.6493 306.7 82.135 306.333 82.4932C305.966 82.8515 305.468 83.053 304.949 83.0535Z" fill="#64D4AB"/>
<path d="M333.241 88.1492H317.337C316.817 88.1487 316.319 87.9472 315.952 87.5889C315.585 87.2307 315.379 86.745 315.378 86.2384V67.9282C315.379 67.4216 315.585 66.9359 315.952 66.5776C316.319 66.2194 316.817 66.0179 317.337 66.0173H333.241C333.761 66.0179 334.259 66.2194 334.626 66.5776C334.993 66.9359 335.2 67.4216 335.2 67.9282V86.2384C335.2 86.745 334.993 87.2307 334.626 87.5889C334.259 87.9472 333.761 88.1487 333.241 88.1492Z" fill="#E6E6E6"/>
<path d="M320.618 120.847H304.714C304.194 120.846 303.696 120.644 303.329 120.286C302.962 119.928 302.755 119.442 302.755 118.936V100.625C302.755 100.119 302.962 99.6331 303.329 99.2749C303.696 98.9167 304.194 98.7152 304.714 98.7146H320.618C321.138 98.7152 321.636 98.9167 322.003 99.2749C322.37 99.6331 322.577 100.119 322.577 100.625V118.936C322.577 119.442 322.37 119.928 322.003 120.286C321.636 120.644 321.138 120.846 320.618 120.847Z" fill="#E6E6E6"/>
<path d="M266.644 114.052H250.739C250.22 114.052 249.722 113.85 249.355 113.492C248.987 113.134 248.781 112.648 248.78 112.141V93.8313C248.781 93.3247 248.987 92.8389 249.355 92.4807C249.722 92.1225 250.22 91.921 250.739 91.9204H266.644C267.163 91.921 267.661 92.1225 268.028 92.4807C268.395 92.8389 268.602 93.3247 268.603 93.8313V112.141C268.602 112.648 268.395 113.134 268.028 113.492C267.661 113.85 267.163 114.052 266.644 114.052Z" fill="#E8FBB3"/>
<path d="M235.74 120.847H219.835C219.315 120.846 218.818 120.644 218.45 120.286C218.083 119.928 217.877 119.442 217.876 118.936V100.625C217.877 100.119 218.083 99.6331 218.45 99.2749C218.818 98.9167 219.315 98.7152 219.835 98.7146H235.74C236.259 98.7152 236.757 98.9167 237.124 99.2749C237.491 99.6331 237.698 100.119 237.698 100.625V118.936C237.698 119.442 237.491 119.928 237.124 120.286C236.757 120.644 236.259 120.846 235.74 120.847Z" fill="#E6E6E6"/>
<path d="M169.144 149.722H153.239C152.72 149.722 152.222 149.52 151.855 149.162C151.487 148.804 151.281 148.318 151.28 147.811V129.501C151.281 128.995 151.487 128.509 151.855 128.151C152.222 127.792 152.72 127.591 153.239 127.59H169.144C169.663 127.591 170.161 127.792 170.528 128.151C170.895 128.509 171.102 128.995 171.103 129.501V147.811C171.102 148.318 170.895 148.804 170.528 149.162C170.161 149.52 169.663 149.722 169.144 149.722Z" fill="#E6E6E6"/>
<path d="M88.6175 125.517H72.7126C72.1933 125.517 71.6954 125.315 71.3282 124.957C70.961 124.599 70.7545 124.113 70.7539 123.607V105.296C70.7545 104.79 70.961 104.304 71.3282 103.946C71.6954 103.588 72.1933 103.386 72.7126 103.385H88.6175C89.1368 103.386 89.6347 103.588 90.0019 103.946C90.3691 104.304 90.5756 104.79 90.5762 105.296V123.607C90.5756 124.113 90.3691 124.599 90.0019 124.957C89.6347 125.315 89.1368 125.517 88.6175 125.517Z" fill="#E8FBB3"/>
<path d="M133.451 91.971H117.547C117.027 91.9704 116.529 91.7689 116.162 91.4107C115.795 91.0525 115.588 90.5668 115.588 90.0601V71.75C115.588 71.2434 115.795 70.7576 116.162 70.3994C116.529 70.0412 117.027 69.8397 117.547 69.8391H133.451C133.971 69.8397 134.469 70.0412 134.836 70.3994C135.203 70.7576 135.41 71.2434 135.41 71.75V90.0602C135.41 90.5668 135.203 91.0525 134.836 91.4107C134.469 91.7689 133.971 91.9704 133.451 91.971Z" fill="#E6E6E6"/>
<path d="M120.43 41.1898H95.619C95.1573 41.1898 94.7144 41.0109 94.3879 40.6923C94.0614 40.3738 93.8779 39.9418 93.8779 39.4913C93.8779 39.0408 94.0614 38.6088 94.3879 38.2902C94.7144 37.9717 95.1573 37.7927 95.619 37.7927H120.43C120.891 37.7927 121.334 37.9717 121.661 38.2902C121.987 38.6088 122.171 39.0408 122.171 39.4913C122.171 39.9418 121.987 40.3738 121.661 40.6923C121.334 41.0109 120.891 41.1898 120.43 41.1898Z" fill="#CCCCCC"/>
<path d="M190.508 41.1898H165.697C165.235 41.1898 164.793 41.0109 164.466 40.6923C164.139 40.3738 163.956 39.9418 163.956 39.4913C163.956 39.0408 164.139 38.6088 164.466 38.2902C164.793 37.9717 165.235 37.7927 165.697 37.7927H190.508C190.969 37.7927 191.412 37.9717 191.739 38.2902C192.065 38.6088 192.249 39.0408 192.249 39.4913C192.249 39.9418 192.065 40.3738 191.739 40.6923C191.412 41.0109 190.969 41.1898 190.508 41.1898Z" fill="#CCCCCC"/>
<path d="M256.234 41.1898H231.424C230.962 41.1898 230.519 41.0109 230.193 40.6923C229.866 40.3738 229.683 39.9418 229.683 39.4913C229.683 39.0408 229.866 38.6088 230.193 38.2902C230.519 37.9717 230.962 37.7927 231.424 37.7927H256.234C256.696 37.7927 257.139 37.9717 257.465 38.2902C257.792 38.6088 257.975 39.0408 257.975 39.4913C257.975 39.9418 257.792 40.3738 257.465 40.6923C257.139 41.0109 256.696 41.1898 256.234 41.1898Z" fill="#CCCCCC"/>
<path d="M317.608 41.1898H292.798C292.336 41.1898 291.893 41.0109 291.567 40.6923C291.24 40.3738 291.057 39.9418 291.057 39.4913C291.057 39.0408 291.24 38.6088 291.567 38.2902C291.893 37.9717 292.336 37.7927 292.798 37.7927H317.608C318.07 37.7927 318.513 37.9717 318.839 38.2902C319.166 38.6088 319.349 39.0408 319.349 39.4913C319.349 39.9418 319.166 40.3738 318.839 40.6923C318.513 41.0109 318.07 41.1898 317.608 41.1898Z" fill="#CCCCCC"/>
<path d="M64.8592 165.562C64.2224 165.501 63.607 165.305 63.0563 164.987C62.5057 164.669 62.0332 164.237 61.6721 163.722C61.3111 163.206 61.0703 162.62 60.9666 162.004C60.863 161.388 60.8991 160.757 61.0723 160.156L49.915 150.024L55.8142 148.564L66.7856 157.245C67.8011 157.596 68.6494 158.298 69.1698 159.218C69.6902 160.139 69.8465 161.213 69.609 162.238C69.3716 163.263 68.7569 164.168 67.8815 164.781C67.0061 165.393 65.9307 165.671 64.8592 165.562Z" fill="#FFB8B8"/>
<path d="M80.2655 240.452H85.602L88.1405 220.372H80.2646L80.2655 240.452Z" fill="#FFB8B8"/>
<path d="M95.8935 245.286L79.1222 245.286L79.1219 238.965L89.4134 238.964C91.132 238.964 92.7802 239.63 93.9954 240.816C95.2107 242.001 95.8935 243.609 95.8935 245.286Z" fill="#2B3E33"/>
<path d="M43.6777 236.693L48.8348 238.032L56.5831 219.265L48.9724 217.289L43.6777 236.693Z" fill="#FFB8B8"/>
<path d="M57.5049 245.288L41.2979 241.079L42.9646 234.97L52.9098 237.553C54.5706 237.984 55.9877 239.041 56.8494 240.492C57.7112 241.942 57.9469 243.667 57.5049 245.288Z" fill="#2B3E33"/>
<path d="M87.037 236.649H78.8943C78.38 236.651 77.8836 236.465 77.5029 236.128C77.1222 235.79 76.8847 235.326 76.8372 234.826L71.894 184.748C71.8578 184.381 71.6918 184.037 71.4246 183.776C71.1573 183.515 70.8053 183.353 70.4288 183.317C70.0523 183.281 69.6748 183.374 69.3608 183.58C69.0467 183.785 68.8158 184.091 68.7074 184.445L54.355 231.239C54.2032 231.737 53.8604 232.158 53.3982 232.415C52.9359 232.671 52.3899 232.744 51.874 232.618L44.2989 230.77C44.0345 230.706 43.7858 230.591 43.5671 230.432C43.3484 230.274 43.164 230.074 43.0245 229.846C42.885 229.617 42.7933 229.364 42.7545 229.101C42.7157 228.838 42.7306 228.57 42.7984 228.313C42.9221 227.841 55.1647 181.166 55.2716 180.686C58.0455 160.742 61.3642 155.398 63.147 152.527C63.2946 152.289 63.4302 152.071 63.5523 151.864C63.7051 151.606 64.6459 149.042 65.2427 147.378C65.3202 147.107 65.4544 146.855 65.6369 146.637C65.8193 146.42 66.046 146.241 66.3026 146.114C73.794 142.376 82.5589 144.963 85.0668 145.845C85.4826 145.988 85.8397 146.259 86.0845 146.616C93.6081 157.687 89.9159 221.985 89.0994 234.763C89.0653 235.274 88.8333 235.753 88.4503 236.103C88.0673 236.454 87.5621 236.649 87.037 236.649Z" fill="#2B3E33"/>
<path d="M66.0237 109.805C71.928 109.805 76.7144 105.136 76.7144 99.3756C76.7144 93.6155 71.928 88.946 66.0237 88.946C60.1194 88.946 55.333 93.6155 55.333 99.3756C55.333 105.136 60.1194 109.805 66.0237 109.805Z" fill="#FFB8B8"/>
<path d="M64.8917 149.403L64.8149 149.331C64.6708 149.195 50.4267 135.581 52.2701 122.993C53.0585 117.609 57.524 114.169 65.1836 113.043C67.9976 112.636 70.8679 113.233 73.2669 114.724C75.6659 116.216 77.4324 118.502 78.2417 121.163L85.8154 146.422L64.8917 149.403Z" fill="#CCCCCC"/>
<path d="M57.6013 159.086L47.4515 149.247C46.7575 148.57 46.2536 147.731 45.9883 146.809C45.7231 145.888 45.7053 144.915 45.9368 143.985L50.8504 124.486C50.9976 123.902 51.2661 123.353 51.6394 122.874C52.0127 122.395 52.4828 121.996 53.0205 121.701C53.5583 121.407 54.1523 121.223 54.7658 121.162C55.3793 121.1 55.9993 121.162 56.5873 121.343C57.708 121.696 58.6441 122.46 59.1973 123.474C59.7505 124.488 59.8774 125.672 59.5511 126.776L54.3781 143.93L62.7432 152.693L57.6013 159.086Z" fill="#CCCCCC"/>
<path d="M112.041 125.507C111.773 126.074 111.38 126.576 110.891 126.979C110.402 127.381 109.829 127.675 109.211 127.838C108.593 128.001 107.947 128.03 107.316 127.923C106.686 127.816 106.087 127.575 105.562 127.218L92.0127 134.069L92.6116 128.249L104.624 120.997C105.297 120.176 106.256 119.626 107.318 119.449C108.38 119.272 109.472 119.482 110.386 120.038C111.3 120.594 111.974 121.458 112.279 122.466C112.584 123.474 112.499 124.556 112.041 125.507Z" fill="#FFB8B8"/>
<path d="M104.083 129.839L90.8743 135.408C89.9951 135.775 89.0337 135.916 88.0826 135.817C87.1315 135.717 86.2226 135.38 85.4434 134.839L68.6466 123.098C68.1453 122.748 67.723 122.301 67.406 121.785C67.0889 121.269 66.8838 120.695 66.8032 120.098C66.7227 119.502 66.7685 118.895 66.9378 118.317C67.1072 117.738 67.3964 117.2 67.7876 116.735C68.5394 115.85 69.6145 115.286 70.7851 115.162C71.9558 115.038 73.1301 115.363 74.0593 116.069L88.4618 127.127L99.9096 122.807L104.083 129.839Z" fill="#CCCCCC"/>
<path d="M67.7965 102.717C69.1154 101.105 71.5793 101.018 73.391 99.9549C75.764 98.562 76.745 95.4492 75.9803 92.8525C75.2156 90.2557 72.9604 88.232 70.3747 87.2641C67.7891 86.2962 64.9123 86.2843 62.1847 86.7521C58.1235 87.4487 54.1252 89.2979 51.6483 92.514C49.1714 95.7301 48.5411 100.44 50.7858 103.815C51.8175 105.366 53.4102 106.646 53.8221 108.45C54.3628 110.82 52.6593 113.105 50.8343 114.755C48.7551 116.634 46.3697 118.208 44.5481 120.327C42.7265 122.446 41.5118 125.34 42.343 127.984C43.0395 130.199 45.066 131.831 47.2883 132.648C49.5106 133.466 51.931 133.584 54.3054 133.629C56.6111 133.673 59.0602 133.618 61.0025 132.406C63.0819 131.107 64.1921 128.644 64.2741 126.237C64.3562 123.83 63.5316 121.471 62.4266 119.318C61.7679 118.034 61.0021 116.79 60.5644 115.419C60.1267 114.049 60.0509 112.493 60.7518 111.231C61.4886 109.904 62.9791 109.104 64.4969 108.813C64.5758 108.798 64.6592 108.785 64.7465 108.773C65.1783 108.718 65.5943 108.578 65.9693 108.362C66.3443 108.146 66.6705 107.859 66.9282 107.516C67.1859 107.174 67.3697 106.784 67.4685 106.37C67.5674 105.956 67.5791 105.527 67.5032 105.109C67.3303 104.169 67.3452 103.269 67.7965 102.717Z" fill="#2B3E33"/>
<path d="M210.337 240.897H205L202.462 220.816L210.338 220.817L210.337 240.897Z" fill="#A0616A"/>
<path d="M201.188 239.409H211.479V245.73H194.708C194.708 244.9 194.876 244.078 195.201 243.311C195.527 242.544 196.004 241.847 196.606 241.26C197.208 240.673 197.922 240.208 198.708 239.89C199.494 239.572 200.337 239.409 201.188 239.409Z" fill="#2B3E33"/>
<path d="M249.056 235L244.203 237.162L233.341 219.927L240.505 216.734L249.056 235Z" fill="#A0616A"/>
<path d="M240.101 237.354L249.462 233.183L252.155 238.933L236.899 245.73C236.546 244.975 236.348 244.16 236.318 243.33C236.287 242.5 236.425 241.673 236.722 240.895C237.019 240.117 237.471 239.404 238.05 238.797C238.63 238.189 239.327 237.699 240.101 237.354Z" fill="#2B3E33"/>
<path d="M233.516 173.191C234.027 172.816 234.448 172.335 234.748 171.784C235.049 171.233 235.222 170.624 235.255 170.001C235.288 169.378 235.181 168.755 234.941 168.176C234.701 167.597 234.333 167.077 233.865 166.652L240.138 152.767L232.168 154.084L227.433 167.068C226.753 167.883 226.404 168.914 226.45 169.964C226.497 171.014 226.937 172.011 227.687 172.765C228.437 173.52 229.444 173.98 230.519 174.059C231.593 174.137 232.659 173.828 233.516 173.191Z" fill="#A0616A"/>
<path d="M209.996 235.602H204.898C204.404 235.6 203.928 235.417 203.566 235.088C203.204 234.76 202.982 234.31 202.944 233.829L200.164 161.404C200.144 161.126 200.185 160.848 200.287 160.588C200.388 160.328 200.546 160.092 200.75 159.898C200.954 159.703 201.2 159.555 201.469 159.463C201.738 159.371 202.024 159.337 202.308 159.364L231.791 162.418C232.269 162.464 232.713 162.679 233.039 163.023C233.365 163.367 233.55 163.816 233.559 164.284L234.177 196.232C234.181 196.405 234.215 196.577 234.279 196.738L246.373 227.335C246.467 227.571 246.511 227.823 246.504 228.076C246.496 228.33 246.437 228.579 246.33 228.81C246.223 229.04 246.07 229.248 245.88 229.421C245.69 229.593 245.466 229.727 245.223 229.815L240.057 231.672C239.608 231.833 239.114 231.828 238.669 231.659C238.223 231.49 237.857 231.167 237.638 230.753L222.781 202.57C222.7 202.417 222.641 202.254 222.605 202.085L220.067 190.155C219.993 189.809 219.796 189.5 219.51 189.284C219.224 189.067 218.868 188.957 218.506 188.973C218.145 188.989 217.801 189.13 217.536 189.371C217.271 189.612 217.103 189.937 217.062 190.288L211.942 233.908C211.887 234.374 211.659 234.805 211.3 235.117C210.941 235.429 210.477 235.602 209.996 235.602Z" fill="#2B3E33"/>
<path d="M212.534 104.774C218.439 104.774 223.225 100.105 223.225 94.3448C223.225 88.5847 218.439 83.9153 212.534 83.9153C206.63 83.9153 201.844 88.5847 201.844 94.3448C201.844 100.105 206.63 104.774 212.534 104.774Z" fill="#A0616A"/>
<path d="M219.867 168.027C212.617 167.949 205.54 165.857 199.464 161.998L199.36 161.928L199.371 161.805L203.46 115.343C203.601 113.766 204.323 112.293 205.491 111.195C206.659 110.098 208.195 109.45 209.815 109.372C215.115 109.134 222.234 109.434 226.044 112.202C231.803 116.387 234.579 122.688 233.66 129.49C231.753 143.596 233.913 162.624 234.166 164.748L234.184 164.901L234.04 164.965C229.601 166.98 224.763 168.025 219.867 168.027Z" fill="#64D4AB"/>
<path d="M234.115 164.826C233.814 164.826 233.516 164.764 233.24 164.646C232.965 164.527 232.717 164.354 232.513 164.137L230.175 161.648C229.922 161.378 229.745 161.048 229.66 160.692C229.576 160.335 229.587 159.964 229.692 159.612L235.024 142.005L226.911 125.383C226.532 124.605 226.439 123.724 226.648 122.887C226.832 122.152 227.24 121.489 227.819 120.985C228.397 120.481 229.118 120.16 229.887 120.065C230.656 119.969 231.437 120.103 232.126 120.448C232.816 120.794 233.381 121.336 233.749 122.002L244.759 139.43C245.206 140.137 245.469 140.94 245.523 141.769C245.578 142.598 245.423 143.428 245.072 144.185L236.101 163.576C235.954 163.897 235.726 164.176 235.44 164.39C235.154 164.603 234.818 164.744 234.462 164.799C234.347 164.817 234.232 164.826 234.115 164.826Z" fill="#64D4AB"/>
<path d="M158.76 131.193C159.274 131.566 159.864 131.824 160.491 131.949C161.118 132.075 161.765 132.065 162.388 131.92C163.01 131.775 163.593 131.499 164.094 131.111C164.595 130.723 165.003 130.232 165.289 129.674L180.714 131.625L177.169 124.539L163.064 123.772C162.071 123.366 160.959 123.329 159.939 123.67C158.92 124.01 158.064 124.703 157.534 125.617C157.003 126.532 156.835 127.605 157.061 128.633C157.287 129.66 157.892 130.571 158.76 131.193Z" fill="#A0616A"/>
<path d="M192.759 135.063C192.491 135.063 192.222 135.045 191.956 135.009L167.689 131.725C167.293 131.672 166.916 131.524 166.593 131.293C166.27 131.062 166.011 130.757 165.839 130.404C165.784 130.29 165.737 130.173 165.701 130.052C165.607 129.739 165.581 129.409 165.624 129.086C165.667 128.762 165.778 128.45 165.951 128.17L167.959 124.922C168.175 124.575 168.479 124.288 168.841 124.088C169.204 123.888 169.613 123.783 170.029 123.782H170.033L191.185 123.805L206.983 109.997C207.718 109.356 208.656 108.982 209.641 108.936C210.506 108.897 211.362 109.114 212.097 109.56C212.833 110.005 213.412 110.657 213.76 111.431C214.107 112.204 214.206 113.062 214.044 113.891C213.882 114.721 213.465 115.482 212.85 116.076L197.087 133.18C196.541 133.773 195.874 134.246 195.128 134.571C194.383 134.895 193.576 135.063 192.759 135.063Z" fill="#64D4AB"/>
<path d="M213.75 103.623C214.727 101.417 215.554 98.4797 213.68 96.9201C212.593 96.0155 211.027 96.0137 209.603 95.9011C205.591 95.5841 201.461 93.7832 199.5 90.3539C197.539 86.9246 198.634 81.8253 202.334 80.2781C204.828 79.2352 207.687 79.9457 210.297 80.6678L218.134 82.836C220.463 83.4802 222.908 84.1906 224.585 85.894C227.258 88.6105 227.059 93.2027 224.935 96.3477C222.811 99.4927 219.613 102.773 215.952 103.967L213.75 103.623Z" fill="#2B3E33"/>
<path d="M321.877 245.868H0.517822C0.449635 245.868 0.382082 245.855 0.319028 245.83C0.255975 245.805 0.198667 245.768 0.150382 245.721C0.102096 245.674 0.0637846 245.618 0.0376449 245.556C0.0115051 245.495 -0.00195312 245.429 -0.00195312 245.363C-0.00195312 245.296 0.0115051 245.23 0.0376449 245.169C0.0637846 245.107 0.102096 245.051 0.150382 245.005C0.198667 244.958 0.255975 244.92 0.319028 244.895C0.382082 244.87 0.449635 244.857 0.517822 244.857H321.877C321.945 244.857 322.013 244.87 322.076 244.895C322.139 244.92 322.196 244.958 322.244 245.005C322.293 245.051 322.331 245.107 322.357 245.169C322.383 245.23 322.397 245.296 322.397 245.363C322.397 245.429 322.383 245.495 322.357 245.556C322.331 245.618 322.293 245.674 322.244 245.721C322.196 245.768 322.139 245.805 322.076 245.83C322.013 245.855 321.945 245.868 321.877 245.868Z" fill="#3F3D56"/>
</g>
<defs>
<clipPath id="clip0_30_1456">
<rect width="357.653" height="245.869" fill="white"/>
</clipPath>
</defs>
</svg>
