<svg width="25" height="25" viewBox="0 0 25 25" fill="none" xmlns="http://www.w3.org/2000/svg">
<g clip-path="url(#clip0_40_176)">
<path d="M12.5002 22.9166C6.74704 22.9166 2.0835 18.253 2.0835 12.4999C2.0835 6.74679 6.74704 2.08325 12.5002 2.08325C18.2533 2.08325 22.9168 6.74679 22.9168 12.4999C22.9168 18.253 18.2533 22.9166 12.5002 22.9166ZM11.0647 8.76554C11.0021 8.72372 10.9292 8.69968 10.8539 8.69598C10.7786 8.69229 10.7038 8.70908 10.6373 8.74457C10.5708 8.78005 10.5152 8.83291 10.4764 8.8975C10.4375 8.9621 10.417 9.03601 10.4168 9.11138V15.8885C10.417 15.9638 10.4375 16.0377 10.4764 16.1023C10.5152 16.1669 10.5708 16.2198 10.6373 16.2553C10.7038 16.2908 10.7786 16.3076 10.8539 16.3039C10.9292 16.3002 11.0021 16.2761 11.0647 16.2343L16.147 12.8468C16.2042 12.8088 16.2511 12.7572 16.2835 12.6967C16.3159 12.6362 16.3329 12.5686 16.3329 12.4999C16.3329 12.4313 16.3159 12.3637 16.2835 12.3032C16.2511 12.2426 16.2042 12.1911 16.147 12.153L11.0637 8.76554H11.0647Z" fill="#64D4AB"/>
</g>
<defs>
<clipPath id="clip0_40_176">
<rect width="25" height="25" fill="white"/>
</clipPath>
</defs>
</svg>
