<svg width="35" height="35" viewBox="0 0 35 35" fill="none" xmlns="http://www.w3.org/2000/svg">
<path fill-rule="evenodd" clip-rule="evenodd" d="M17.5 0C27.1585 0 35 7.84146 35 17.5C35 27.1585 27.1585 35 17.5 35C7.84146 35 0 27.1585 0 17.5C0 7.84146 7.84146 0 17.5 0ZM17.5 2.91667C25.5485 2.91667 32.0833 9.45146 32.0833 17.5C32.0833 25.5485 25.5485 32.0833 17.5 32.0833C9.45146 32.0833 2.91667 25.5485 2.91667 17.5C2.91667 9.45146 9.45146 2.91667 17.5 2.91667ZM19.6525 21.8094C21.0933 21.2188 22.2148 20.0433 22.7383 18.5777L26.25 8.75L16.52 12.231C15.0529 12.756 13.879 13.8804 13.2883 15.3212L8.81854 26.25L19.6525 21.8094ZM19.4746 15.559C20.2781 16.3625 20.2781 17.6677 19.4746 18.4698C18.671 19.2733 17.3673 19.2733 16.5637 18.4698C15.7602 17.6677 15.7602 16.3625 16.5637 15.559C17.3673 14.7554 18.671 14.7554 19.4746 15.559Z" fill="#B8B8B8"/>
</svg>
