<svg width="50" height="50" viewBox="0 0 50 50" fill="none" xmlns="http://www.w3.org/2000/svg">
<circle cx="25" cy="25" r="25" fill="#FAFAFA"/>
<path d="M33.1184 15.4153C31.2837 12.0712 28.6791 9.29201 25.5557 7.34576L25 7L24.4443 7.34576C21.2677 9.31797 18.63 12.1554 16.7965 15.5726C14.9631 18.9899 13.9986 22.8663 14 26.8119C14 27.069 14.0042 27.33 14.0123 27.5879C14.1227 31.084 15.3655 34.0258 17.6064 36.0952C19.3211 37.6789 21.5207 38.6457 23.8906 38.8763V43H26.11V23.8988H23.8903V36.4734C20.1406 36.0061 16.4086 33.1564 16.2302 27.5067C16.2229 27.2758 16.2191 27.042 16.2191 26.8119C16.2257 23.405 17.0345 20.0554 18.57 17.0758C20.1055 14.0961 22.3177 11.5835 25 9.77243C27.6823 11.5835 29.8944 14.0962 31.4298 17.0758C32.9653 20.0555 33.774 23.405 33.7806 26.8119C33.7806 27.042 33.7768 27.2758 33.7695 27.5068C33.6269 32.0264 31.2097 34.7538 28.3289 35.9035V38.4305C29.8238 37.9747 31.2101 37.1782 32.3936 36.0951C34.6345 34.0257 35.8773 31.0839 35.9877 27.5878C35.9958 27.33 36 27.0689 36 26.8118C36.002 22.8044 35.007 18.8694 33.1184 15.4153Z" fill="#64D4AB"/>
</svg>
