<svg width="722" height="475" viewBox="0 0 722 475" fill="none" xmlns="http://www.w3.org/2000/svg">
<g clip-path="url(#clip0_26_704)">
<path d="M343.842 99.9572L342.715 108.78L339.918 130.695H283.721C284.16 125.783 284.759 118.714 285.4 111.081C285.464 110.319 285.53 109.552 285.593 108.78C287.2 89.5953 288.959 67.8853 288.959 67.8853L296.347 69.2383L310.681 71.8586L316.522 72.9257L332.164 75.7889C339.962 77.2134 345.326 88.3138 343.842 99.9572Z" fill="#F2F2F2"/>
<path d="M301.334 32.3833L308.245 44.2719L294.962 53.5258L289.296 38.9124L301.334 32.3833Z" fill="#FFB6B6"/>
<path d="M292.536 43.6306C301.992 43.6306 309.657 36.0954 309.657 26.8002C309.657 17.505 301.992 9.96973 292.536 9.96973C283.081 9.96973 275.416 17.505 275.416 26.8002C275.416 36.0954 283.081 43.6306 292.536 43.6306Z" fill="#FFB6B6"/>
<path d="M291.306 30.5627C289.947 28.5288 290.481 27.465 289.342 26.7175C289.342 26.7175 288.884 26.4168 285.607 26.2453C284.873 21.0531 283.957 20.4234 283.957 20.4234C282.901 19.6977 281.334 19.9335 280.359 20.3773C278.298 21.316 278.537 23.3438 277.149 23.7318C275.231 24.2678 271.743 21.246 271.399 17.7867C271.118 14.9648 272.968 12.2241 273.701 12.3691C274.429 12.5128 276.17 10.3275 277.11 10.3612C277.752 10.3842 280.376 9.26329 281.081 9.35093C281.852 9.44665 284.393 10.7503 284.499 10.4525C285.235 8.38272 285.019 7.80846 285.643 7.21635C286.749 6.16714 288.559 6.89778 291.399 7.29004C297.241 8.0971 298.261 6.20336 301.255 7.48695C302.767 8.13536 304.033 9.88403 306.502 13.3549C309.955 18.2089 311.682 20.6359 311.693 23.4666C311.704 26.3535 310.282 26.1702 309.658 30.4439C308.963 35.2013 310.44 37.3767 308.826 38.9222C307.579 40.1168 305.043 40.4003 303.711 39.352C301.43 37.557 304.415 33.2259 301.891 30.0616C300.342 28.1192 297.226 27.2549 295.799 28.215C294.185 29.3007 295.074 32.4872 293.939 32.7894C292.968 33.0482 291.543 30.9171 291.306 30.5627Z" fill="#2B3E33"/>
<path d="M331.187 96.8498C330.709 104.876 328.813 107.411 328.148 116.89C328.003 118.971 327.916 121.387 327.916 124.268C327.916 125.002 327.92 125.712 327.92 126.406C327.92 127.883 327.891 129.279 327.716 130.695C327.584 131.825 327.356 132.964 326.978 134.164H290.104C290.1 134.155 290.1 134.147 290.096 134.139C289.88 133.217 289.743 132.335 289.639 131.491C289.606 131.221 289.577 130.956 289.552 130.695C289.519 130.389 289.49 130.087 289.461 129.789C289.349 128.602 289.237 127.479 288.971 126.406C288.614 124.925 287.966 123.529 286.638 122.183C286.094 121.632 285.551 121.203 285.019 120.828C284.916 120.758 284.816 120.689 284.712 120.62C283.243 119.628 281.852 118.914 280.648 116.89C280.628 116.861 280.611 116.829 280.594 116.8C280.387 116.445 279.847 115.515 279.457 114.274C279.046 112.985 278.797 111.365 279.245 109.708C280.312 105.782 284.264 105.391 287.493 101.424C287.842 100.996 288.187 100.522 288.515 99.996C289.975 97.6618 290.37 95.6053 290.835 93.1609C290.909 92.7649 290.976 92.3732 291.03 91.9938C291.072 91.7081 291.109 91.4266 291.138 91.149C291.395 88.819 291.271 86.8113 290.968 85.0158C289.98 79.1355 287.066 75.4956 289.125 70.2192C289.772 68.5626 290.69 67.3179 291.615 66.2529C293.574 63.9962 295.588 62.5313 295.239 59.6178C294.886 56.6796 292.62 56.2755 292.367 53.7088C292.238 52.4113 292.67 51.0442 293.479 49.7016V49.6976C296.069 45.3761 302.537 41.3974 306.646 41.5239C307.406 41.5445 308.078 41.7116 308.638 42.034C310.669 43.2092 309.822 45.776 312.931 49.3753C315.243 52.048 317.858 53.1172 318.85 53.6231C322.781 55.6391 325.977 61.5846 328.148 69.1869C328.165 69.2441 328.181 69.301 328.198 69.3624C329.539 74.1245 330.486 79.5314 330.955 85.0158C331.154 87.3377 331.27 89.672 331.295 91.9815C331.316 93.826 331.274 95.4258 331.187 96.8498Z" fill="#64D4AB"/>
<path d="M303.575 124.35L302.824 126.406L302.351 127.696L301.254 130.695L299.984 134.164H291.819L293.189 130.695L293.824 129.079L294.879 126.406L296.647 121.918L303.575 124.35Z" fill="#FFB6B6"/>
<path d="M328.277 68.4852C328.256 68.7506 328.227 69.0443 328.198 69.3627C327.874 72.6027 327.11 78.4013 325.994 85.0161C325.405 88.505 324.715 92.2226 323.939 95.9156C322.271 103.885 320.195 111.732 317.85 116.89C317.43 117.821 316.999 118.661 316.558 119.404C316.222 119.971 315.869 120.53 315.5 121.081C314.305 122.889 312.964 124.603 311.573 126.202C311.519 126.272 311.457 126.337 311.395 126.406C311.171 126.667 310.938 126.925 310.706 127.182C309.568 128.443 308.406 129.618 307.281 130.695C305.911 132.009 304.591 133.172 303.408 134.164H290.15L290.096 134.139L288.187 133.307C288.187 133.307 288.73 132.678 289.639 131.491C289.826 131.25 290.025 130.985 290.241 130.695C290.507 130.34 290.793 129.948 291.1 129.524C291.74 128.634 292.466 127.59 293.246 126.406C294.758 124.117 296.48 121.301 298.219 118.041C298.419 117.661 298.622 117.278 298.826 116.89C298.83 116.878 298.838 116.866 298.842 116.854C299.187 116.192 299.527 115.511 299.867 114.817C302.752 108.917 303.578 104.02 303.815 102.432C304.147 100.188 304.608 97.0499 304.483 93.5977C304.4 91.3208 304.064 88.9131 303.263 86.5218V86.5179C303.097 86.0159 302.91 85.514 302.698 85.0161C302.321 84.1225 301.872 83.241 301.341 82.3718C298.996 78.5442 297.091 78.385 295.575 74.2145C295.127 72.9781 294.11 70.187 294.421 67.2407V67.2367C294.459 66.8734 294.521 66.5062 294.604 66.1388V66.1348C294.625 66.0328 294.654 65.9268 294.683 65.8248C294.919 64.923 295.31 64.0291 295.903 63.1803C297.061 61.5319 298.643 60.5524 300.058 59.969L300.063 59.9648C301.698 59.2957 303.109 59.1528 303.384 59.1283C309.448 58.5979 314.151 63.6089 316.721 66.347C317.713 67.4038 318.622 68.2895 319.452 69.0116C325.915 74.6839 327.688 71.0601 328.148 69.1872C328.219 68.8974 328.256 68.6486 328.277 68.4852Z" fill="#64D4AB"/>
<path d="M328.302 68.2732C328.302 68.2936 328.297 68.3633 328.278 68.4782C328.287 68.4165 328.292 68.3551 328.297 68.2976C328.297 68.2854 328.297 68.2772 328.302 68.2732Z" fill="#64D4AB"/>
<path d="M295.331 154.38H72.817C70.7496 154.38 69.0645 156.032 69.0645 158.065C69.0645 160.101 70.7496 161.754 72.817 161.754H295.331C297.398 161.754 299.08 160.101 299.08 158.065C299.08 156.032 297.398 154.38 295.331 154.38Z" fill="#E6E6E6"/>
<path d="M245.95 173.428H122.193C120.125 173.428 118.444 175.08 118.444 177.113C118.444 179.145 120.125 180.801 122.193 180.801H245.95C248.018 180.801 249.703 179.145 249.703 177.113C249.703 175.08 248.018 173.428 245.95 173.428Z" fill="#E6E6E6"/>
<path d="M97.5771 33.1656L111.601 27.3638L117.616 39.4856L102.879 45.3987L97.5771 33.1656Z" fill="#FFB6B6"/>
<path opacity="0.1" d="M97.5771 33.1656L111.601 27.3638L117.616 39.4856L102.879 45.3987L97.5771 33.1656Z" fill="black"/>
<path d="M99.5715 28.5464L113.406 44.2161C113.406 44.2161 103.782 74.0772 94.158 76.7381C84.534 79.399 66.7897 92.4078 66.7897 92.4078L44.5342 78.2164L55.3612 62.5467C55.3612 62.5467 81.5265 27.3638 88.4438 27.3638C95.361 27.3638 99.5715 28.5464 99.5715 28.5464Z" fill="#64D4AB"/>
<path d="M80.8793 130.695H48.6751L46.639 128.019L38.3263 117.095L36.4135 114.582C36.4135 114.582 29.1955 101.573 30.6993 89.7468C32.203 77.9207 47.842 75.2598 47.842 75.2598H48.4856L67.6313 91.7987L66.4884 107.19L72.5516 117.095L80.8793 130.695Z" fill="#2B3E33"/>
<path d="M55.2702 130.695H46.6387V118.13L55.2702 130.695Z" fill="#2B3E33"/>
<path d="M241.442 111.62L240.368 117.095L237.703 130.695H184.173C184.591 127.647 185.162 123.26 185.773 118.523C185.833 118.05 185.896 117.574 185.956 117.095C187.487 105.189 189.162 91.7161 189.162 91.7161L196.2 92.5558L209.854 94.1819L215.418 94.8441L230.317 96.621C237.745 97.505 242.855 104.394 241.442 111.62Z" fill="#F2F2F2"/>
<path d="M317.197 130.696H288.163C288.605 130.184 288.855 129.888 288.855 129.888L297.558 128.475L315.492 125.566C315.492 125.566 316.31 127.644 317.197 130.696Z" fill="#2B3E33"/>
<path d="M194.041 39.0793L206.667 56.6337L184.642 57.2803L182.278 40.7833L194.041 39.0793Z" fill="#A0616A"/>
<path opacity="0.1" d="M194.041 39.0793L206.667 56.6337L184.642 57.2803L182.278 40.7833L194.041 39.0793Z" fill="black"/>
<path d="M131.772 75.4503C130.152 70.8558 126.427 67.9533 123.453 68.9674C120.479 69.9815 119.382 74.5275 121.003 79.1235C121.625 80.9681 122.688 82.6394 124.101 83.9977L131.216 103.38L140.397 99.9036L132.408 81.1655C132.664 79.2378 132.445 77.278 131.772 75.4503Z" fill="#A0616A"/>
<path d="M217.242 66.5057L217.225 84.3957L215.532 91.0036L212.049 104.595L209.514 117.095L207.625 126.408L206.951 129.734C206.443 130.068 205.938 130.388 205.433 130.695H161.442C158.942 129.22 157.544 128.073 157.544 128.073C157.544 128.073 158.236 127.434 159.027 126.408C160.362 124.676 161.977 121.837 160.988 119.126C160.78 118.559 160.726 117.867 160.789 117.095C161.192 112.004 166.624 103.394 166.624 103.394L165.499 90.6163L165.006 85.0166L168.483 57.7128L179.818 51.235L181.775 51.0489L201.093 50.0229L209.077 50.4753L209.441 50.5729L217.242 66.5057Z" fill="#CCCCCC"/>
<path d="M218.099 130.695H208.475L208.051 126.408L208.042 126.323L210.767 126.139L217.856 125.663L217.979 128.23L218.075 130.199L218.099 130.695Z" fill="#FFB6B6"/>
<path d="M220.469 70.8311L224.512 94.1495L221.212 117.095L220.698 120.667L219.79 126.973L219.51 128.913L219.519 129.123L219.588 130.695H208.16L207.739 126.408L207.703 126.024L206.843 117.243L206.827 117.095L205.002 98.4749L208.581 85.0167L208.846 84.0262V84.0233L210.403 60.9799L209.197 50.5077L209.185 50.4102C209.209 50.425 209.23 50.4398 209.254 50.4545C209.317 50.493 209.38 50.5314 209.44 50.5728C216.466 54.9544 220.652 62.6415 220.469 70.8311Z" fill="#CCCCCC"/>
<path d="M172.577 62.181L168.183 57.7124C168.183 57.7124 158.775 61.8819 158.306 64.195C157.837 66.5082 141.226 100.483 141.226 100.483L133.999 81.5081L124.592 87.6823C124.592 87.6823 132.14 117.141 139.199 118.524C146.258 119.907 169.917 83.6567 169.917 83.6567L172.577 62.181Z" fill="#CCCCCC"/>
<path d="M351.026 116.89H8.7836C3.9394 116.89 0 120.767 0 125.529C0 130.291 3.9394 134.163 8.7836 134.163H351.026C355.87 134.163 359.813 130.291 359.813 125.529C359.813 120.766 355.87 116.89 351.026 116.89Z" fill="#E6E6E6"/>
<path d="M215.239 90.5668L214.574 121.091C214.51 124.046 212.055 126.409 209.048 126.409H151.929C148.994 126.409 146.57 124.153 146.41 121.272L144.713 90.747C144.539 87.6342 147.06 85.0168 150.232 85.0168H209.713C212.812 85.0168 215.306 87.5211 215.239 90.5668Z" fill="#3F3D56"/>
<path d="M123.029 40.534C130.577 40.534 136.695 34.5192 136.695 27.0996C136.695 19.68 130.577 13.6653 123.029 13.6653C115.482 13.6653 109.363 19.68 109.363 27.0996C109.363 34.5192 115.482 40.534 123.029 40.534Z" fill="#FFB6B6"/>
<path d="M100.172 62.2512L101.676 78.2166L111.902 118.721L103.068 121.765L88.1425 77.6252L86.0811 59.886L100.172 62.2512Z" fill="#FFB6B6"/>
<path d="M96.1056 90.5668L95.4403 121.091C95.3759 124.046 92.9208 126.409 89.9143 126.409H32.7952C29.8598 126.409 27.4364 124.153 27.2762 121.272L25.5787 90.747C25.4056 87.6342 27.9266 85.0168 31.0977 85.0168H90.5797C93.6786 85.0168 96.172 87.5211 96.1056 90.5668Z" fill="#3F3D56"/>
<path d="M113.53 126.615C119.491 126.615 124.323 124.514 124.323 121.922C124.323 119.33 119.491 117.229 113.53 117.229C107.569 117.229 102.737 119.33 102.737 121.922C102.737 124.514 107.569 126.615 113.53 126.615Z" fill="#FFB6B6"/>
<path d="M78.9697 64.6921L85.1351 32.39C85.1351 32.39 102.278 30.0248 102.879 35.6422C103.481 41.2597 102.45 68.7129 102.45 68.7129L78.9697 64.6921Z" fill="#64D4AB"/>
<path d="M117.513 29.212C117.513 29.212 125.967 26.246 129.533 24.6501C133.099 23.0543 140.183 34.1852 140.341 28.3066C140.498 22.428 138.05 19.9627 138.05 19.9627C138.05 19.9627 137.439 7.1024 124.259 8.71025C124.259 8.71025 127.158 2.27608 117.642 1.28116C108.126 0.286233 93.3217 22.8766 94.6475 26.2526C95.9734 29.6286 97.5628 32.4197 93.8012 36.0294C90.0396 39.6391 82.996 60.0112 88.3551 65.4933C93.7142 70.9753 94.0658 73.3541 90.394 76.7646C86.7222 80.1751 78.043 87.5908 87.4272 88.8782C96.8114 90.1656 86.5686 89.2041 93.5647 83.1545C100.561 77.105 110.77 77.352 106.958 67.646C103.146 57.94 109.768 44.0314 108.94 41.9214C108.111 39.8114 110.796 26.4127 110.796 26.4127C110.796 26.4127 117.046 25.5101 117.513 29.212Z" fill="#2B3E33"/>
<path d="M187.29 45.4328C195.506 45.4328 202.167 38.8853 202.167 30.8086C202.167 22.7318 195.506 16.1843 187.29 16.1843C179.074 16.1843 172.414 22.7318 172.414 30.8086C172.414 38.8853 179.074 45.4328 187.29 45.4328Z" fill="#A0616A"/>
<path d="M188.477 11.1474C188.047 11.3944 187.47 11.0206 187.332 10.5498C187.194 10.079 187.355 9.57909 187.514 9.11485L188.317 6.77778C188.886 5.12028 189.49 3.40486 190.723 2.14329C192.584 0.239149 195.541 -0.245255 198.203 0.105679C201.622 0.556349 204.995 2.37619 206.585 5.38553C208.174 8.39487 207.498 12.594 204.625 14.4715C208.719 19.084 210.146 24.2246 209.921 30.3419C209.695 36.4592 202.914 42.0891 198.492 46.3986C197.504 45.81 196.606 43.052 197.15 42.0501C197.693 41.0481 196.914 39.8874 197.587 38.9645C198.26 38.0416 198.822 39.5111 198.142 38.5935C197.713 38.0144 199.388 36.6823 198.75 36.3357C195.665 34.6594 194.639 30.8794 192.702 27.9847C190.365 24.4933 186.365 22.1288 182.132 21.7365C179.801 21.5205 177.338 21.9118 175.427 23.2426C173.515 24.5733 172.278 26.9513 172.721 29.2121C171.574 28.0664 171.002 26.3874 171.218 24.7934C171.433 23.1994 172.431 21.7254 173.843 20.9142C172.984 18.1224 173.72 14.9111 175.713 12.7507C177.706 10.5904 185.792 10.9583 188.702 11.5269L188.477 11.1474Z" fill="#2B3E33"/>
<path d="M188.93 21.8213C192.784 22.2303 195.567 25.5123 197.916 28.5432C199.271 30.2902 200.69 32.2194 200.656 34.4156C200.621 36.6361 199.111 38.5406 198.389 40.645C197.21 44.0845 198.359 48.1769 201.168 50.5336C198.393 51.0513 195.393 49.0059 194.914 46.2696C194.356 43.0842 196.813 40.0098 196.522 36.7903C196.265 33.9538 193.992 31.7708 192.059 29.65C190.126 27.5292 188.31 24.7149 189.199 22.0048L188.93 21.8213Z" fill="#2B3E33"/>
<path d="M246.547 118.739C242.729 120.873 240.755 124.54 242.137 126.928C243.52 129.316 247.734 129.521 251.553 127.386C253.09 126.553 254.402 125.371 255.38 123.937L271.439 114.692L266.865 107.376L251.519 117.267C249.766 117.36 248.061 117.865 246.547 118.739Z" fill="#FFB6B6"/>
<path d="M300.92 50.9436C300.44 50.7566 296.23 49.189 292.385 51.2587C287.969 53.6363 287.287 59.0636 287.048 60.9672C286.495 65.3646 288.123 66.3502 288.467 70.802C289.11 79.1308 290.806 69.6293 288.098 73.431C287.161 74.7469 277.589 95.1395 272.31 99.1338C262.043 106.902 255.523 112.373 255.523 112.373L262.966 120.321C262.966 120.321 274.728 117.241 285.123 110.605C295.786 103.799 301.118 100.395 305.242 93.7377C305.598 93.1643 314.097 78.9754 309.532 63.2857C308.491 59.707 306.584 53.1499 300.92 50.9436Z" fill="#64D4AB"/>
<path d="M339.354 90.5668L338.688 121.091C338.624 124.046 336.169 126.409 333.162 126.409H276.043C273.108 126.409 270.684 124.153 270.524 121.272L268.827 90.747C268.654 87.6342 271.175 85.0168 274.346 85.0168H333.828C336.927 85.0168 339.42 87.5211 339.354 90.5668Z" fill="#3F3D56"/>
</g>
<g clip-path="url(#clip1_26_704)">
<path d="M504.141 181.217C502.226 181.854 500.17 182.014 498.171 181.68C496.173 181.347 494.298 180.531 492.729 179.312C488.731 176.134 487.478 170.898 486.458 166.049L483.442 151.708L489.757 155.827C494.298 158.789 498.941 161.846 502.085 166.137C505.23 170.428 506.602 176.285 504.076 180.927" fill="#E6E6E6"/>
<path d="M503.6 198.58C504.239 194.17 504.897 189.703 504.448 185.245C504.05 181.286 502.775 177.42 500.18 174.249C498.802 172.57 497.126 171.131 495.226 169.997C494.731 169.7 494.275 170.444 494.768 170.739C498.055 172.707 500.597 175.613 502.029 179.038C503.609 182.847 503.863 187 503.591 191.046C503.426 193.493 503.077 195.924 502.725 198.351C502.697 198.461 502.715 198.577 502.773 198.675C502.832 198.773 502.928 198.847 503.042 198.88C503.158 198.91 503.282 198.895 503.386 198.839C503.491 198.783 503.568 198.69 503.6 198.58Z" fill="#F2F2F2"/>
<path d="M497.445 190.776C496.624 191.958 495.495 192.92 494.167 193.569C492.84 194.219 491.358 194.533 489.865 194.482C486.028 194.309 482.829 191.772 479.949 189.364L471.432 182.239L477.069 181.984C481.123 181.8 485.281 181.628 489.142 182.813C493.004 183.997 496.565 186.847 497.271 190.634" fill="#E6E6E6"/>
<path d="M505.406 201.115C502.33 195.959 498.762 190.228 492.387 188.396C490.614 187.889 488.755 187.707 486.91 187.861C486.329 187.908 486.474 188.757 487.054 188.71C490.147 188.466 493.233 189.24 495.794 190.9C498.258 192.489 500.177 194.698 501.8 197.041C502.795 198.476 503.686 199.972 504.577 201.466C504.862 201.943 505.694 201.598 505.406 201.115Z" fill="#F2F2F2"/>
<path d="M587.856 97.8157L520.791 150.474C519.947 151.135 518.861 151.452 517.77 151.355C516.68 151.259 515.675 150.756 514.975 149.958L486.704 117.643C486.006 116.844 485.672 115.815 485.774 114.782C485.876 113.749 486.406 112.797 487.249 112.134L554.314 59.4753C555.158 58.8142 556.244 58.4973 557.334 58.594C558.424 58.6906 559.429 59.1931 560.129 59.991L588.4 92.3065C589.098 93.1059 589.433 94.1349 589.331 95.1677C589.229 96.2005 588.698 97.1528 587.856 97.8157Z" fill="#CCCCCC"/>
<path d="M585.168 96.2298L519.645 147.678C519.21 148.018 518.65 148.182 518.089 148.132C517.527 148.082 517.009 147.823 516.649 147.412L489.656 116.557C489.296 116.145 489.124 115.615 489.176 115.083C489.229 114.551 489.502 114.061 489.936 113.719L555.459 62.2712C555.894 61.9306 556.454 61.7673 557.015 61.8171C557.577 61.8669 558.095 62.1258 558.455 62.5368L585.448 93.3918C585.808 93.8036 585.98 94.3337 585.928 94.8657C585.875 95.3978 585.602 95.8884 585.168 96.2298Z" fill="white"/>
<path d="M588.19 106.999L574.713 105.804L584.358 98.6125L589.554 104.552C589.757 104.779 589.883 105.058 589.915 105.353C589.947 105.649 589.884 105.947 589.735 106.208C589.637 106.385 589.503 106.542 589.341 106.67C589.181 106.795 588.998 106.888 588.8 106.944C588.602 107.001 588.395 107.02 588.19 106.999Z" fill="#CCCCCC"/>
<path d="M561.127 84.1311L527.979 110.158C527.777 110.317 527.543 110.436 527.292 110.51C527.041 110.583 526.777 110.609 526.515 110.586C526.253 110.563 525.999 110.491 525.766 110.374C525.534 110.258 525.328 110.099 525.16 109.908C524.992 109.716 524.866 109.495 524.788 109.257C524.711 109.019 524.683 108.768 524.708 108.52C524.732 108.272 524.808 108.031 524.931 107.811C525.054 107.591 525.221 107.395 525.424 107.237L558.571 81.2099C558.774 81.0509 559.007 80.9313 559.258 80.8578C559.51 80.7843 559.774 80.7585 560.036 80.7817C560.297 80.8049 560.552 80.8768 560.784 80.9931C561.017 81.1095 561.223 81.2681 561.391 81.4599C561.558 81.6517 561.685 81.873 561.762 82.111C561.84 82.3491 561.867 82.5992 561.843 82.8473C561.818 83.0953 561.742 83.3364 561.619 83.5566C561.497 83.7769 561.329 83.9721 561.127 84.1311Z" fill="#CCCCCC"/>
<path d="M544.904 86.3972L522.549 103.95C522.14 104.271 521.613 104.425 521.084 104.378C520.556 104.331 520.068 104.087 519.729 103.7C519.39 103.313 519.228 102.814 519.277 102.313C519.327 101.812 519.584 101.35 519.993 101.029L542.348 83.476C542.757 83.1549 543.284 83.0009 543.813 83.0478C544.341 83.0947 544.829 83.3387 545.168 83.726C545.507 84.1134 545.669 84.6125 545.62 85.1134C545.57 85.6143 545.313 86.0761 544.904 86.3972Z" fill="#CCCCCC"/>
<path d="M510.264 122.296C513.72 122.296 516.522 119.641 516.522 116.367C516.522 113.093 513.72 110.439 510.264 110.439C506.808 110.439 504.007 113.093 504.007 116.367C504.007 119.641 506.808 122.296 510.264 122.296Z" fill="#64D4AB"/>
<path d="M560.04 104.484C561.146 104.484 562.043 103.635 562.043 102.587C562.043 101.539 561.146 100.69 560.04 100.69C558.935 100.69 558.038 101.539 558.038 102.587C558.038 103.635 558.935 104.484 560.04 104.484Z" fill="#E6E6E6"/>
<path d="M565.437 100.247C566.543 100.247 567.439 99.3979 567.439 98.3502C567.439 97.3025 566.543 96.4531 565.437 96.4531C564.331 96.4531 563.435 97.3025 563.435 98.3502C563.435 99.3979 564.331 100.247 565.437 100.247Z" fill="#E6E6E6"/>
<path d="M570.832 96.0101C571.938 96.0101 572.835 95.1608 572.835 94.1131C572.835 93.0654 571.938 92.2161 570.832 92.2161C569.727 92.2161 568.83 93.0654 568.83 94.1131C568.83 95.1608 569.727 96.0101 570.832 96.0101Z" fill="#E6E6E6"/>
<path d="M538.916 197.812L543.513 197.811L545.7 181.013L538.915 181.013L538.916 197.812Z" fill="#FFB8B8"/>
<path d="M537.744 196.39L546.797 196.389H546.798C547.555 196.389 548.306 196.531 549.006 196.805C549.706 197.08 550.342 197.483 550.877 197.99C551.413 198.498 551.838 199.1 552.128 199.763C552.418 200.427 552.567 201.137 552.567 201.855V202.033L537.744 202.033L537.744 196.39Z" fill="#2B3E33"/>
<path d="M522.418 197.812L527.015 197.811L529.202 181.013L522.417 181.013L522.418 197.812Z" fill="#FFB8B8"/>
<path d="M521.245 196.39L530.298 196.389H530.299C531.056 196.389 531.807 196.531 532.507 196.805C533.207 197.08 533.843 197.483 534.378 197.99C534.914 198.498 535.339 199.1 535.629 199.763C535.919 200.427 536.068 201.137 536.068 201.855V202.033L521.245 202.033L521.245 196.39Z" fill="#2B3E33"/>
<path d="M527.031 192.672H527.03L523.121 192.671C522.683 192.672 522.262 192.512 521.948 192.224C521.633 191.937 521.449 191.544 521.435 191.13L521.312 187.89C520.324 161.978 519.302 135.185 525.631 123.142L525.68 123.048L546.634 122.329L550.84 158.887C551.02 160.446 550.954 162.022 550.646 163.563L545.085 191.325C545.009 191.701 544.794 192.039 544.477 192.278C544.161 192.516 543.765 192.639 543.361 192.624L538.97 192.489C538.74 192.481 538.514 192.428 538.306 192.333C538.099 192.239 537.914 192.106 537.763 191.941C537.612 191.777 537.498 191.585 537.428 191.377C537.358 191.169 537.334 190.95 537.357 190.733L540.806 165.057C540.923 163.949 540.817 162.829 540.493 161.759L536.203 147.551C536.168 147.434 536.091 147.331 535.985 147.261C535.879 147.191 535.751 147.158 535.623 147.166C535.494 147.175 535.372 147.225 535.278 147.308C535.184 147.392 535.123 147.503 535.105 147.625L528.702 191.293C528.644 191.675 528.444 192.024 528.137 192.277C527.83 192.53 527.438 192.67 527.031 192.672Z" fill="#2B3E33"/>
<path d="M529.537 85.7794C534.623 85.7794 538.747 81.873 538.747 77.0544C538.747 72.2357 534.623 68.3293 529.537 68.3293C524.45 68.3293 520.327 72.2357 520.327 77.0544C520.327 81.873 524.45 85.7794 529.537 85.7794Z" fill="#FFB8B8"/>
<path d="M545.652 125.027H526.594C526.352 125.027 526.113 124.978 525.893 124.882C525.672 124.787 525.476 124.648 525.318 124.474C525.16 124.301 525.042 124.097 524.975 123.877C524.907 123.656 524.89 123.425 524.925 123.198L525.866 117.089L520.338 102.683C519.767 101.195 519.555 99.6061 519.717 98.0311C519.879 96.4561 520.411 94.9354 521.275 93.5807C522.138 92.226 523.31 91.0716 524.706 90.2021C526.102 89.3327 527.685 88.7702 529.34 88.5561C531.698 88.2445 534.1 88.6563 536.193 89.7312C538.286 90.8061 539.961 92.4877 540.972 94.5296L542.187 96.9774L547.311 123.137C547.356 123.368 547.347 123.605 547.284 123.832C547.222 124.059 547.107 124.271 546.949 124.451C546.791 124.631 546.592 124.776 546.368 124.876C546.144 124.976 545.899 125.027 545.652 125.027Z" fill="#64D4AB"/>
<path d="M505.422 140.351C505.996 140.225 506.534 139.981 506.997 139.637C507.46 139.293 507.838 138.856 508.105 138.359C508.371 137.861 508.518 137.314 508.537 136.756C508.556 136.199 508.446 135.644 508.214 135.131L523.064 103.347L514.569 101.32L502.643 133.2C501.76 133.626 501.072 134.345 500.71 135.219C500.348 136.094 500.338 137.064 500.68 137.945C501.023 138.827 501.695 139.559 502.569 140.002C503.443 140.445 504.458 140.57 505.422 140.351Z" fill="#FFB8B8"/>
<path d="M521.053 109.032L512.791 105.368C512.556 105.264 512.348 105.113 512.18 104.925C512.012 104.738 511.889 104.518 511.818 104.281C511.748 104.045 511.733 103.796 511.773 103.553C511.813 103.31 511.908 103.079 512.051 102.874L517.072 95.6896C517.642 94.554 518.665 93.6788 519.915 93.2558C521.165 92.8329 522.541 92.8966 523.742 93.4331C524.942 93.9696 525.87 94.9351 526.32 96.118C526.771 97.301 526.708 98.6049 526.146 99.7441L523.549 107.972C523.475 108.208 523.348 108.426 523.177 108.61C523.006 108.795 522.794 108.943 522.557 109.043C522.321 109.144 522.064 109.195 521.804 109.193C521.544 109.191 521.288 109.136 521.053 109.032Z" fill="#64D4AB"/>
<path d="M567.369 58.5618C567.548 59.0932 567.603 59.6553 567.528 60.2087C567.453 60.7621 567.251 61.2932 566.936 61.7647C566.621 62.2361 566.201 62.6364 565.705 62.9373C565.209 63.2382 564.65 63.4325 564.066 63.5065L542.854 91.8667L536.666 85.9923L559.462 59.9623C559.396 59.0251 559.695 58.0975 560.303 57.3552C560.911 56.613 561.784 56.1076 562.759 55.935C563.734 55.7624 564.741 55.9344 565.591 56.4185C566.441 56.9027 567.073 57.6652 567.369 58.5618Z" fill="#FFB8B8"/>
<path d="M547.759 88.5381C547.789 88.7823 547.763 89.0299 547.683 89.2638C547.603 89.4978 547.471 89.7126 547.295 89.8937L541.165 96.2203C540.42 97.262 539.27 97.9816 537.967 98.2212C536.663 98.4608 535.312 98.2008 534.21 97.4983C533.109 96.7958 532.346 95.7081 532.09 94.4736C531.833 93.2392 532.104 91.9588 532.842 90.9132L536.784 83.1486C536.897 82.927 537.058 82.731 537.258 82.5739C537.458 82.4168 537.691 82.3023 537.941 82.2383C538.192 82.1742 538.454 82.1621 538.71 82.2027C538.966 82.2433 539.21 82.3357 539.425 82.4736L546.977 87.3202C547.193 87.4581 547.374 87.6382 547.508 87.8484C547.643 88.0586 547.728 88.2938 547.759 88.5381Z" fill="#64D4AB"/>
<path d="M541.637 73.402C541.632 72.6124 541.516 71.8269 541.293 71.066C539.809 65.8715 534.331 62.7539 528.834 63.5362C527.765 63.2459 526.659 63.0991 525.546 63.1001C522.717 63.1001 519.981 64.0585 517.833 65.8023C515.684 67.546 514.264 69.9602 513.83 72.6088L509.39 99.6896H533.388L537.263 76.0572C537.407 75.179 537.441 74.2878 537.364 73.402H541.637Z" fill="#2B3E33"/>
<path d="M571.465 202.231H492.346C492.246 202.231 492.151 202.193 492.081 202.127C492.01 202.06 491.971 201.97 491.971 201.876C491.971 201.781 492.01 201.691 492.081 201.624C492.151 201.558 492.246 201.52 492.346 201.52H571.465C571.565 201.52 571.66 201.558 571.73 201.624C571.801 201.691 571.84 201.781 571.84 201.876C571.84 201.97 571.801 202.06 571.73 202.127C571.66 202.193 571.565 202.231 571.465 202.231Z" fill="#CCCCCC"/>
<path d="M651.173 27.8138C651.722 27.7638 652.275 27.8283 652.795 28.0029C653.314 28.1775 653.787 28.4579 654.18 28.8244C654.573 29.1908 654.876 29.6344 655.068 30.1238C655.26 30.6133 655.337 31.1367 655.293 31.6572L667.557 36.7709L661.707 40.3484L650.957 34.9439C650.039 34.8153 649.203 34.3721 648.607 33.6983C648.01 33.0245 647.696 32.1669 647.722 31.2881C647.749 30.4092 648.115 29.5701 648.751 28.9297C649.387 28.2894 650.249 27.8923 651.173 27.8138Z" fill="#A0616A"/>
<path d="M700.643 21.4346C705.73 21.4346 709.853 17.5283 709.853 12.7096C709.853 7.89094 705.73 3.98462 700.643 3.98462C695.557 3.98462 691.434 7.89094 691.434 12.7096C691.434 17.5283 695.557 21.4346 700.643 21.4346Z" fill="#A0616A"/>
<path d="M683.975 137.119L679.378 137.119L677.191 120.321L683.976 120.321L683.975 137.119Z" fill="#A0616A"/>
<path d="M685.147 141.341L670.324 141.34V141.163C670.324 140.445 670.473 139.734 670.763 139.071C671.053 138.408 671.478 137.805 672.014 137.298C672.55 136.79 673.186 136.388 673.886 136.113C674.586 135.838 675.336 135.697 676.094 135.697L685.147 135.697L685.147 141.341Z" fill="#2B3E33"/>
<path d="M703.099 137.119L698.502 137.119L696.315 120.321L703.1 120.321L703.099 137.119Z" fill="#A0616A"/>
<path d="M704.272 141.341L689.449 141.34V141.163C689.449 140.445 689.598 139.734 689.888 139.071C690.178 138.408 690.603 137.805 691.139 137.298C691.675 136.79 692.311 136.388 693.011 136.113C693.711 135.838 694.461 135.697 695.219 135.697L704.272 135.697L704.272 141.341Z" fill="#2B3E33"/>
<path d="M702.881 133.542C702.813 133.541 702.744 133.537 702.676 133.529L695.946 132.745C695.552 132.699 695.188 132.523 694.917 132.248C694.647 131.973 694.487 131.616 694.467 131.24L692.506 89.4058C692.5 89.2871 692.451 89.174 692.369 89.0843C692.287 88.9946 692.175 88.9337 692.052 88.911C691.929 88.8884 691.801 88.9055 691.689 88.9595C691.577 89.0135 691.488 89.1014 691.435 89.2091L686.397 105.118L685.36 130.673C685.351 130.893 685.294 131.109 685.193 131.308C685.091 131.506 684.948 131.683 684.771 131.826C684.594 131.97 684.388 132.077 684.165 132.141C683.942 132.205 683.708 132.224 683.477 132.199L677.649 131.549C677.233 131.504 676.849 131.312 676.573 131.013C676.298 130.714 676.15 130.327 676.16 129.93L676.654 105.876L680.602 68.1165L680.779 68.1227L704.785 68.9993L704.569 131.948C704.567 132.371 704.389 132.776 704.073 133.075C703.756 133.374 703.328 133.541 702.881 133.542Z" fill="#2B3E33"/>
<path d="M703.876 72.4495C703.861 72.4495 703.847 72.4495 703.832 72.4491L679.654 71.8489C679.417 71.8431 679.184 71.79 678.97 71.6931C678.756 71.5962 678.566 71.4577 678.413 71.2866C678.259 71.1155 678.145 70.9157 678.079 70.7001C678.012 70.4846 677.994 70.2582 678.026 70.0356L682.672 37.641C682.962 35.4537 683.736 33.3489 684.943 31.4641C686.15 29.5793 687.763 27.9568 689.677 26.7026C691.36 25.6047 693.272 24.8609 695.284 24.521C697.296 24.1811 699.361 24.2531 701.341 24.7321C709.781 26.7581 714.843 35.3431 712.627 43.8695L705.515 71.2332C705.423 71.5795 705.212 71.887 704.915 72.1073C704.618 72.3275 704.253 72.4479 703.876 72.4495Z" fill="#3F3D56"/>
<path d="M672.156 46.7255C670.563 46.7273 669.004 46.2884 667.67 45.4627L653.57 36.699C653.364 36.5708 653.19 36.4012 653.06 36.2022C652.93 36.0032 652.848 35.7797 652.82 35.5475C652.791 35.3152 652.817 35.0798 652.895 34.8579C652.973 34.6361 653.101 34.4331 653.271 34.2633L655.395 32.1388C655.627 31.9059 655.927 31.7445 656.257 31.6757C656.587 31.6068 656.931 31.6336 657.244 31.7527L672.994 37.6943L687.583 27.8236C688.266 27.3621 689.041 27.0397 689.862 26.8769C690.683 26.7142 691.53 26.7145 692.35 26.878C693.17 27.0414 693.946 27.3644 694.628 27.8264C695.31 28.2885 695.883 28.8796 696.311 29.5623C696.739 30.2451 697.013 31.0046 697.116 31.7928C697.218 32.5811 697.147 33.3809 696.906 34.1416C696.665 34.9023 696.26 35.6075 695.717 36.2124C695.174 36.8173 694.504 37.3088 693.75 37.6558L675.719 45.9532C674.608 46.4627 673.39 46.7267 672.156 46.7255Z" fill="#3F3D56"/>
<path d="M703.835 21.0535C705.406 21.405 707.302 21.6747 708.424 20.5758C708.623 20.3683 708.801 20.1435 708.955 19.9044L710.423 17.7809C711.548 16.1543 712.693 14.4853 713.169 12.5938C713.442 11.507 713.485 10.3794 713.294 9.27676C713.104 8.17408 712.684 7.11823 712.06 6.17053C711.435 5.22283 710.618 4.40218 709.655 3.75625C708.693 3.11032 707.605 2.65198 706.454 2.40786C704.262 1.94291 702.117 1.14293 699.876 1.28886C697.635 1.43478 695.007 1.38688 693.127 0.223145C693.244 0.741956 693.877 3.03429 693.877 3.03429C693.877 3.03429 691.05 5.49206 690.482 6.10491C691.225 5.79312 692.033 5.64673 692.844 5.67698C693.656 5.70724 694.449 5.91332 695.163 6.27941C695.877 6.6455 696.493 7.16184 696.964 7.78875C697.435 8.41566 697.747 9.13645 697.878 9.89573C698.039 10.8285 697.944 11.863 698.529 12.6286C699.086 13.3568 700.084 13.6119 700.922 14.0324C702.131 14.6849 703.054 15.7252 703.525 16.9658C703.996 18.2063 703.983 19.5653 703.49 20.7978L703.835 21.0535Z" fill="#2B3E33"/>
<path d="M692.777 75.5744H616.437C615.477 75.5734 614.557 75.2117 613.879 74.5689C613.2 73.926 612.818 73.0544 612.817 72.1453V35.3605C612.818 34.4514 613.2 33.5798 613.879 32.9369C614.557 32.294 615.477 31.9324 616.437 31.9314H692.777C693.737 31.9324 694.657 32.294 695.336 32.9369C696.014 33.5798 696.396 34.4514 696.397 35.3605V72.1453C696.396 73.0544 696.014 73.926 695.336 74.5689C694.657 75.2117 693.737 75.5733 692.777 75.5744Z" fill="#CCCCCC"/>
<path d="M691.901 73.0806H617.315C616.82 73.0801 616.347 72.8938 615.997 72.5627C615.647 72.2315 615.451 71.7825 615.45 71.3141V36.1918C615.451 35.7235 615.647 35.2744 615.997 34.9433C616.347 34.6121 616.82 34.4258 617.315 34.4253H691.901C692.395 34.4258 692.869 34.6121 693.218 34.9433C693.568 35.2744 693.765 35.7235 693.765 36.1918V71.3141C693.765 71.7825 693.568 72.2315 693.218 72.5627C692.869 72.8938 692.395 73.0801 691.901 73.0806Z" fill="white"/>
<path d="M687.581 81.9482L679.192 74.0015L689.947 74.259V81.0198C689.95 81.2801 689.869 81.5351 689.717 81.7516C689.564 81.968 689.346 82.1357 689.091 82.2328C688.92 82.3005 688.737 82.3357 688.552 82.3361C688.371 82.3356 688.192 82.301 688.025 82.2344C687.859 82.1678 687.707 82.0705 687.581 81.9482Z" fill="#CCCCCC"/>
<path d="M682.819 52.1777H645.087C644.622 52.1777 644.175 52.0026 643.846 51.6908C643.517 51.379 643.332 50.9561 643.332 50.5151C643.332 50.0742 643.517 49.6513 643.846 49.3395C644.175 49.0277 644.622 48.8525 645.087 48.8525H682.819C683.284 48.8525 683.73 49.0277 684.059 49.3395C684.389 49.6513 684.573 50.0742 684.573 50.5151C684.573 50.9561 684.389 51.379 684.059 51.6908C683.73 52.0026 683.284 52.1777 682.819 52.1777Z" fill="#CCCCCC"/>
<path d="M670.533 45.1121H645.087C644.856 45.1124 644.627 45.0696 644.414 44.9862C644.201 44.9028 644.007 44.7804 643.844 44.626C643.681 44.4715 643.551 44.2881 643.463 44.0863C643.375 43.8844 643.329 43.668 643.329 43.4495C643.329 43.2309 643.375 43.0145 643.463 42.8127C643.551 42.6108 643.681 42.4274 643.844 42.273C644.007 42.1186 644.201 41.9961 644.414 41.9127C644.627 41.8293 644.856 41.7865 645.087 41.7869H670.533C670.999 41.7869 671.445 41.962 671.774 42.2738C672.103 42.5856 672.288 43.0085 672.288 43.4495C672.288 43.8904 672.103 44.3133 671.774 44.6251C671.445 44.9369 670.999 45.1121 670.533 45.1121Z" fill="#CCCCCC"/>
<path d="M629.468 52.1781C632.497 52.1781 634.952 49.8519 634.952 46.9825C634.952 44.113 632.497 41.7869 629.468 41.7869C626.439 41.7869 623.983 44.113 623.983 46.9825C623.983 49.8519 626.439 52.1781 629.468 52.1781Z" fill="#64D4AB"/>
<path d="M671.19 65.719C672.16 65.719 672.945 64.9746 672.945 64.0564C672.945 63.1382 672.16 62.3938 671.19 62.3938C670.221 62.3938 669.436 63.1382 669.436 64.0564C669.436 64.9746 670.221 65.719 671.19 65.719Z" fill="#E6E6E6"/>
<path d="M677.333 65.719C678.302 65.719 679.088 64.9746 679.088 64.0564C679.088 63.1382 678.302 62.3938 677.333 62.3938C676.364 62.3938 675.578 63.1382 675.578 64.0564C675.578 64.9746 676.364 65.719 677.333 65.719Z" fill="#E6E6E6"/>
<path d="M683.477 65.719C684.446 65.719 685.232 64.9746 685.232 64.0564C685.232 63.1382 684.446 62.3938 683.477 62.3938C682.507 62.3938 681.722 63.1382 681.722 64.0564C681.722 64.9746 682.507 65.719 683.477 65.719Z" fill="#E6E6E6"/>
<path d="M691.595 71.2C691.656 70.681 691.836 70.1808 692.122 69.7348C692.409 69.2887 692.796 68.9077 693.255 68.6185C693.714 68.3292 694.234 68.1389 694.779 68.0607C695.324 67.9826 695.88 68.0187 696.409 68.1664L704.202 57.8398L706.702 63.9969L698.918 72.8592C698.597 73.6843 697.968 74.3692 697.15 74.7842C696.332 75.1993 695.381 75.3155 694.479 75.111C693.576 74.9065 692.784 74.3954 692.252 73.6746C691.721 72.9538 691.487 72.0733 691.595 71.2Z" fill="#A0616A"/>
<path d="M700.522 70.6428C700.4 70.6525 700.276 70.6496 700.154 70.6341C699.91 70.6031 699.675 70.5214 699.467 70.395C699.26 70.2685 699.084 70.1003 698.953 69.9023L697.306 67.4269C697.124 67.1566 697.034 66.8409 697.045 66.521C697.056 66.201 697.169 65.8918 697.369 65.6335L707.344 52.6483L700.86 36.8133C700.281 35.42 700.303 33.867 700.921 32.4888C701.539 31.1107 702.704 30.0179 704.165 29.4459C704.99 29.1179 705.882 28.9673 706.776 29.0049C707.67 29.0425 708.545 29.2674 709.336 29.6633C710.128 30.0592 710.817 30.6164 711.354 31.2947C711.891 31.9731 712.262 32.7557 712.442 33.5864L716.465 52.1914C716.744 53.5035 716.662 54.8618 716.225 56.1348C715.788 57.4078 715.012 58.5523 713.971 59.4576L701.518 70.2303C701.243 70.4684 700.893 70.6134 700.522 70.6428Z" fill="#3F3D56"/>
<path d="M721.453 142.195H642.334C642.235 142.195 642.139 142.158 642.069 142.091C641.998 142.025 641.959 141.934 641.959 141.84C641.959 141.746 641.998 141.656 642.069 141.589C642.139 141.522 642.235 141.485 642.334 141.485H721.453C721.553 141.485 721.648 141.522 721.719 141.589C721.789 141.656 721.828 141.746 721.828 141.84C721.828 141.934 721.789 142.025 721.719 142.091C721.648 142.158 721.553 142.195 721.453 142.195Z" fill="#CCCCCC"/>
<path d="M462.204 53.7846H385.864C384.904 53.7836 383.984 53.422 383.305 52.7791C382.627 52.1362 382.245 51.2646 382.244 50.3555V13.5707C382.245 12.6616 382.627 11.79 383.305 11.1471C383.984 10.5042 384.904 10.1426 385.864 10.1416H462.204C463.164 10.1426 464.084 10.5042 464.763 11.1471C465.441 11.79 465.823 12.6616 465.824 13.5707V50.3555C465.823 51.2646 465.441 52.1362 464.762 52.7791C464.084 53.422 463.164 53.7836 462.204 53.7846Z" fill="#CCCCCC"/>
<path d="M461.326 51.2908H386.741C386.246 51.2903 385.772 51.104 385.423 50.7729C385.073 50.4417 384.877 49.9927 384.876 49.5243V14.402C384.877 13.9337 385.073 13.4846 385.423 13.1535C385.772 12.8223 386.246 12.636 386.741 12.6355H461.326C461.821 12.636 462.295 12.8223 462.644 13.1535C462.994 13.4846 463.19 13.9337 463.191 14.402V49.5243C463.19 49.9927 462.994 50.4417 462.644 50.7729C462.295 51.104 461.821 51.2903 461.326 51.2908Z" fill="white"/>
<path d="M457.007 60.1584L448.619 52.2117L459.373 52.4692V59.23C459.376 59.4903 459.296 59.7453 459.143 59.9618C458.991 60.1782 458.773 60.346 458.518 60.443C458.347 60.5108 458.164 60.5459 457.979 60.5463C457.798 60.5458 457.619 60.5112 457.452 60.4446C457.285 60.378 457.134 60.2807 457.007 60.1584Z" fill="#CCCCCC"/>
<path d="M452.245 30.3879H414.514C414.048 30.3879 413.602 30.2128 413.273 29.901C412.944 29.5892 412.759 29.1663 412.759 28.7253C412.759 28.2844 412.944 27.8615 413.273 27.5497C413.602 27.2379 414.048 27.0627 414.514 27.0627H452.245C452.711 27.0627 453.157 27.2379 453.486 27.5497C453.815 27.8615 454 28.2844 454 28.7253C454 29.1663 453.815 29.5892 453.486 29.901C453.157 30.2128 452.711 30.3879 452.245 30.3879Z" fill="#CCCCCC"/>
<path d="M439.961 23.322H414.514C414.048 23.322 413.602 23.1469 413.273 22.8351C412.944 22.5233 412.759 22.1004 412.759 21.6594C412.759 21.2185 412.944 20.7956 413.273 20.4838C413.602 20.172 414.048 19.9968 414.514 19.9968H439.961C440.426 19.9968 440.872 20.172 441.202 20.4838C441.531 20.7956 441.716 21.2185 441.716 21.6594C441.716 22.1004 441.531 22.5233 441.202 22.8351C440.872 23.1469 440.426 23.322 439.961 23.322Z" fill="#CCCCCC"/>
<path d="M398.894 30.388C401.923 30.388 404.379 28.0619 404.379 25.1924C404.379 22.323 401.923 19.9968 398.894 19.9968C395.866 19.9968 393.41 22.323 393.41 25.1924C393.41 28.0619 395.866 30.388 398.894 30.388Z" fill="#64D4AB"/>
<path d="M440.617 43.9294C441.586 43.9294 442.372 43.1851 442.372 42.2668C442.372 41.3486 441.586 40.6042 440.617 40.6042C439.648 40.6042 438.862 41.3486 438.862 42.2668C438.862 43.1851 439.648 43.9294 440.617 43.9294Z" fill="#E6E6E6"/>
<path d="M446.76 43.9294C447.729 43.9294 448.515 43.1851 448.515 42.2668C448.515 41.3486 447.729 40.6042 446.76 40.6042C445.791 40.6042 445.005 41.3486 445.005 42.2668C445.005 43.1851 445.791 43.9294 446.76 43.9294Z" fill="#E6E6E6"/>
<path d="M452.902 43.9294C453.872 43.9294 454.657 43.1851 454.657 42.2668C454.657 41.3486 453.872 40.6042 452.902 40.6042C451.933 40.6042 451.147 41.3486 451.147 42.2668C451.147 43.1851 451.933 43.9294 452.902 43.9294Z" fill="#E6E6E6"/>
<path d="M459.039 6.6072C458.52 6.78409 458.049 7.06656 457.658 7.43472C457.267 7.80288 456.966 8.24777 456.776 8.73806C456.586 9.22834 456.512 9.7521 456.559 10.2724C456.606 10.7928 456.773 11.297 457.048 11.7497L448.266 21.3376L455.168 22.2039L462.45 12.9663C463.222 12.4783 463.778 11.7391 464.013 10.8885C464.248 10.038 464.146 9.13528 463.726 8.35145C463.305 7.56761 462.596 6.95712 461.732 6.63564C460.868 6.31417 459.91 6.30405 459.039 6.6072Z" fill="#FFB8B8"/>
<path d="M400.401 10.4458C400.589 10.9369 400.66 11.461 400.61 11.9811C400.561 12.5012 400.391 13.0047 400.114 13.4561C399.837 13.9075 399.459 14.2958 399.006 14.5937C398.553 14.8916 398.037 15.0918 397.494 15.1802L395.308 27.7047L390.198 23.2235L393.057 12.0171C392.961 11.1426 393.206 10.265 393.747 9.55061C394.288 8.83622 395.087 8.33466 395.992 8.14097C396.898 7.94728 397.847 8.07492 398.659 8.49971C399.472 8.92449 400.092 9.61692 400.401 10.4458Z" fill="#FFB8B8"/>
<path d="M414.126 137.119L418.723 137.119L420.91 120.321L414.125 120.321L414.126 137.119Z" fill="#FFB8B8"/>
<path d="M412.953 135.697L422.006 135.697H422.007C422.764 135.697 423.515 135.838 424.215 136.113C424.915 136.388 425.551 136.79 426.086 137.298C426.622 137.805 427.047 138.408 427.337 139.071C427.627 139.734 427.776 140.445 427.776 141.163V141.34L412.953 141.341L412.953 135.697Z" fill="#2B3E33"/>
<path d="M390.503 137.119L395.1 137.119L397.287 120.321L390.502 120.321L390.503 137.119Z" fill="#FFB8B8"/>
<path d="M389.33 135.697L398.383 135.697H398.384C399.141 135.697 399.892 135.838 400.592 136.113C401.292 136.388 401.928 136.79 402.463 137.298C402.999 137.805 403.424 138.408 403.714 139.071C404.004 139.734 404.153 140.445 404.153 141.163V141.34L389.33 141.341L389.33 135.697Z" fill="#2B3E33"/>
<path d="M413.166 22.4285C418.252 22.4285 422.376 18.5222 422.376 13.7035C422.376 8.88483 418.252 4.97852 413.166 4.97852C408.079 4.97852 403.956 8.88483 403.956 13.7035C403.956 18.5222 408.079 22.4285 413.166 22.4285Z" fill="#FFB8B8"/>
<path d="M412.062 131.539L411.301 85.5685C411.299 85.4386 411.247 85.3138 411.155 85.2176C411.062 85.1215 410.936 85.0606 410.8 85.0464C410.663 85.0323 410.526 85.0658 410.414 85.1408C410.302 85.2157 410.223 85.3269 410.191 85.4533L397.708 130.418C397.614 130.778 397.393 131.096 397.081 131.32C396.769 131.544 396.385 131.659 395.994 131.647L389.136 131.369C388.903 131.36 388.674 131.304 388.464 131.207C388.255 131.109 388.069 130.972 387.919 130.803C387.768 130.634 387.656 130.437 387.59 130.225C387.524 130.013 387.505 129.791 387.534 129.571L398.126 71.7888L398.148 71.6257L427.652 72.9482L427.844 72.9565L421.517 131.635C421.484 132.036 421.293 132.412 420.981 132.686C420.669 132.96 420.26 133.113 419.835 133.115H413.749C413.307 133.113 412.882 132.947 412.567 132.653C412.251 132.358 412.07 131.958 412.062 131.539Z" fill="#2B3E33"/>
<path d="M435.365 76.842L392.551 73.5133C392.293 73.4933 392.043 73.4171 391.821 73.2906C391.598 73.1642 391.41 72.9909 391.27 72.7842C391.129 72.5775 391.041 72.343 391.013 72.0989C390.984 71.8548 391.014 71.6077 391.103 71.3767L397.845 53.7172L398.233 32.7572C398.247 31.9963 398.42 31.2457 398.743 30.5488C399.066 29.8519 399.531 29.2227 400.113 28.6975C400.694 28.1724 401.38 27.7619 402.13 27.4898C402.88 27.2176 403.68 27.0893 404.482 27.1123L407.33 24.6672H417.761L418.67 25.7954L425.928 26.8521C427.221 27.0454 428.414 27.6275 429.331 28.5123C430.248 29.3972 430.84 30.5379 431.02 31.7661L437.175 75.0356C437.207 75.2613 437.188 75.4909 437.119 75.709C437.049 75.9272 436.932 76.1287 436.774 76.3003C436.616 76.4719 436.421 76.6094 436.202 76.7038C435.983 76.7982 435.745 76.8472 435.505 76.8475C435.458 76.8475 435.412 76.8458 435.365 76.842Z" fill="#2B3E33"/>
<path d="M427.023 28.8841L445.279 23.8171L453.54 13.5124C453.768 13.2286 454.089 13.0249 454.452 12.9338C454.816 12.8426 455.201 12.8692 455.547 13.0094L460.705 15.0981C460.925 15.1872 461.123 15.3195 461.285 15.4863C461.446 15.6531 461.569 15.8506 461.644 16.0657C461.719 16.2808 461.745 16.5086 461.72 16.734C461.696 16.9593 461.62 17.1771 461.5 17.3728L455.326 27.4104C454.321 29.0524 452.79 30.349 450.956 31.113L429.485 40.105L427.023 28.8841Z" fill="#2B3E33"/>
<path d="M392 36.4638C390.909 35.7192 390.039 34.7209 389.474 33.5651C388.908 32.4093 388.667 31.135 388.773 29.8652L389.575 19.8092C389.608 19.4076 389.799 19.0325 390.111 18.7585C390.423 18.4846 390.832 18.332 391.257 18.3311H391.272L397.321 18.3821C397.569 18.3842 397.813 18.438 398.037 18.5397C398.26 18.6413 398.457 18.7884 398.614 18.9703C398.77 19.1522 398.883 19.3646 398.943 19.5923C399.003 19.8201 399.01 20.0576 398.962 20.288L397.84 25.713L405.849 28.9191L399.105 41.35L392 36.4638Z" fill="#2B3E33"/>
<path d="M418.524 3.24119C418.524 3.24119 408.893 -1.67181 403.643 4.12659C398.393 9.92498 405.643 18.9924 405.643 18.9924L415.973 20.2266C415.973 20.2266 416.348 13.5743 418.807 13.7034C421.267 13.8326 428.905 5.43833 418.524 3.24119Z" fill="#2B3E33"/>
<path d="M445.474 141.84H366.354C366.255 141.84 366.16 141.802 366.089 141.736C366.019 141.669 365.979 141.579 365.979 141.484C365.979 141.39 366.019 141.3 366.089 141.233C366.16 141.167 366.255 141.129 366.354 141.129H445.474C445.573 141.129 445.669 141.167 445.739 141.233C445.809 141.3 445.849 141.39 445.849 141.484C445.849 141.579 445.809 141.669 445.739 141.736C445.669 141.802 445.573 141.84 445.474 141.84Z" fill="#CCCCCC"/>
</g>
<g clip-path="url(#clip2_26_704)">
<path d="M73.0634 271.733H52.0363C50.0148 271.735 48.0766 272.516 46.6471 273.906C45.2177 275.296 44.4138 277.18 44.412 279.146V301.31C44.1432 301.294 43.8743 301.271 43.6094 301.24C38.6279 300.73 33.8919 298.878 29.9353 295.891C25.9787 292.905 22.9589 288.903 21.2164 284.337C19.4739 279.771 19.0779 274.823 20.0732 270.05C21.0684 265.278 23.4153 260.87 26.8492 257.324C30.283 253.779 34.6674 251.237 39.5079 249.984C44.3484 248.732 49.4525 248.819 54.2448 250.236C59.0371 251.653 63.327 254.343 66.6307 258.004C69.9345 261.664 72.1208 266.149 72.9431 270.953C72.9872 271.21 73.0274 271.472 73.0634 271.733Z" fill="#F2F2F2"/>
<path d="M321.296 270.953H52.0363C49.8021 270.955 47.6601 271.819 46.0803 273.355C44.5004 274.891 43.6118 276.974 43.6094 279.146V417.255C43.6118 419.428 44.5004 421.51 46.0803 423.046C47.6601 424.582 49.8021 425.446 52.0363 425.448H321.296C323.53 425.446 325.672 424.582 327.252 423.046C328.832 421.51 329.72 419.428 329.723 417.255V279.146C329.72 276.974 328.832 274.891 327.252 273.355C325.672 271.819 323.53 270.955 321.296 270.953ZM328.92 417.255C328.918 419.221 328.115 421.105 326.685 422.495C325.256 423.885 323.317 424.666 321.296 424.668H52.0363C50.0147 424.666 48.0765 423.885 46.6471 422.495C45.2176 421.105 44.4138 419.221 44.4119 417.255V279.146C44.4138 277.18 45.2176 275.296 46.6471 273.906C48.0765 272.516 50.0147 271.735 52.0363 271.733H321.296C323.317 271.735 325.256 272.516 326.685 273.906C328.115 275.296 328.918 277.18 328.92 279.146V417.255Z" fill="#3F3D56"/>
<path d="M308.055 293.335H65.2792C65.1728 293.335 65.0707 293.294 64.9955 293.221C64.9202 293.148 64.8779 293.048 64.8779 292.945C64.8779 292.841 64.9202 292.742 64.9955 292.669C65.0707 292.596 65.1728 292.555 65.2792 292.555H308.055C308.161 292.555 308.264 292.596 308.339 292.669C308.414 292.742 308.456 292.841 308.456 292.945C308.456 293.048 308.414 293.148 308.339 293.221C308.264 293.294 308.161 293.335 308.055 293.335Z" fill="#3F3D56"/>
<path d="M133.898 408.673C133.792 408.673 133.69 408.632 133.615 408.558C133.539 408.485 133.497 408.386 133.497 408.283V279.926C133.497 279.823 133.539 279.723 133.615 279.65C133.69 279.577 133.792 279.536 133.898 279.536C134.005 279.536 134.107 279.577 134.182 279.65C134.257 279.723 134.3 279.823 134.3 279.926V408.283C134.3 408.386 134.257 408.485 134.182 408.558C134.107 408.632 134.005 408.673 133.898 408.673Z" fill="#3F3D56"/>
<path d="M194.491 408.673C194.385 408.673 194.283 408.632 194.207 408.558C194.132 408.485 194.09 408.386 194.09 408.283V279.926C194.09 279.823 194.132 279.723 194.207 279.65C194.283 279.577 194.385 279.536 194.491 279.536C194.598 279.536 194.7 279.577 194.775 279.65C194.85 279.723 194.892 279.823 194.892 279.926V408.283C194.892 408.386 194.85 408.485 194.775 408.558C194.7 408.632 194.598 408.673 194.491 408.673Z" fill="#3F3D56"/>
<path d="M255.085 408.673C254.978 408.673 254.876 408.632 254.801 408.558C254.726 408.485 254.684 408.386 254.684 408.283V279.926C254.684 279.823 254.726 279.723 254.801 279.65C254.876 279.577 254.978 279.536 255.085 279.536C255.191 279.536 255.293 279.577 255.369 279.65C255.444 279.723 255.486 279.823 255.486 279.926V408.283C255.486 408.386 255.444 408.485 255.369 408.558C255.293 408.632 255.191 408.673 255.085 408.673Z" fill="#3F3D56"/>
<path d="M94.9402 333.604H80.2774C79.7987 333.604 79.3397 333.419 79.0012 333.09C78.6626 332.761 78.4722 332.314 78.4717 331.849V315.026C78.4722 314.561 78.6626 314.114 79.0012 313.785C79.3397 313.456 79.7987 313.271 80.2774 313.271H94.9402C95.419 313.271 95.878 313.456 96.2165 313.785C96.555 314.114 96.7455 314.561 96.746 315.026V331.849C96.7455 332.314 96.555 332.761 96.2165 333.09C95.878 333.419 95.419 333.604 94.9402 333.604Z" fill="#64D4AB"/>
<path d="M115.806 381.592H101.144C100.665 381.591 100.206 381.406 99.8674 381.077C99.5288 380.748 99.3384 380.301 99.3379 379.836V363.013C99.3384 362.548 99.5288 362.101 99.8674 361.772C100.206 361.443 100.665 361.258 101.144 361.258H115.806C116.285 361.258 116.744 361.443 117.083 361.772C117.421 362.101 117.612 362.548 117.612 363.013V379.836C117.612 380.301 117.421 380.748 117.083 381.077C116.744 381.406 116.285 381.591 115.806 381.592Z" fill="#64D4AB"/>
<path d="M163.158 343.748H148.495C148.016 343.748 147.557 343.563 147.219 343.233C146.88 342.904 146.69 342.458 146.689 341.993V325.17C146.69 324.704 146.88 324.258 147.219 323.929C147.557 323.6 148.016 323.415 148.495 323.414H163.158C163.637 323.415 164.096 323.6 164.434 323.929C164.773 324.258 164.963 324.704 164.964 325.17V341.993C164.963 342.458 164.773 342.904 164.434 343.233C164.096 343.563 163.637 343.748 163.158 343.748Z" fill="#64D4AB"/>
<path d="M224.554 325.411H209.891C209.412 325.411 208.953 325.226 208.614 324.897C208.276 324.567 208.086 324.121 208.085 323.656V306.833C208.086 306.368 208.276 305.921 208.614 305.592C208.953 305.263 209.412 305.078 209.891 305.077H224.554C225.032 305.078 225.491 305.263 225.83 305.592C226.168 305.921 226.359 306.368 226.359 306.833V323.656C226.359 324.121 226.168 324.567 225.83 324.897C225.491 325.226 225.032 325.411 224.554 325.411Z" fill="#64D4AB"/>
<path d="M281.135 325.411H266.472C265.993 325.411 265.534 325.226 265.195 324.897C264.857 324.567 264.667 324.121 264.666 323.656V306.833C264.667 306.368 264.857 305.921 265.195 305.592C265.534 305.263 265.993 305.078 266.472 305.077H281.135C281.613 305.078 282.072 305.263 282.411 305.592C282.749 305.921 282.94 306.368 282.94 306.833V323.656C282.94 324.121 282.749 324.567 282.411 324.897C282.072 325.226 281.613 325.411 281.135 325.411Z" fill="#64D4AB"/>
<path d="M307.219 330.093H292.556C292.077 330.093 291.618 329.908 291.279 329.578C290.941 329.249 290.751 328.803 290.75 328.338V311.515C290.751 311.049 290.941 310.603 291.279 310.274C291.618 309.945 292.077 309.76 292.556 309.759H307.219C307.697 309.76 308.156 309.945 308.495 310.274C308.833 310.603 309.024 311.049 309.024 311.515V328.338C309.024 328.803 308.833 329.249 308.495 329.578C308.156 329.908 307.697 330.093 307.219 330.093Z" fill="#E6E6E6"/>
<path d="M295.581 360.134H280.918C280.439 360.134 279.98 359.949 279.642 359.619C279.303 359.29 279.113 358.844 279.112 358.379V341.556C279.113 341.09 279.303 340.644 279.642 340.315C279.98 339.986 280.439 339.801 280.918 339.8H295.581C296.06 339.801 296.519 339.986 296.857 340.315C297.196 340.644 297.386 341.09 297.387 341.556V358.379C297.386 358.844 297.196 359.29 296.857 359.619C296.519 359.949 296.06 360.134 295.581 360.134Z" fill="#E6E6E6"/>
<path d="M245.821 353.892H231.158C230.68 353.891 230.221 353.706 229.882 353.377C229.543 353.048 229.353 352.602 229.353 352.136V335.313C229.353 334.848 229.543 334.402 229.882 334.073C230.221 333.744 230.68 333.558 231.158 333.558H245.821C246.3 333.558 246.759 333.744 247.097 334.073C247.436 334.402 247.626 334.848 247.627 335.313V352.136C247.626 352.602 247.436 353.048 247.097 353.377C246.759 353.706 246.3 353.891 245.821 353.892Z" fill="#E8FBB3"/>
<path d="M217.33 360.134H202.667C202.188 360.134 201.729 359.949 201.391 359.619C201.052 359.29 200.862 358.844 200.861 358.379V341.556C200.862 341.09 201.052 340.644 201.391 340.315C201.729 339.986 202.188 339.801 202.667 339.8H217.33C217.809 339.801 218.268 339.986 218.606 340.315C218.945 340.644 219.135 341.09 219.136 341.556V358.379C219.135 358.844 218.945 359.29 218.606 359.619C218.268 359.949 217.809 360.134 217.33 360.134Z" fill="#E6E6E6"/>
<path d="M155.934 386.664H141.272C140.793 386.663 140.334 386.478 139.995 386.149C139.657 385.82 139.466 385.374 139.466 384.908V368.086C139.466 367.62 139.657 367.174 139.995 366.845C140.334 366.516 140.793 366.331 141.272 366.33H155.934C156.413 366.331 156.872 366.516 157.211 366.845C157.549 367.174 157.74 367.62 157.74 368.086V384.908C157.74 385.374 157.549 385.82 157.211 386.149C156.872 386.478 156.413 386.663 155.934 386.664Z" fill="#E6E6E6"/>
<path d="M81.6971 364.426H67.0343C66.5555 364.425 66.0965 364.24 65.758 363.911C65.4195 363.582 65.229 363.136 65.2285 362.67V345.847C65.229 345.382 65.4195 344.936 65.758 344.607C66.0965 344.277 66.5555 344.092 67.0343 344.092H81.6971C82.1758 344.092 82.6348 344.277 82.9734 344.607C83.3119 344.936 83.5023 345.382 83.5028 345.847V362.67C83.5023 363.136 83.3119 363.582 82.9734 363.911C82.6348 364.24 82.1758 364.425 81.6971 364.426Z" fill="#E8FBB3"/>
<path d="M123.029 333.604H108.366C107.888 333.604 107.429 333.419 107.09 333.09C106.752 332.761 106.561 332.314 106.561 331.849V315.026C106.561 314.561 106.752 314.114 107.09 313.785C107.429 313.456 107.888 313.271 108.366 313.271H123.029C123.508 313.271 123.967 313.456 124.305 313.785C124.644 314.114 124.834 314.561 124.835 315.026V331.849C124.834 332.314 124.644 332.761 124.305 333.09C123.967 333.419 123.508 333.604 123.029 333.604Z" fill="#E6E6E6"/>
<path d="M111.025 286.949H88.152C87.7263 286.949 87.318 286.784 87.017 286.492C86.716 286.199 86.5469 285.802 86.5469 285.388C86.5469 284.974 86.716 284.577 87.017 284.285C87.318 283.992 87.7263 283.828 88.152 283.828H111.025C111.451 283.828 111.859 283.992 112.16 284.285C112.461 284.577 112.63 284.974 112.63 285.388C112.63 285.802 112.461 286.199 112.16 286.492C111.859 286.784 111.451 286.949 111.025 286.949Z" fill="#CCCCCC"/>
<path d="M175.631 286.949H152.757C152.332 286.949 151.923 286.784 151.622 286.492C151.321 286.199 151.152 285.802 151.152 285.388C151.152 284.974 151.321 284.577 151.622 284.285C151.923 283.992 152.332 283.828 152.757 283.828H175.631C176.056 283.828 176.464 283.992 176.765 284.285C177.067 284.577 177.236 284.974 177.236 285.388C177.236 285.802 177.067 286.199 176.765 286.492C176.464 286.784 176.056 286.949 175.631 286.949Z" fill="#CCCCCC"/>
<path d="M236.224 286.949H213.351C212.926 286.949 212.517 286.784 212.216 286.492C211.915 286.199 211.746 285.802 211.746 285.388C211.746 284.974 211.915 284.577 212.216 284.285C212.517 283.992 212.926 283.828 213.351 283.828H236.224C236.65 283.828 237.058 283.992 237.359 284.285C237.66 284.577 237.829 284.974 237.829 285.388C237.829 285.802 237.66 286.199 237.359 286.492C237.058 286.784 236.65 286.949 236.224 286.949Z" fill="#CCCCCC"/>
<path d="M292.805 286.949H269.932C269.507 286.949 269.098 286.784 268.797 286.492C268.496 286.199 268.327 285.802 268.327 285.388C268.327 284.974 268.496 284.577 268.797 284.285C269.098 283.992 269.507 283.828 269.932 283.828H292.805C293.231 283.828 293.639 283.992 293.94 284.285C294.241 284.577 294.41 284.974 294.41 285.388C294.41 285.802 294.241 286.199 293.94 286.492C293.639 286.784 293.231 286.949 292.805 286.949Z" fill="#CCCCCC"/>
<path d="M59.7947 401.217C59.2076 401.161 58.6403 400.981 58.1326 400.689C57.625 400.396 57.1894 400 56.8565 399.526C56.5237 399.053 56.3017 398.514 56.2061 397.948C56.1106 397.382 56.1439 396.803 56.3036 396.25L46.0176 386.941L51.456 385.6L61.5706 393.576C62.5069 393.898 63.289 394.543 63.7687 395.389C64.2484 396.234 64.3925 397.221 64.1736 398.163C63.9547 399.105 63.388 399.936 62.581 400.499C61.7739 401.062 60.7826 401.317 59.7947 401.217Z" fill="#FFB8B8"/>
<path d="M73.9979 470.023H78.9176L81.2579 451.574H73.9971L73.9979 470.023Z" fill="#FFB8B8"/>
<path d="M88.4053 474.464L72.9437 474.465L72.9434 468.657L82.4312 468.657C84.0155 468.657 85.535 469.268 86.6554 470.358C87.7758 471.447 88.4052 472.924 88.4053 474.464Z" fill="#2B3E33"/>
<path d="M40.2666 466.57L45.021 467.8L52.1642 450.558L45.1478 448.742L40.2666 466.57Z" fill="#FFB8B8"/>
<path d="M53.0146 474.466L38.0733 470.599L39.6099 464.987L48.7784 467.359C50.3095 467.756 51.6159 468.727 52.4104 470.06C53.2048 471.392 53.4222 472.977 53.0146 474.466Z" fill="#2B3E33"/>
<path d="M80.2404 466.529H72.7335C72.2593 466.531 71.8017 466.36 71.4507 466.05C71.0997 465.74 70.8808 465.314 70.837 464.855L66.2799 418.845C66.2465 418.507 66.0935 418.192 65.8471 417.952C65.6007 417.712 65.2762 417.563 64.9291 417.53C64.582 417.497 64.2339 417.582 63.9445 417.771C63.655 417.96 63.442 418.241 63.3421 418.566L50.1105 461.559C49.9706 462.016 49.6546 462.403 49.2284 462.639C48.8023 462.875 48.2989 462.942 47.8232 462.825L40.8397 461.128C40.596 461.068 40.3667 460.963 40.1651 460.817C39.9634 460.672 39.7934 460.489 39.6649 460.279C39.5363 460.069 39.4517 459.836 39.4159 459.595C39.3801 459.353 39.3939 459.107 39.4564 458.87C39.5704 458.437 50.857 415.553 50.9556 415.113C53.5129 396.789 56.5723 391.878 58.216 389.241C58.352 389.022 58.4771 388.822 58.5896 388.632C58.7305 388.395 59.5978 386.04 60.148 384.51C60.2195 384.261 60.3432 384.03 60.5114 383.83C60.6796 383.63 60.8885 383.466 61.1251 383.349C68.0315 379.915 76.1119 382.292 78.424 383.102C78.8073 383.233 79.1365 383.482 79.3622 383.81C86.2982 393.982 82.8944 453.057 82.1416 464.796C82.1103 465.266 81.8963 465.706 81.5433 466.028C81.1902 466.35 80.7244 466.529 80.2404 466.529Z" fill="#2B3E33"/>
<path d="M60.8676 349.99C66.3108 349.99 70.7234 345.7 70.7234 340.407C70.7234 335.115 66.3108 330.825 60.8676 330.825C55.4243 330.825 51.0117 335.115 51.0117 340.407C51.0117 345.7 55.4243 349.99 60.8676 349.99Z" fill="#FFB8B8"/>
<path d="M59.8239 386.371L59.753 386.305C59.6202 386.18 46.4884 373.672 48.1879 362.106C48.9147 357.16 53.0315 353.999 60.093 352.965C62.6872 352.591 65.3334 353.139 67.545 354.51C69.7567 355.88 71.3852 357.981 72.1313 360.425L79.1136 383.632L59.8239 386.371Z" fill="#CCCCCC"/>
<path d="M53.1026 395.267L43.7454 386.227C43.1056 385.606 42.6411 384.834 42.3965 383.988C42.152 383.141 42.1356 382.247 42.349 381.393L46.8789 363.478C47.0146 362.941 47.2622 362.437 47.6063 361.997C47.9504 361.557 48.3838 361.19 48.8796 360.92C49.3753 360.649 49.923 360.48 50.4886 360.424C51.0542 360.367 51.6257 360.424 52.1677 360.591C53.2009 360.914 54.064 361.617 54.574 362.548C55.084 363.48 55.2009 364.568 54.9001 365.582L50.1311 381.342L57.843 389.394L53.1026 395.267Z" fill="#CCCCCC"/>
<path d="M103.291 364.416C103.044 364.937 102.682 365.398 102.231 365.768C101.781 366.138 101.252 366.408 100.683 366.558C100.113 366.707 99.5168 366.734 98.9356 366.636C98.3545 366.537 97.8026 366.316 97.3188 365.988L84.8271 372.282L85.3793 366.935L96.4534 360.272C97.0744 359.519 97.9582 359.013 98.9373 358.85C99.9163 358.688 100.923 358.88 101.766 359.391C102.608 359.902 103.229 360.696 103.51 361.622C103.792 362.548 103.714 363.542 103.291 364.416Z" fill="#FFB8B8"/>
<path d="M95.955 368.396L83.7776 373.512C82.9671 373.85 82.0808 373.979 81.204 373.888C80.3271 373.797 79.4892 373.487 78.7708 372.99L63.2858 362.203C62.8236 361.881 62.4343 361.47 62.142 360.996C61.8497 360.522 61.6606 359.995 61.5864 359.447C61.5121 358.899 61.5544 358.341 61.7104 357.81C61.8665 357.278 62.1332 356.784 62.4938 356.356C63.1869 355.544 64.178 355.026 65.2573 354.912C66.3366 354.797 67.4192 355.096 68.2757 355.745L81.5536 365.905L92.1074 361.935L95.955 368.396Z" fill="#CCCCCC"/>
<path d="M62.5018 343.477C63.7177 341.996 65.9892 341.917 67.6594 340.94C69.8471 339.66 70.7515 336.8 70.0465 334.414C69.3416 332.028 67.2624 330.169 64.8787 329.28C62.495 328.391 59.8429 328.38 57.3283 328.809C53.5842 329.45 49.8981 331.148 47.6147 334.103C45.3312 337.058 44.7501 341.386 46.8195 344.486C47.7707 345.911 49.2389 347.087 49.6187 348.745C50.1172 350.922 48.5467 353.021 46.8642 354.537C44.9474 356.264 42.7483 357.71 41.0689 359.657C39.3896 361.603 38.2698 364.263 39.0361 366.692C39.6781 368.727 41.5464 370.226 43.5952 370.977C45.6439 371.728 47.8752 371.837 50.0643 371.878C52.1899 371.919 54.4477 371.868 56.2384 370.754C58.1554 369.561 59.1789 367.298 59.2545 365.087C59.3301 362.875 58.57 360.708 57.5512 358.729C56.944 357.55 56.238 356.407 55.8345 355.148C55.431 353.889 55.3611 352.46 56.0072 351.3C56.6865 350.081 58.0606 349.346 59.4599 349.078C59.5326 349.065 59.6095 349.052 59.69 349.041C60.0881 348.991 60.4716 348.863 60.8173 348.664C61.163 348.466 61.4638 348.201 61.7013 347.887C61.9389 347.572 62.1084 347.214 62.1995 346.834C62.2906 346.454 62.3014 346.059 62.2314 345.675C62.072 344.811 62.0858 343.984 62.5018 343.477Z" fill="#2B3E33"/>
<path d="M193.911 470.432H188.992L186.651 451.983L193.912 451.983L193.911 470.432Z" fill="#A0616A"/>
<path d="M185.477 469.064H194.965V474.872H179.503C179.503 474.11 179.657 473.354 179.958 472.65C180.258 471.945 180.698 471.305 181.253 470.766C181.807 470.226 182.466 469.798 183.191 469.507C183.915 469.215 184.692 469.064 185.477 469.064Z" fill="#2B3E33"/>
<path d="M229.606 465.014L225.132 467.001L215.118 451.166L221.723 448.232L229.606 465.014Z" fill="#A0616A"/>
<path d="M221.351 467.177L229.981 463.344L232.463 468.627L218.399 474.873C218.073 474.179 217.891 473.43 217.863 472.667C217.835 471.905 217.961 471.145 218.235 470.43C218.51 469.716 218.926 469.061 219.46 468.502C219.995 467.944 220.637 467.494 221.351 467.177Z" fill="#2B3E33"/>
<path d="M215.28 408.226C215.752 407.881 216.139 407.44 216.416 406.934C216.694 406.428 216.853 405.868 216.884 405.296C216.914 404.723 216.815 404.15 216.594 403.619C216.372 403.087 216.034 402.609 215.602 402.219L221.385 389.461L214.038 390.672L209.673 402.601C209.046 403.35 208.723 404.297 208.767 405.261C208.81 406.226 209.215 407.142 209.906 407.835C210.598 408.529 211.526 408.951 212.517 409.024C213.507 409.096 214.491 408.812 215.28 408.226Z" fill="#A0616A"/>
<path d="M193.597 465.567H188.897C188.441 465.565 188.003 465.397 187.669 465.095C187.335 464.793 187.131 464.38 187.096 463.939L184.533 397.397C184.514 397.142 184.552 396.886 184.646 396.647C184.739 396.408 184.885 396.192 185.073 396.013C185.261 395.835 185.487 395.698 185.736 395.613C185.984 395.529 186.248 395.498 186.509 395.522L213.69 398.329C214.131 398.371 214.54 398.568 214.841 398.884C215.141 399.2 215.312 399.613 215.32 400.043L215.89 429.395C215.893 429.555 215.925 429.712 215.984 429.861L227.133 457.971C227.22 458.189 227.26 458.42 227.254 458.653C227.247 458.886 227.192 459.115 227.094 459.327C226.995 459.539 226.854 459.73 226.679 459.888C226.503 460.047 226.297 460.17 226.073 460.25L221.31 461.956C220.897 462.104 220.441 462.1 220.031 461.945C219.62 461.789 219.282 461.493 219.08 461.112L205.383 435.219C205.309 435.078 205.254 434.928 205.221 434.773L202.881 423.813C202.814 423.495 202.631 423.211 202.368 423.012C202.104 422.813 201.776 422.711 201.443 422.726C201.109 422.741 200.792 422.87 200.548 423.092C200.304 423.313 200.149 423.612 200.111 423.934L195.391 464.011C195.341 464.439 195.13 464.835 194.799 465.122C194.468 465.408 194.04 465.567 193.597 465.567Z" fill="#2B3E33"/>
<path d="M195.937 345.368C201.38 345.368 205.793 341.077 205.793 335.785C205.793 330.493 201.38 326.203 195.937 326.203C190.494 326.203 186.081 330.493 186.081 335.785C186.081 341.077 190.494 345.368 195.937 345.368Z" fill="#A0616A"/>
<path d="M202.696 403.481C196.012 403.41 189.488 401.488 183.887 397.942L183.791 397.878L183.801 397.765L187.571 355.077C187.701 353.629 188.366 352.276 189.443 351.267C190.52 350.259 191.936 349.663 193.429 349.591C198.315 349.373 204.878 349.648 208.391 352.192C213.701 356.037 216.26 361.826 215.412 368.076C213.654 381.036 215.645 398.518 215.878 400.469L215.895 400.609L215.763 400.668C211.67 402.52 207.21 403.48 202.696 403.481Z" fill="#64D4AB"/>
<path d="M215.833 400.541C215.556 400.541 215.281 400.484 215.027 400.375C214.772 400.266 214.544 400.107 214.356 399.908L212.2 397.622C211.967 397.373 211.804 397.07 211.726 396.743C211.648 396.415 211.658 396.074 211.755 395.751L216.671 379.574L209.192 364.303C208.842 363.588 208.757 362.778 208.949 362.009C209.119 361.334 209.495 360.725 210.028 360.262C210.561 359.799 211.226 359.504 211.935 359.416C212.644 359.328 213.364 359.451 213.999 359.769C214.635 360.086 215.157 360.584 215.495 361.196L225.646 377.208C226.058 377.857 226.3 378.596 226.35 379.357C226.401 380.119 226.258 380.881 225.935 381.577L217.664 399.393C217.528 399.687 217.319 399.944 217.055 400.14C216.791 400.336 216.481 400.465 216.153 400.516C216.047 400.533 215.94 400.541 215.833 400.541Z" fill="#64D4AB"/>
<path d="M146.362 369.64C146.835 369.982 147.38 370.22 147.958 370.335C148.536 370.451 149.133 370.441 149.706 370.308C150.28 370.175 150.817 369.921 151.279 369.565C151.741 369.208 152.117 368.758 152.381 368.244L166.601 370.037L163.333 363.527L150.33 362.822C149.414 362.449 148.389 362.415 147.449 362.728C146.509 363.04 145.72 363.677 145.231 364.518C144.742 365.358 144.587 366.344 144.795 367.288C145.004 368.232 145.561 369.069 146.362 369.64Z" fill="#A0616A"/>
<path d="M177.707 373.196C177.459 373.196 177.212 373.179 176.967 373.146L154.595 370.129C154.229 370.08 153.882 369.944 153.584 369.732C153.286 369.52 153.047 369.239 152.889 368.915C152.838 368.811 152.795 368.703 152.762 368.592C152.675 368.304 152.651 368.001 152.69 367.704C152.73 367.406 152.833 367.12 152.992 366.863L154.844 363.879C155.043 363.56 155.323 363.296 155.657 363.112C155.991 362.929 156.368 362.832 156.752 362.831H156.755L176.256 362.853L190.82 350.166C191.497 349.577 192.363 349.233 193.27 349.191C194.067 349.155 194.857 349.355 195.535 349.764C196.213 350.173 196.747 350.773 197.067 351.483C197.388 352.194 197.479 352.982 197.33 353.744C197.18 354.506 196.796 355.206 196.229 355.752L181.696 371.466C181.194 372.01 180.578 372.445 179.891 372.744C179.204 373.042 178.46 373.196 177.707 373.196Z" fill="#64D4AB"/>
<path d="M197.058 344.31C197.959 342.283 198.721 339.585 196.994 338.152C195.992 337.321 194.548 337.319 193.235 337.215C189.537 336.924 185.729 335.27 183.921 332.119C182.114 328.968 183.123 324.283 186.534 322.862C188.833 321.903 191.469 322.556 193.875 323.22L201.1 325.212C203.247 325.804 205.501 326.456 207.047 328.021C209.512 330.517 209.328 334.736 207.37 337.626C205.412 340.515 202.464 343.529 199.088 344.626L197.058 344.31Z" fill="#2B3E33"/>
<path d="M296.741 474.999H0.477232C0.41437 475 0.352092 474.988 0.293962 474.964C0.235833 474.941 0.183 474.907 0.138485 474.864C0.0939707 474.821 0.058651 474.769 0.0345526 474.713C0.0104542 474.656 -0.00195312 474.596 -0.00195312 474.535C-0.00195312 474.474 0.0104542 474.413 0.0345526 474.357C0.058651 474.3 0.0939707 474.249 0.138485 474.206C0.183 474.163 0.235833 474.129 0.293962 474.105C0.352092 474.082 0.41437 474.07 0.477232 474.07H296.741C296.803 474.07 296.866 474.082 296.924 474.105C296.982 474.129 297.035 474.163 297.079 474.206C297.124 474.249 297.159 474.3 297.183 474.357C297.207 474.413 297.22 474.474 297.22 474.535C297.22 474.596 297.207 474.656 297.183 474.713C297.159 474.769 297.124 474.821 297.079 474.864C297.035 474.907 296.982 474.941 296.924 474.964C296.866 474.988 296.803 475 296.741 474.999Z" fill="#3F3D56"/>
</g>
<g clip-path="url(#clip3_26_704)">
<path d="M517.617 381.774L450.391 396.138C448.448 396.55 446.423 396.165 444.76 395.066C443.097 393.968 441.932 392.245 441.521 390.277L429.985 334.8C429.577 332.831 429.957 330.778 431.041 329.092C432.125 327.407 433.825 326.226 435.766 325.809L502.993 311.445C504.936 311.032 506.961 311.417 508.624 312.516C510.286 313.615 511.451 315.337 511.863 317.306L523.399 372.783C523.806 374.752 523.426 376.804 522.342 378.49C521.258 380.176 519.559 381.357 517.617 381.774ZM435.948 326.682C434.235 327.05 432.735 328.092 431.779 329.58C430.823 331.067 430.487 332.878 430.847 334.616L442.382 390.093C442.746 391.829 443.774 393.349 445.241 394.319C446.708 395.288 448.495 395.628 450.209 395.264L517.436 380.9C519.149 380.532 520.648 379.49 521.605 378.003C522.561 376.515 522.896 374.704 522.537 372.967L511.001 317.49C510.638 315.753 509.61 314.233 508.143 313.264C506.675 312.294 504.889 311.954 503.175 312.318L435.948 326.682Z" fill="#3F3D56"/>
<path d="M498.817 329.737L464.888 336.986C464.591 337.056 464.279 337.009 464.015 336.855C463.751 336.7 463.555 336.45 463.466 336.155C463.425 336.001 463.416 335.84 463.439 335.682C463.462 335.524 463.516 335.372 463.598 335.236C463.68 335.101 463.789 334.983 463.918 334.891C464.047 334.799 464.192 334.735 464.346 334.702L498.883 327.323C500.232 328.093 499.806 329.526 498.816 329.737L498.817 329.737Z" fill="#CCCCCC"/>
<path d="M500.071 335.77L466.142 343.019C465.845 343.089 465.533 343.042 465.269 342.887C465.005 342.733 464.809 342.483 464.72 342.187C464.679 342.033 464.67 341.872 464.693 341.714C464.715 341.556 464.77 341.405 464.852 341.269C464.934 341.133 465.043 341.016 465.172 340.924C465.3 340.832 465.446 340.767 465.6 340.734L500.137 333.355C501.486 334.126 501.06 335.558 500.071 335.77Z" fill="#CCCCCC"/>
<path d="M459.522 348.021L449.168 350.233C448.83 350.305 448.477 350.238 448.188 350.047C447.898 349.856 447.696 349.556 447.624 349.213L445.048 336.827C444.977 336.484 445.044 336.127 445.232 335.833C445.421 335.54 445.717 335.335 446.055 335.262L456.409 333.05C456.747 332.978 457.1 333.045 457.389 333.236C457.679 333.427 457.881 333.727 457.953 334.07L460.529 346.456C460.6 346.799 460.534 347.156 460.345 347.449C460.156 347.743 459.86 347.948 459.522 348.021Z" fill="#CCCCCC"/>
<path d="M502.54 348.143L450.759 359.206C450.463 359.276 450.151 359.229 449.887 359.075C449.623 358.92 449.426 358.67 449.337 358.374C449.297 358.22 449.287 358.059 449.31 357.902C449.333 357.744 449.387 357.592 449.469 357.456C449.552 357.32 449.66 357.203 449.789 357.111C449.918 357.019 450.063 356.955 450.217 356.922L502.607 345.728C503.956 346.498 503.53 347.931 502.54 348.143Z" fill="#CCCCCC"/>
<path d="M503.795 354.177L452.014 365.241C451.717 365.31 451.405 365.263 451.141 365.109C450.877 364.955 450.681 364.704 450.592 364.409C450.551 364.255 450.542 364.094 450.565 363.936C450.588 363.778 450.642 363.627 450.724 363.491C450.806 363.355 450.915 363.237 451.044 363.145C451.173 363.053 451.318 362.989 451.472 362.956L503.862 351.762C505.211 352.533 504.784 353.966 503.795 354.177Z" fill="#CCCCCC"/>
<path d="M505.049 360.207L453.268 371.271C452.971 371.341 452.659 371.294 452.395 371.139C452.131 370.985 451.935 370.735 451.846 370.439C451.805 370.285 451.796 370.124 451.819 369.966C451.841 369.808 451.896 369.657 451.978 369.521C452.06 369.385 452.169 369.268 452.298 369.176C452.426 369.084 452.572 369.019 452.726 368.986L505.116 357.793C506.465 358.563 506.038 359.996 505.049 360.207Z" fill="#CCCCCC"/>
<path d="M506.304 366.241L454.523 377.305C454.226 377.375 453.914 377.328 453.65 377.173C453.386 377.019 453.19 376.769 453.101 376.473C453.06 376.319 453.051 376.158 453.074 376C453.096 375.842 453.15 375.691 453.233 375.555C453.315 375.419 453.424 375.301 453.553 375.21C453.681 375.118 453.827 375.053 453.981 375.02L506.371 363.827C507.719 364.597 507.293 366.03 506.304 366.241Z" fill="#CCCCCC"/>
<path d="M507.558 372.272L455.777 383.336C455.48 383.405 455.168 383.358 454.904 383.204C454.64 383.05 454.444 382.799 454.355 382.504C454.314 382.35 454.305 382.189 454.328 382.031C454.35 381.873 454.404 381.722 454.487 381.586C454.569 381.45 454.678 381.332 454.807 381.24C454.935 381.148 455.081 381.084 455.235 381.051L507.625 369.857C508.973 370.628 508.547 372.061 507.558 372.272Z" fill="#CCCCCC"/>
<path d="M515.817 344.653C515.7 344.87 515.599 345.095 515.517 345.327L494.318 350.66L490.631 346.792L484.146 351.671L490.018 359.16C490.492 359.765 491.147 360.198 491.885 360.393C492.622 360.589 493.403 360.536 494.109 360.244L517.111 350.716C517.867 351.281 518.774 351.598 519.713 351.627C520.651 351.655 521.576 351.393 522.364 350.876C523.152 350.359 523.766 349.611 524.124 348.731C524.483 347.852 524.568 346.882 524.37 345.952C524.172 345.022 523.698 344.175 523.014 343.524C522.329 342.873 521.465 342.449 520.536 342.308C519.608 342.167 518.659 342.316 517.816 342.735C516.973 343.154 516.276 343.823 515.817 344.653Z" fill="#FFB8B8"/>
<path d="M443.46 392.104C444.121 391.898 444.729 391.546 445.242 391.075C445.754 390.605 446.159 390.026 446.426 389.379C446.694 388.733 446.819 388.035 446.792 387.334C446.765 386.634 446.586 385.947 446.269 385.324L460.858 344.223L450.727 342.403L439.572 383.377C438.575 383.986 437.833 384.945 437.486 386.072C437.139 387.199 437.213 388.415 437.692 389.491C438.171 390.567 439.023 391.427 440.086 391.909C441.149 392.39 442.35 392.46 443.46 392.104Z" fill="#FFB8B8"/>
<path d="M459.005 351.519L449.002 347.628C448.717 347.517 448.46 347.346 448.246 347.125C448.033 346.904 447.869 346.639 447.766 346.348C447.663 346.058 447.623 345.748 447.648 345.44C447.674 345.132 447.764 344.833 447.914 344.564L453.162 335.133C453.729 333.661 454.849 332.477 456.277 331.84C457.704 331.204 459.322 331.167 460.776 331.737C462.23 332.308 463.402 333.44 464.034 334.885C464.667 336.329 464.708 337.969 464.15 339.445L461.835 349.98C461.769 350.281 461.639 350.565 461.455 350.811C461.271 351.057 461.036 351.26 460.768 351.407C460.499 351.553 460.203 351.638 459.898 351.658C459.594 351.677 459.289 351.63 459.005 351.519Z" fill="#64D4AB"/>
<path d="M481.582 469.27H486.981L489.55 448.16L481.581 448.16L481.582 469.27Z" fill="#FFB8B8"/>
<path d="M480.205 467.483L490.838 467.483H490.839C491.729 467.483 492.61 467.661 493.432 468.006C494.254 468.351 495.001 468.857 495.63 469.495C496.259 470.132 496.759 470.89 497.099 471.723C497.44 472.556 497.615 473.45 497.615 474.352V474.575L480.205 474.576L480.205 467.483Z" fill="#2B3E33"/>
<path d="M451.194 469.27H456.593L459.162 448.16L451.193 448.16L451.194 469.27Z" fill="#FFB8B8"/>
<path d="M449.816 467.483L460.45 467.483H460.45C461.34 467.483 462.221 467.661 463.043 468.006C463.865 468.351 464.612 468.857 465.242 469.495C465.871 470.132 466.37 470.89 466.71 471.723C467.051 472.556 467.226 473.45 467.226 474.352V474.575L449.817 474.576L449.816 467.483Z" fill="#2B3E33"/>
<path d="M456.855 460.774H450.022C449.754 460.774 449.488 460.718 449.242 460.611C448.995 460.504 448.773 460.348 448.588 460.151C448.403 459.954 448.259 459.722 448.165 459.467C448.071 459.212 448.03 458.941 448.042 458.669L451.288 387.986L451.492 387.98L484.487 387.108L490.944 457.832C490.969 458.097 490.941 458.365 490.863 458.619C490.785 458.873 490.658 459.109 490.489 459.313C490.32 459.517 490.113 459.685 489.88 459.808C489.646 459.93 489.391 460.003 489.129 460.025L481.454 460.647C480.972 460.686 480.493 460.545 480.106 460.25C479.719 459.956 479.452 459.528 479.355 459.048L469.538 408.702C469.511 408.549 469.431 408.41 469.313 408.312C469.194 408.214 469.044 408.162 468.891 408.166H468.888C468.735 408.163 468.585 408.215 468.466 408.315C468.348 408.414 468.268 408.553 468.243 408.707L458.799 459.153C458.71 459.609 458.467 460.02 458.113 460.315C457.758 460.611 457.314 460.773 456.855 460.774Z" fill="#2B3E33"/>
<path d="M469.371 324.945C475.345 324.945 480.187 320.036 480.187 313.981C480.187 307.925 475.345 303.016 469.371 303.016C463.397 303.016 458.554 307.925 458.554 313.981C458.554 320.036 463.397 324.945 469.371 324.945Z" fill="#FFB8B8"/>
<path d="M465.743 396.269C460.588 396.269 455.292 394.895 450.902 390.834C450.669 390.619 450.488 390.352 450.376 390.053C450.264 389.755 450.222 389.433 450.255 389.116C450.725 384.836 453.004 362.74 451.721 347.98C451.47 345.223 451.855 342.445 452.845 339.865C453.836 337.285 455.404 334.973 457.426 333.112C459.414 331.256 461.799 329.893 464.395 329.131C466.991 328.369 469.725 328.229 472.384 328.722C472.518 328.747 472.653 328.772 472.788 328.798C481.448 330.497 487.465 338.622 486.784 347.696C485.791 360.937 484.9 378.847 486.298 388.976C486.356 389.39 486.285 389.813 486.094 390.184C485.904 390.555 485.603 390.857 485.235 391.046C482.053 392.676 474.081 396.269 465.743 396.269Z" fill="#64D4AB"/>
<path d="M479.858 352.308C479.604 352.137 479.39 351.912 479.23 351.65C479.069 351.387 478.967 351.092 478.929 350.785L477.611 340.076C477.193 338.553 477.388 336.924 478.152 335.546C478.917 334.168 480.19 333.154 481.691 332.725C483.192 332.297 484.8 332.49 486.161 333.261C487.523 334.032 488.527 335.319 488.954 336.84L493.295 346.733C493.418 347.016 493.481 347.322 493.477 347.631C493.474 347.94 493.405 348.244 493.275 348.524C493.145 348.803 492.957 349.051 492.724 349.251C492.491 349.45 492.219 349.596 491.925 349.679L481.603 352.59C481.309 352.673 481.001 352.691 480.7 352.642C480.399 352.594 480.112 352.48 479.858 352.308Z" fill="#64D4AB"/>
<path d="M465.594 324.791C464.571 324.81 463.553 324.623 462.601 324.242C462.182 324.078 461.747 323.943 461.329 323.78C457.635 322.333 455.202 318.346 455.115 314.333C455.028 310.32 457.078 306.425 460.122 303.859C463.166 301.292 467.109 299.974 471.057 299.67C475.31 299.341 480.099 300.435 482.475 304.025C483.108 304.98 483.55 306.14 483.176 307.294C483.063 307.642 482.863 307.954 482.594 308.199C481.533 309.156 480.475 308.436 479.393 308.373C477.906 308.285 476.57 309.506 476.09 310.935C475.61 312.364 475.821 313.938 476.209 315.396C476.504 316.273 476.69 317.184 476.763 318.108C476.794 318.571 476.708 319.035 476.513 319.455C476.318 319.876 476.021 320.238 475.649 320.509C474.719 321.079 473.499 320.749 472.569 320.181C471.639 319.612 470.836 318.822 469.832 318.404C468.827 317.985 467.478 318.078 466.894 319.006C466.708 319.343 466.582 319.711 466.522 320.093C465.998 322.513 466.118 322.37 465.594 324.791Z" fill="#2B3E33"/>
<path d="M615.421 309.818H546.717C544.732 309.816 542.829 309.016 541.426 307.593C540.022 306.17 539.233 304.241 539.23 302.229V245.533C539.233 243.521 540.022 241.592 541.426 240.169C542.829 238.747 544.732 237.946 546.717 237.944H615.421C617.406 237.946 619.309 238.747 620.713 240.169C622.116 241.592 622.906 243.521 622.908 245.533V302.229C622.906 304.241 622.116 306.17 620.713 307.593C619.309 309.016 617.406 309.816 615.421 309.818ZM546.717 238.837C544.966 238.839 543.287 239.545 542.048 240.8C540.81 242.056 540.113 243.758 540.111 245.533V302.229C540.113 304.005 540.81 305.707 542.048 306.962C543.287 308.217 544.966 308.924 546.717 308.926H615.421C617.173 308.924 618.852 308.217 620.09 306.962C621.329 305.707 622.025 304.005 622.027 302.229V245.533C622.025 243.758 621.329 242.056 620.09 240.8C618.852 239.545 617.173 238.839 615.421 238.837H546.717Z" fill="#3F3D56"/>
<path d="M607.612 254.97H572.938C572.633 254.976 572.337 254.865 572.111 254.659C571.884 254.452 571.742 254.167 571.716 253.859C571.707 253.699 571.731 253.54 571.785 253.39C571.839 253.241 571.923 253.104 572.031 252.988C572.14 252.872 572.27 252.78 572.415 252.717C572.559 252.654 572.715 252.621 572.872 252.621H608.168C609.331 253.657 608.623 254.97 607.612 254.97Z" fill="#CCCCCC"/>
<path d="M607.612 261.135H572.938C572.633 261.141 572.337 261.03 572.111 260.824C571.884 260.617 571.742 260.332 571.716 260.024C571.707 259.865 571.731 259.705 571.785 259.555C571.839 259.406 571.923 259.269 572.031 259.153C572.14 259.037 572.27 258.945 572.415 258.882C572.559 258.819 572.715 258.786 572.872 258.786H608.168C609.331 259.822 608.623 261.135 607.612 261.135Z" fill="#CCCCCC"/>
<path d="M565.442 264.645H554.86C554.514 264.645 554.183 264.506 553.939 264.258C553.694 264.01 553.557 263.675 553.557 263.324V250.666C553.557 250.316 553.694 249.98 553.939 249.732C554.183 249.485 554.514 249.345 554.86 249.345H565.442C565.787 249.345 566.119 249.485 566.363 249.732C566.607 249.98 566.745 250.316 566.745 250.666V263.324C566.745 263.675 566.607 264.01 566.363 264.258C566.119 264.506 565.787 264.645 565.442 264.645Z" fill="#3F3D56"/>
<path d="M607.511 273.758H554.592C554.287 273.764 553.992 273.653 553.765 273.447C553.538 273.241 553.397 272.955 553.37 272.647C553.361 272.488 553.385 272.328 553.439 272.178C553.494 272.029 553.578 271.892 553.686 271.776C553.794 271.66 553.924 271.568 554.069 271.505C554.214 271.442 554.369 271.409 554.527 271.409H608.068C609.231 272.445 608.522 273.758 607.511 273.758Z" fill="#CCCCCC"/>
<path d="M607.511 279.925H554.592C554.287 279.931 553.992 279.82 553.765 279.614C553.538 279.408 553.397 279.122 553.37 278.814C553.361 278.655 553.385 278.495 553.439 278.345C553.494 278.196 553.578 278.059 553.686 277.943C553.794 277.827 553.924 277.735 554.069 277.672C554.214 277.609 554.369 277.576 554.527 277.576H608.068C609.231 278.612 608.522 279.925 607.511 279.925Z" fill="#CCCCCC"/>
<path d="M607.511 286.088H554.592C554.287 286.094 553.992 285.983 553.765 285.777C553.538 285.57 553.397 285.284 553.37 284.977C553.361 284.817 553.385 284.658 553.439 284.508C553.494 284.359 553.578 284.222 553.686 284.106C553.794 283.99 553.924 283.898 554.069 283.835C554.214 283.772 554.369 283.739 554.527 283.739H608.068C609.231 284.775 608.522 286.088 607.511 286.088Z" fill="#CCCCCC"/>
<path d="M607.511 292.254H554.592C554.287 292.261 553.992 292.149 553.765 291.943C553.538 291.737 553.397 291.451 553.37 291.143C553.361 290.984 553.385 290.825 553.439 290.675C553.494 290.525 553.578 290.388 553.686 290.272C553.794 290.157 553.924 290.064 554.069 290.001C554.214 289.938 554.369 289.906 554.527 289.906H608.068C609.231 290.941 608.522 292.254 607.511 292.254Z" fill="#CCCCCC"/>
<path d="M607.511 298.418H554.592C554.287 298.424 553.992 298.313 553.765 298.106C553.538 297.9 553.397 297.614 553.37 297.307C553.361 297.147 553.385 296.988 553.439 296.838C553.494 296.688 553.578 296.551 553.686 296.436C553.794 296.32 553.924 296.228 554.069 296.165C554.214 296.102 554.369 296.069 554.527 296.069H608.068C609.231 297.105 608.522 298.418 607.511 298.418Z" fill="#CCCCCC"/>
<path d="M600.447 232.141C601.031 232.141 601.591 232.377 602.004 232.795C602.416 233.214 602.649 233.781 602.649 234.373V241.516C602.649 242.107 602.416 242.675 602.004 243.093C601.591 243.512 601.031 243.747 600.447 243.748H561.691C561.107 243.747 560.548 243.512 560.135 243.093C559.722 242.675 559.49 242.107 559.489 241.516V234.373C559.49 233.781 559.722 233.214 560.135 232.795C560.548 232.377 561.107 232.141 561.691 232.141" fill="#64D4AB"/>
<path d="M714.513 379.907H645.809C643.824 379.905 641.921 379.104 640.518 377.682C639.114 376.259 638.325 374.33 638.322 372.318V315.622C638.325 313.61 639.114 311.681 640.518 310.258C641.921 308.835 643.824 308.035 645.809 308.033H714.513C716.498 308.035 718.401 308.835 719.804 310.258C721.208 311.681 721.998 313.61 722 315.622V372.318C721.998 374.33 721.208 376.259 719.804 377.682C718.401 379.104 716.498 379.905 714.513 379.907ZM645.809 308.926C644.058 308.928 642.379 309.634 641.14 310.889C639.902 312.144 639.205 313.847 639.203 315.622V372.318C639.205 374.093 639.902 375.795 641.14 377.051C642.379 378.306 644.058 379.012 645.809 379.014H714.513C716.264 379.012 717.943 378.306 719.182 377.051C720.42 375.795 721.117 374.093 721.119 372.318V315.622C721.117 313.847 720.42 312.144 719.182 310.889C717.943 309.634 716.264 308.928 714.513 308.926H645.809Z" fill="#3F3D56"/>
<path d="M706.704 325.059H672.03C671.725 325.065 671.429 324.954 671.202 324.747C670.975 324.541 670.834 324.255 670.807 323.947C670.799 323.788 670.823 323.629 670.877 323.479C670.931 323.329 671.015 323.192 671.123 323.077C671.232 322.961 671.362 322.869 671.506 322.805C671.651 322.742 671.807 322.71 671.964 322.71H707.26C708.423 323.746 707.715 325.059 706.704 325.059Z" fill="#3F3D56"/>
<path d="M706.704 331.224H672.03C671.725 331.23 671.429 331.119 671.202 330.912C670.975 330.706 670.834 330.42 670.807 330.112C670.799 329.953 670.823 329.794 670.877 329.644C670.931 329.494 671.015 329.357 671.123 329.242C671.232 329.126 671.362 329.034 671.506 328.971C671.651 328.908 671.807 328.875 671.964 328.875H707.26C708.423 329.911 707.715 331.224 706.704 331.224Z" fill="#3F3D56"/>
<path d="M664.534 334.734H653.952C653.606 334.734 653.275 334.594 653.031 334.347C652.786 334.099 652.649 333.763 652.648 333.413V320.755C652.649 320.404 652.786 320.069 653.031 319.821C653.275 319.573 653.606 319.434 653.952 319.434H664.534C664.879 319.434 665.21 319.573 665.455 319.821C665.699 320.069 665.836 320.404 665.837 320.755V333.413C665.837 333.763 665.699 334.099 665.455 334.347C665.211 334.594 664.879 334.734 664.534 334.734Z" fill="#CCCCCC"/>
<path d="M706.373 369.109H695.79C695.445 369.108 695.114 368.969 694.869 368.721C694.625 368.474 694.488 368.138 694.487 367.788V360.486C694.488 360.136 694.625 359.8 694.869 359.553C695.114 359.305 695.445 359.166 695.79 359.165H706.373C706.718 359.166 707.049 359.305 707.294 359.553C707.538 359.8 707.675 360.136 707.676 360.486V367.788C707.675 368.138 707.538 368.474 707.294 368.721C707.049 368.969 706.718 369.108 706.373 369.109Z" fill="#3F3D56"/>
<path d="M706.603 343.847H653.684C653.379 343.853 653.084 343.742 652.857 343.535C652.63 343.329 652.489 343.043 652.462 342.735C652.453 342.576 652.477 342.417 652.531 342.267C652.585 342.117 652.669 341.98 652.778 341.865C652.886 341.749 653.016 341.657 653.161 341.594C653.305 341.531 653.461 341.498 653.618 341.498H707.16C708.322 342.534 707.614 343.847 706.603 343.847Z" fill="#CCCCCC"/>
<path d="M706.603 350.014H653.684C653.379 350.02 653.084 349.909 652.857 349.702C652.63 349.496 652.489 349.21 652.462 348.903C652.453 348.743 652.477 348.584 652.531 348.434C652.585 348.284 652.669 348.147 652.778 348.032C652.886 347.916 653.016 347.824 653.161 347.761C653.305 347.698 653.461 347.665 653.618 347.665H707.16C708.322 348.701 707.614 350.014 706.603 350.014Z" fill="#CCCCCC"/>
<path d="M706.603 356.177H653.684C653.379 356.183 653.084 356.072 652.857 355.865C652.63 355.659 652.489 355.373 652.462 355.065C652.453 354.906 652.477 354.747 652.531 354.597C652.585 354.447 652.669 354.31 652.778 354.194C652.886 354.079 653.016 353.986 653.161 353.923C653.305 353.86 653.461 353.828 653.618 353.828H707.16C708.322 354.864 707.614 356.177 706.603 356.177Z" fill="#CCCCCC"/>
<path d="M678.857 362.343H653.684C653.379 362.349 653.084 362.238 652.857 362.032C652.63 361.826 652.489 361.54 652.462 361.232C652.453 361.073 652.477 360.913 652.531 360.763C652.585 360.614 652.669 360.477 652.778 360.361C652.886 360.245 653.016 360.153 653.161 360.09C653.305 360.027 653.461 359.994 653.618 359.994H679.414C680.577 361.03 679.868 362.343 678.857 362.343Z" fill="#CCCCCC"/>
<path d="M678.857 368.506H653.684C653.379 368.513 653.084 368.401 652.857 368.195C652.63 367.989 652.489 367.703 652.462 367.395C652.453 367.236 652.477 367.077 652.531 366.927C652.585 366.777 652.669 366.64 652.778 366.524C652.886 366.409 653.016 366.316 653.161 366.253C653.305 366.19 653.461 366.158 653.618 366.158H679.414C680.577 367.193 679.868 368.506 678.857 368.506Z" fill="#CCCCCC"/>
<path d="M699.539 313.836H660.783C660.199 313.836 659.64 313.6 659.227 313.182C658.814 312.763 658.582 312.196 658.581 311.604V304.461C658.582 303.87 658.814 303.302 659.227 302.884C659.64 302.465 660.199 302.23 660.783 302.229H699.539C700.123 302.23 700.683 302.465 701.095 302.884C701.508 303.302 701.74 303.87 701.741 304.461V311.604C701.74 312.196 701.508 312.763 701.095 313.182C700.683 313.6 700.123 313.836 699.539 313.836Z" fill="#64D4AB"/>
<path d="M565.483 474.996H397.687C397.571 474.996 397.459 474.949 397.376 474.865C397.293 474.781 397.247 474.668 397.247 474.549C397.247 474.431 397.293 474.317 397.376 474.234C397.459 474.15 397.571 474.103 397.687 474.103H565.483C565.6 474.103 565.712 474.15 565.794 474.234C565.877 474.317 565.923 474.431 565.923 474.549C565.923 474.668 565.877 474.781 565.794 474.865C565.712 474.949 565.6 474.996 565.483 474.996Z" fill="#3F3D56"/>
<path d="M439.863 245.44C441.436 245.44 442.711 244.148 442.711 242.553C442.711 240.959 441.436 239.666 439.863 239.666C438.29 239.666 437.015 240.959 437.015 242.553C437.015 244.148 438.29 245.44 439.863 245.44Z" fill="#F2F2F2"/>
<path d="M439.863 256.946C441.436 256.946 442.711 255.654 442.711 254.059C442.711 252.465 441.436 251.172 439.863 251.172C438.29 251.172 437.015 252.465 437.015 254.059C437.015 255.654 438.29 256.946 439.863 256.946Z" fill="#F2F2F2"/>
<path d="M439.863 268.452C441.436 268.452 442.711 267.159 442.711 265.565C442.711 263.97 441.436 262.678 439.863 262.678C438.29 262.678 437.015 263.97 437.015 265.565C437.015 267.159 438.29 268.452 439.863 268.452Z" fill="#F2F2F2"/>
<path d="M439.863 279.958C441.436 279.958 442.711 278.665 442.711 277.071C442.711 275.476 441.436 274.184 439.863 274.184C438.29 274.184 437.015 275.476 437.015 277.071C437.015 278.665 438.29 279.958 439.863 279.958Z" fill="#F2F2F2"/>
<path d="M451.753 245.44C453.326 245.44 454.601 244.148 454.601 242.553C454.601 240.959 453.326 239.666 451.753 239.666C450.18 239.666 448.905 240.959 448.905 242.553C448.905 244.148 450.18 245.44 451.753 245.44Z" fill="#F2F2F2"/>
<path d="M451.753 256.946C453.326 256.946 454.601 255.654 454.601 254.059C454.601 252.465 453.326 251.172 451.753 251.172C450.18 251.172 448.905 252.465 448.905 254.059C448.905 255.654 450.18 256.946 451.753 256.946Z" fill="#F2F2F2"/>
<path d="M451.753 268.452C453.326 268.452 454.601 267.159 454.601 265.565C454.601 263.97 453.326 262.678 451.753 262.678C450.18 262.678 448.905 263.97 448.905 265.565C448.905 267.159 450.18 268.452 451.753 268.452Z" fill="#F2F2F2"/>
<path d="M451.753 279.958C453.326 279.958 454.601 278.665 454.601 277.071C454.601 275.476 453.326 274.184 451.753 274.184C450.18 274.184 448.905 275.476 448.905 277.071C448.905 278.665 450.18 279.958 451.753 279.958Z" fill="#F2F2F2"/>
<path d="M463.645 245.44C465.218 245.44 466.493 244.148 466.493 242.553C466.493 240.959 465.218 239.666 463.645 239.666C462.072 239.666 460.797 240.959 460.797 242.553C460.797 244.148 462.072 245.44 463.645 245.44Z" fill="#F2F2F2"/>
<path d="M463.645 256.946C465.218 256.946 466.493 255.654 466.493 254.059C466.493 252.465 465.218 251.172 463.645 251.172C462.072 251.172 460.797 252.465 460.797 254.059C460.797 255.654 462.072 256.946 463.645 256.946Z" fill="#F2F2F2"/>
<path d="M463.645 268.452C465.218 268.452 466.493 267.159 466.493 265.565C466.493 263.97 465.218 262.678 463.645 262.678C462.072 262.678 460.797 263.97 460.797 265.565C460.797 267.159 462.072 268.452 463.645 268.452Z" fill="#F2F2F2"/>
<path d="M463.645 279.958C465.218 279.958 466.493 278.665 466.493 277.071C466.493 275.476 465.218 274.184 463.645 274.184C462.072 274.184 460.797 275.476 460.797 277.071C460.797 278.665 462.072 279.958 463.645 279.958Z" fill="#F2F2F2"/>
<path d="M475.536 245.44C477.109 245.44 478.384 244.148 478.384 242.553C478.384 240.959 477.109 239.666 475.536 239.666C473.963 239.666 472.688 240.959 472.688 242.553C472.688 244.148 473.963 245.44 475.536 245.44Z" fill="#F2F2F2"/>
<path d="M475.536 256.946C477.109 256.946 478.384 255.654 478.384 254.059C478.384 252.465 477.109 251.172 475.536 251.172C473.963 251.172 472.688 252.465 472.688 254.059C472.688 255.654 473.963 256.946 475.536 256.946Z" fill="#F2F2F2"/>
<path d="M475.536 268.452C477.109 268.452 478.384 267.159 478.384 265.565C478.384 263.97 477.109 262.678 475.536 262.678C473.963 262.678 472.688 263.97 472.688 265.565C472.688 267.159 473.963 268.452 475.536 268.452Z" fill="#F2F2F2"/>
<path d="M475.536 279.958C477.109 279.958 478.384 278.665 478.384 277.071C478.384 275.476 477.109 274.184 475.536 274.184C473.963 274.184 472.688 275.476 472.688 277.071C472.688 278.665 473.963 279.958 475.536 279.958Z" fill="#F2F2F2"/>
<path d="M487.427 245.44C489 245.44 490.275 244.148 490.275 242.553C490.275 240.959 489 239.666 487.427 239.666C485.854 239.666 484.579 240.959 484.579 242.553C484.579 244.148 485.854 245.44 487.427 245.44Z" fill="#F2F2F2"/>
<path d="M487.427 256.946C489 256.946 490.275 255.654 490.275 254.059C490.275 252.465 489 251.172 487.427 251.172C485.854 251.172 484.579 252.465 484.579 254.059C484.579 255.654 485.854 256.946 487.427 256.946Z" fill="#F2F2F2"/>
<path d="M487.427 268.452C489 268.452 490.275 267.159 490.275 265.565C490.275 263.97 489 262.678 487.427 262.678C485.854 262.678 484.579 263.97 484.579 265.565C484.579 267.159 485.854 268.452 487.427 268.452Z" fill="#F2F2F2"/>
<path d="M487.427 279.958C489 279.958 490.275 278.665 490.275 277.071C490.275 275.476 489 274.184 487.427 274.184C485.854 274.184 484.579 275.476 484.579 277.071C484.579 278.665 485.854 279.958 487.427 279.958Z" fill="#F2F2F2"/>
<path d="M499.318 245.44C500.891 245.44 502.166 244.148 502.166 242.553C502.166 240.959 500.891 239.666 499.318 239.666C497.745 239.666 496.47 240.959 496.47 242.553C496.47 244.148 497.745 245.44 499.318 245.44Z" fill="#F2F2F2"/>
<path d="M499.318 256.946C500.891 256.946 502.166 255.654 502.166 254.059C502.166 252.465 500.891 251.172 499.318 251.172C497.745 251.172 496.47 252.465 496.47 254.059C496.47 255.654 497.745 256.946 499.318 256.946Z" fill="#F2F2F2"/>
<path d="M499.318 268.452C500.891 268.452 502.166 267.159 502.166 265.565C502.166 263.97 500.891 262.678 499.318 262.678C497.745 262.678 496.47 263.97 496.47 265.565C496.47 267.159 497.745 268.452 499.318 268.452Z" fill="#F2F2F2"/>
<path d="M499.318 279.958C500.891 279.958 502.166 278.665 502.166 277.071C502.166 275.476 500.891 274.184 499.318 274.184C497.745 274.184 496.47 275.476 496.47 277.071C496.47 278.665 497.745 279.958 499.318 279.958Z" fill="#F2F2F2"/>
<path d="M662.269 405.26C663.842 405.26 665.117 403.967 665.117 402.373C665.117 400.779 663.842 399.486 662.269 399.486C660.696 399.486 659.421 400.779 659.421 402.373C659.421 403.967 660.696 405.26 662.269 405.26Z" fill="#F2F2F2"/>
<path d="M662.269 416.766C663.842 416.766 665.117 415.473 665.117 413.879C665.117 412.284 663.842 410.992 662.269 410.992C660.696 410.992 659.421 412.284 659.421 413.879C659.421 415.473 660.696 416.766 662.269 416.766Z" fill="#F2F2F2"/>
<path d="M662.269 428.272C663.842 428.272 665.117 426.979 665.117 425.385C665.117 423.79 663.842 422.498 662.269 422.498C660.696 422.498 659.421 423.79 659.421 425.385C659.421 426.979 660.696 428.272 662.269 428.272Z" fill="#F2F2F2"/>
<path d="M674.16 405.26C675.733 405.26 677.008 403.967 677.008 402.373C677.008 400.779 675.733 399.486 674.16 399.486C672.587 399.486 671.312 400.779 671.312 402.373C671.312 403.967 672.587 405.26 674.16 405.26Z" fill="#F2F2F2"/>
<path d="M674.16 416.766C675.733 416.766 677.008 415.473 677.008 413.879C677.008 412.284 675.733 410.992 674.16 410.992C672.587 410.992 671.312 412.284 671.312 413.879C671.312 415.473 672.587 416.766 674.16 416.766Z" fill="#F2F2F2"/>
<path d="M674.16 428.272C675.733 428.272 677.008 426.979 677.008 425.385C677.008 423.79 675.733 422.498 674.16 422.498C672.587 422.498 671.312 423.79 671.312 425.385C671.312 426.979 672.587 428.272 674.16 428.272Z" fill="#F2F2F2"/>
<path d="M686.051 405.26C687.624 405.26 688.899 403.967 688.899 402.373C688.899 400.779 687.624 399.486 686.051 399.486C684.478 399.486 683.203 400.779 683.203 402.373C683.203 403.967 684.478 405.26 686.051 405.26Z" fill="#F2F2F2"/>
<path d="M686.051 416.766C687.624 416.766 688.899 415.473 688.899 413.879C688.899 412.284 687.624 410.992 686.051 410.992C684.478 410.992 683.203 412.284 683.203 413.879C683.203 415.473 684.478 416.766 686.051 416.766Z" fill="#F2F2F2"/>
<path d="M686.051 428.272C687.624 428.272 688.899 426.979 688.899 425.385C688.899 423.79 687.624 422.498 686.051 422.498C684.478 422.498 683.203 423.79 683.203 425.385C683.203 426.979 684.478 428.272 686.051 428.272Z" fill="#F2F2F2"/>
<path d="M697.942 405.26C699.515 405.26 700.79 403.967 700.79 402.373C700.79 400.779 699.515 399.486 697.942 399.486C696.369 399.486 695.094 400.779 695.094 402.373C695.094 403.967 696.369 405.26 697.942 405.26Z" fill="#F2F2F2"/>
<path d="M697.942 416.766C699.515 416.766 700.79 415.473 700.79 413.879C700.79 412.284 699.515 410.992 697.942 410.992C696.369 410.992 695.094 412.284 695.094 413.879C695.094 415.473 696.369 416.766 697.942 416.766Z" fill="#F2F2F2"/>
<path d="M697.942 428.272C699.515 428.272 700.79 426.979 700.79 425.385C700.79 423.79 699.515 422.498 697.942 422.498C696.369 422.498 695.094 423.79 695.094 425.385C695.094 426.979 696.369 428.272 697.942 428.272Z" fill="#F2F2F2"/>
</g>
<defs>
<clipPath id="clip0_26_704">
<rect width="359.813" height="180.802" fill="white"/>
</clipPath>
<clipPath id="clip1_26_704">
<rect width="355.85" height="202.007" fill="white" transform="translate(365.979 0.223145)"/>
</clipPath>
<clipPath id="clip2_26_704">
<rect width="329.723" height="225.895" fill="white" transform="translate(0 249.105)"/>
</clipPath>
<clipPath id="clip3_26_704">
<rect width="324.752" height="242.855" fill="white" transform="translate(397.247 232.141)"/>
</clipPath>
</defs>
</svg>
